SplineFontDB: 2.0
FontName: THNiramitAS-Italic
FullName: THNiramitAS-Italic
FamilyName: TH Niramit AS
Weight: Book
Copyright: Copyright (c) 2006 by Department of Intellectual Property (DIP), Ministry of Commerce and Software Industry Promotion Agency (Public Organization) (SIPA). All rights reserved.
Version: 1.1
ItalicAngle: -12
UnderlinePosition: -35
UnderlineWidth: 30
Ascent: 800
Descent: 200
Order2: 1
XUID: [1021 375 425136265 9818168]
FSType: 0
OS2Version: 3
OS2_WeightWidthSlopeOnly: 0
OS2_UseTypoMetrics: 1
CreationTime: 1157457519
ModificationTime: 1196156190
PfmFamily: 17
TTFWeight: 400
TTFWidth: 5
LineGap: 60
VLineGap: 0
Panose: 2 0 5 6 0 0 0 2 0 4
OS2TypoAscent: 0
OS2TypoAOffset: 1
OS2TypoDescent: 0
OS2TypoDOffset: 1
OS2TypoLinegap: 0
OS2WinAscent: 17
OS2WinAOffset: 1
OS2WinDescent: 9
OS2WinDOffset: 1
HheadAscent: -39
HheadAOffset: 1
HheadDescent: 276
HheadDOffset: 1
OS2SubXSize: 700
OS2SubYSize: 650
OS2SubXOff: 0
OS2SubYOff: 140
OS2SupXSize: 700
OS2SupYSize: 650
OS2SupXOff: 0
OS2SupYOff: 477
OS2StrikeYSize: 30
OS2StrikeYPos: 250
OS2FamilyClass: 773
OS2Vendor: 'IPTH'
Lookup: 4 0 0 "'frac' Diagonal Fractions in Latin lookup 0"  {"'frac' Diagonal Fractions in Latin lookup 0 subtable"  } ['frac' ('latn' <'dflt' > ) ]
Lookup: 6 0 0 "'liga' Standard Ligatures in Latin lookup 1"  {"'liga' Standard Ligatures in Latin lookup 1 subtable"  } ['liga' ('latn' <'dflt' > ) ]
Lookup: 6 0 0 "'liga' Standard Ligatures in Latin lookup 2"  {"'liga' Standard Ligatures in Latin lookup 2 subtable"  } ['liga' ('latn' <'dflt' > ) ]
Lookup: 6 0 0 "'liga' Standard Ligatures in Latin lookup 3"  {"'liga' Standard Ligatures in Latin lookup 3 subtable"  } ['liga' ('latn' <'dflt' > ) ]
Lookup: 6 0 0 "'liga' Standard Ligatures in Latin lookup 4"  {"'liga' Standard Ligatures in Latin lookup 4 subtable"  } ['liga' ('latn' <'dflt' > ) ]
Lookup: 6 0 0 "'liga' Standard Ligatures in Latin lookup 5"  {"'liga' Standard Ligatures in Latin lookup 5 subtable"  } ['liga' ('latn' <'dflt' > ) ]

StartChar: .notdef
Encoding: 65536 -1 0
Width: 747
VWidth: 1494
Flags: W
HStem: 0 52<155 611> 987 52<354 810>
Fore
611 52 m 1,0,-1
 810 987 l 1,1,-1
 354 987 l 1,2,-1
 155 52 l 1,3,-1
 611 52 l 1,0,-1
652 0 m 1,4,-1
 94 0 l 1,5,-1
 314 1039 l 1,6,-1
 871 1039 l 1,7,-1
 652 0 l 1,4,-1
EndSplineSet
EndChar
StartChar: numbersign
Encoding: 35 35 4
Width: 509
VWidth: 1494
Flags: W
HStem: 0 21G<96 154.547 271 332> 223 46<84 169 238 345 413 505> 435 48<149 241 308 417 484 571>
Fore
468 435 m 1,0,1
 454 393 454 393 440 352.5 c 128,-1,2
 426 312 426 312 413 269 c 1,3,-1
 516 269 l 1,4,-1
 505 223 l 1,5,-1
 398 223 l 1,6,7
 380 166 380 166 360.5 111.5 c 128,-1,8
 341 57 341 57 323 0 c 1,9,-1
 271 0 l 1,10,-1
 345 223 l 1,11,-1
 221 223 l 1,12,-1
 148 0 l 1,13,-1
 96 0 l 1,14,-1
 169 223 l 1,15,-1
 73 223 l 1,16,-1
 84 269 l 1,17,-1
 185 269 l 1,18,19
 199 312 199 312 213 352.5 c 128,-1,20
 227 393 227 393 241 435 c 1,21,-1
 139 435 l 1,22,-1
 149 483 l 1,23,-1
 257 483 l 1,24,25
 275 535 275 535 294.5 590.5 c 128,-1,26
 314 646 314 646 332 698 c 1,27,-1
 381 698 l 1,28,-1
 308 483 l 1,29,-1
 433 483 l 1,30,31
 451 535 451 535 470 590.5 c 128,-1,32
 489 646 489 646 505 698 c 1,33,-1
 558 698 l 1,34,-1
 484 483 l 1,35,-1
 581 483 l 1,36,-1
 571 435 l 1,37,-1
 468 435 l 1,0,1
291 435 m 1,38,39
 280 393 280 393 265.5 352.5 c 128,-1,40
 251 312 251 312 238 269 c 1,41,-1
 362 269 l 1,42,43
 375 312 375 312 389.5 352.5 c 128,-1,44
 404 393 404 393 417 435 c 1,45,-1
 291 435 l 1,38,39
EndSplineSet
EndChar
StartChar: dollar
Encoding: 36 36 5
Width: 568
VWidth: 1494
Flags: W
HStem: -18 54<185.785 251 315 401.559> 665 58<460 510.603>
Fore
396 665 m 1,0,1
 333 659 333 659 291.5 624.5 c 128,-1,2
 250 590 250 590 239 543 c 0,3,4
 229 498 229 498 256.5 463 c 128,-1,5
 284 428 284 428 339 399 c 1,6,-1
 396 665 l 1,0,1
425 800 m 1,7,-1
 477 800 l 1,8,-1
 460 723 l 1,9,10
 508 719 508 719 553 703.5 c 128,-1,11
 598 688 598 688 625 664 c 1,12,-1
 584 613 l 1,13,14
 564 629 564 629 530 645 c 128,-1,15
 496 661 496 661 448 665 c 1,16,-1
 387 377 l 1,17,18
 432 360 432 360 468.5 343 c 128,-1,19
 505 326 505 326 530 303 c 128,-1,20
 555 280 555 280 565 249 c 128,-1,21
 575 218 575 218 567 176 c 0,22,23
 549 96 549 96 482.5 43 c 128,-1,24
 416 -10 416 -10 303 -18 c 1,25,-1
 288 -90 l 1,26,-1
 236 -90 l 1,27,-1
 251 -18 l 1,28,29
 212 -16 212 -16 182 -6.5 c 128,-1,30
 152 3 152 3 128.5 16.5 c 128,-1,31
 105 30 105 30 87.5 45.5 c 128,-1,32
 70 61 70 61 58 75 c 1,33,-1
 117 121 l 1,34,35
 135 97 135 97 167.5 70 c 128,-1,36
 200 43 200 43 263 36 c 1,37,-1
 324 330 l 1,38,39
 239 365 239 365 202.5 418 c 128,-1,40
 166 471 166 471 173 532 c 0,41,42
 178 567 178 567 196 599.5 c 128,-1,43
 214 632 214 632 244.5 658.5 c 128,-1,44
 275 685 275 685 316 702.5 c 128,-1,45
 357 720 357 720 408 723 c 1,46,-1
 425 800 l 1,7,-1
315 37 m 1,47,48
 387 43 387 43 439.5 77.5 c 128,-1,49
 492 112 492 112 502 161 c 0,50,51
 514 214 514 214 485 245.5 c 128,-1,52
 456 277 456 277 374 311 c 1,53,-1
 315 37 l 1,47,48
EndSplineSet
EndChar
StartChar: percent
Encoding: 37 37 6
Width: 874
VWidth: 1494
Flags: W
HStem: 3 43<597.566 691.96> 330 45<653.283 746.436> 341 45<275.563 369.718> 668 45<331.798 425.283>
VStem: 205.5 48<439.998 456.5 456.5 512.695> 449 48<537.771 576.5 576.5 612.689> 527 47.5<101.998 118.5 118.5 176.723> 770.5 48<199.332 237.5 237.5 273.987>
Fore
794 725 m 1,0,-1
 265 -16 l 1,1,-1
 214 -16 l 1,2,-1
 741 725 l 1,3,-1
 794 725 l 1,0,-1
713 375 m 0,4,5
 746 375 746 375 769 359.5 c 128,-1,6
 792 344 792 344 804 318.5 c 128,-1,7
 816 293 816 293 818.5 258.5 c 128,-1,8
 821 224 821 224 813 188 c 256,9,10
 806 152 806 152 789.5 118.5 c 128,-1,11
 773 85 773 85 749.5 59.5 c 128,-1,12
 726 34 726 34 696.5 18.5 c 128,-1,13
 667 3 667 3 634 3 c 0,14,15
 599 3 599 3 577 18.5 c 128,-1,16
 555 34 555 34 542 59.5 c 128,-1,17
 529 85 529 85 527 118.5 c 128,-1,18
 525 152 525 152 532 188 c 256,19,20
 540 224 540 224 556.5 258.5 c 128,-1,21
 573 293 573 293 596.5 318.5 c 128,-1,22
 620 344 620 344 649.5 359.5 c 128,-1,23
 679 375 679 375 713 375 c 0,4,5
643 46 m 0,24,25
 668 46 668 46 689 59.5 c 128,-1,26
 710 73 710 73 725 94 c 128,-1,27
 740 115 740 115 750.5 139.5 c 128,-1,28
 761 164 761 164 765 188 c 256,29,30
 770 212 770 212 770.5 237.5 c 128,-1,31
 771 263 771 263 764.5 283 c 128,-1,32
 758 303 758 303 743 316.5 c 128,-1,33
 728 330 728 330 703 330 c 0,34,35
 676 330 676 330 655.5 316.5 c 128,-1,36
 635 303 635 303 620 283 c 128,-1,37
 605 263 605 263 594.5 237.5 c 128,-1,38
 584 212 584 212 580 188 c 256,39,40
 575 164 575 164 574.5 139.5 c 128,-1,41
 574 115 574 115 580 94 c 128,-1,42
 586 73 586 73 601 59.5 c 128,-1,43
 616 46 616 46 643 46 c 0,24,25
492 528 m 0,44,45
 484 490 484 490 467 456.5 c 128,-1,46
 450 423 450 423 427 397 c 128,-1,47
 404 371 404 371 374 356 c 128,-1,48
 344 341 344 341 311 341 c 256,49,50
 278 341 278 341 255 356 c 128,-1,51
 232 371 232 371 220 397 c 128,-1,52
 208 423 208 423 205.5 456.5 c 128,-1,53
 203 490 203 490 211 528 c 0,54,55
 218 564 218 564 234.5 597.5 c 128,-1,56
 251 631 251 631 274 656.5 c 128,-1,57
 297 682 297 682 327 697.5 c 128,-1,58
 357 713 357 713 390 713 c 256,59,60
 423 713 423 713 446 697.5 c 128,-1,61
 469 682 469 682 482 656.5 c 128,-1,62
 495 631 495 631 497 597.5 c 128,-1,63
 499 564 499 564 492 528 c 0,44,45
260 528 m 0,64,65
 254 502 254 502 253.5 477.5 c 128,-1,66
 253 453 253 453 259 432 c 128,-1,67
 265 411 265 411 279.5 398.5 c 128,-1,68
 294 386 294 386 320 386 c 0,69,70
 347 386 347 386 367 398.5 c 128,-1,71
 387 411 387 411 403 432 c 128,-1,72
 419 453 419 453 428.5 477.5 c 128,-1,73
 438 502 438 502 444 528 c 0,74,75
 448 552 448 552 449 576.5 c 128,-1,76
 450 601 450 601 443 621 c 128,-1,77
 436 641 436 641 422 654.5 c 128,-1,78
 408 668 408 668 381 668 c 0,79,80
 356 668 356 668 335 654.5 c 128,-1,81
 314 641 314 641 299 621 c 128,-1,82
 284 601 284 601 274.5 576.5 c 128,-1,83
 265 552 265 552 260 528 c 0,64,65
EndSplineSet
EndChar
StartChar: ampersand
Encoding: 38 38 7
Width: 641
VWidth: 1494
Flags: W
HStem: -10 58<227.178 375.105> 668 60<364.418 449.002>
VStem: 602 57<341.923 416>
Fore
634 4 m 1,0,-1
 550 4 l 1,1,-1
 495 97 l 1,2,3
 444 45 444 45 391.5 17.5 c 128,-1,4
 339 -10 339 -10 277 -10 c 0,5,6
 229 -10 229 -10 189 4 c 128,-1,7
 149 18 149 18 123 45 c 128,-1,8
 97 72 97 72 87.5 110.5 c 128,-1,9
 78 149 78 149 88 199 c 0,10,11
 97 239 97 239 117.5 271 c 128,-1,12
 138 303 138 303 166 328.5 c 128,-1,13
 194 354 194 354 226.5 376 c 128,-1,14
 259 398 259 398 290 419 c 0,15,16
 291 420 291 420 296 423 c 1,17,18
 284 441 284 441 273.5 461 c 128,-1,19
 263 481 263 481 255.5 503 c 128,-1,20
 248 525 248 525 245 549 c 128,-1,21
 242 573 242 573 248 599 c 0,22,23
 254 632 254 632 272 656 c 128,-1,24
 290 680 290 680 313 696 c 128,-1,25
 336 712 336 712 363 720 c 128,-1,26
 390 728 390 728 416 728 c 128,-1,27
 442 728 442 728 465.5 720.5 c 128,-1,28
 489 713 489 713 506 697.5 c 128,-1,29
 523 682 523 682 530 658.5 c 128,-1,30
 537 635 537 635 531 602 c 0,31,32
 523 571 523 571 507.5 544 c 128,-1,33
 492 517 492 517 471 494.5 c 128,-1,34
 450 472 450 472 424.5 452.5 c 128,-1,35
 399 433 399 433 375 416 c 1,36,-1
 514 194 l 1,37,38
 543 241 543 241 566 300.5 c 128,-1,39
 589 360 589 360 602 416 c 1,40,-1
 659 413 l 1,41,42
 638 344 638 344 612.5 276.5 c 128,-1,43
 587 209 587 209 544 151 c 1,44,-1
 634 4 l 1,0,-1
311 598 m 0,45,46
 302 559 302 559 317 521 c 128,-1,47
 332 483 332 483 350 457 c 1,48,49
 366 472 366 472 385 487 c 128,-1,50
 404 502 404 502 421 518.5 c 128,-1,51
 438 535 438 535 451.5 554.5 c 128,-1,52
 465 574 465 574 469 598 c 0,53,54
 477 634 477 634 456.5 651 c 128,-1,55
 436 668 436 668 405 668 c 0,56,57
 375 668 375 668 346.5 652.5 c 128,-1,58
 318 637 318 637 311 598 c 0,45,46
284 48 m 0,59,60
 336 48 336 48 381 72.5 c 128,-1,61
 426 97 426 97 469 141 c 1,62,-1
 321 378 l 1,63,64
 303 366 303 366 277 347.5 c 128,-1,65
 251 329 251 329 225 306.5 c 128,-1,66
 199 284 199 284 178.5 260 c 128,-1,67
 158 236 158 236 154 212 c 0,68,69
 145 173 145 173 152.5 143.5 c 128,-1,70
 160 114 160 114 178.5 92 c 128,-1,71
 197 70 197 70 225 59 c 128,-1,72
 253 48 253 48 284 48 c 0,59,60
EndSplineSet
EndChar
StartChar: quotesingle
Encoding: 39 39 8
Width: 267
VWidth: 1494
Flags: W
HStem: 459 242<247 253 211 317 247 247>
Fore
293 587 m 1,0,-1
 253 459 l 1,1,-1
 211 459 l 1,2,-1
 223 587 l 1,3,-1
 247 701 l 1,4,-1
 317 701 l 1,5,-1
 293 587 l 1,0,-1
EndSplineSet
EndChar
StartChar: parenleft
Encoding: 40 40 9
Width: 298
VWidth: 1494
Flags: W
VStem: 111 51<-11.2877 242.694>
Fore
220 -120 m 1,0,-1
 175 -120 l 1,1,2
 123 -16 123 -16 111 93.5 c 128,-1,3
 99 203 99 203 120 306 c 256,4,5
 141 410 141 410 197.5 513.5 c 128,-1,6
 254 617 254 617 359 738 c 1,7,-1
 401 738 l 1,8,9
 311 632 311 632 254 520 c 128,-1,10
 197 408 197 408 176 303 c 0,11,12
 152 196 152 196 162 87.5 c 128,-1,13
 172 -21 172 -21 220 -120 c 1,0,-1
EndSplineSet
EndChar
StartChar: parenright
Encoding: 41 41 10
Width: 298
VWidth: 1494
Flags: W
Fore
27 -118 m 1,0,1
 117 -19 117 -19 173 89 c 128,-1,2
 229 197 229 197 251 305 c 0,3,4
 274 410 274 410 265 522 c 128,-1,5
 256 634 256 634 212 740 c 1,6,-1
 254 740 l 1,7,8
 306 619 306 619 318 515 c 128,-1,9
 330 411 330 411 308 308 c 0,10,11
 287 205 287 205 227 95 c 128,-1,12
 167 -15 167 -15 72 -118 c 1,13,-1
 27 -118 l 1,0,1
EndSplineSet
EndChar
StartChar: asterisk
Encoding: 42 42 11
Width: 527
VWidth: 1494
Flags: W
HStem: 379 314.5<272.5 482 482 482>
VStem: 199 356<529.292 542.25>
Fore
390 528 m 1,0,-1
 450 417 l 1,1,2
 453 407 453 407 446 395 c 128,-1,3
 439 383 439 383 426 380 c 0,4,5
 416 377 416 377 407.5 380 c 128,-1,6
 399 383 399 383 398 392 c 2,7,-1
 374 519 l 1,8,9
 366 507 366 507 353.5 487.5 c 128,-1,10
 341 468 341 468 328 448 c 128,-1,11
 315 428 315 428 304.5 410.5 c 128,-1,12
 294 393 294 393 290 387 c 1,13,14
 283 380 283 380 272.5 379 c 128,-1,15
 262 378 262 378 256 381 c 0,16,17
 248 386 248 386 246.5 395.5 c 128,-1,18
 245 405 245 405 251 413 c 0,19,20
 256 419 256 419 271 433.5 c 128,-1,21
 286 448 286 448 303 466 c 128,-1,22
 320 484 320 484 336.5 501.5 c 128,-1,23
 353 519 353 519 363 529 c 1,24,-1
 221 508 l 2,25,26
 211 505 211 505 204 512.5 c 128,-1,27
 197 520 197 520 199 528 c 1,28,29
 199 540 199 540 208.5 552 c 128,-1,30
 218 564 218 564 230 562 c 2,31,-1
 363 544 l 1,32,-1
 305 655 l 2,33,34
 299 664 299 664 306.5 676.5 c 128,-1,35
 314 689 314 689 329 692 c 1,36,37
 339 697 339 697 346.5 692.5 c 128,-1,38
 354 688 354 688 356 680 c 2,39,-1
 380 553 l 1,40,41
 387 564 387 564 400 583 c 128,-1,42
 413 602 413 602 426 623 c 128,-1,43
 439 644 439 644 449.5 661.5 c 128,-1,44
 460 679 460 679 465 685 c 1,45,46
 472 692 472 692 482 693.5 c 128,-1,47
 492 695 492 695 499 691 c 0,48,49
 505 688 505 688 507.5 677.5 c 128,-1,50
 510 667 510 667 502 659 c 1,51,52
 498 653 498 653 484.5 638 c 128,-1,53
 471 623 471 623 453.5 605 c 128,-1,54
 436 587 436 587 419 571 c 128,-1,55
 402 555 402 555 393 544 c 1,56,-1
 534 564 l 2,57,58
 544 564 544 564 551 559.5 c 128,-1,59
 558 555 558 555 555 543 c 2,60,61
 558 531 558 531 546.5 519.5 c 128,-1,62
 535 508 535 508 523 510 c 2,63,-1
 390 528 l 1,0,-1
EndSplineSet
EndChar
StartChar: plus
Encoding: 43 43 12
Width: 576
VWidth: 1494
Flags: W
HStem: 0 487<315 365 365 545> 215 59<127 306 372 552 115 564 127 127>
Fore
365 487 m 1,0,-1
 419 487 l 1,1,-1
 372 274 l 1,2,-1
 564 274 l 1,3,-1
 552 215 l 1,4,-1
 360 215 l 1,5,-1
 315 0 l 1,6,-1
 262 0 l 1,7,-1
 306 215 l 1,8,-1
 115 215 l 1,9,-1
 127 274 l 1,10,-1
 318 274 l 1,11,-1
 365 487 l 1,0,-1
EndSplineSet
EndChar
StartChar: comma
Encoding: 44 44 13
Width: 298
VWidth: 1494
Flags: W
HStem: -112 220<81 169 169 169>
VStem: 64 156<-78 39 -78 -78>
Fore
64 -78 m 1,0,1
 99 -66 99 -66 125.5 -42.5 c 128,-1,2
 152 -19 152 -19 160 1 c 1,3,4
 132 -9 132 -9 113 8 c 128,-1,5
 94 25 94 25 100 52 c 0,6,7
 103 69 103 69 122.5 88.5 c 128,-1,8
 142 108 142 108 169 108 c 0,9,10
 200 108 200 108 213.5 89 c 128,-1,11
 227 70 227 70 220 39 c 0,12,13
 214 9 214 9 198 -15 c 128,-1,14
 182 -39 182 -39 162 -58.5 c 128,-1,15
 142 -78 142 -78 120.5 -91.5 c 128,-1,16
 99 -105 99 -105 81 -112 c 1,17,18
 78.5 -107.5 l 2,19,20
 76 -103 76 -103 73 -96.5 c 128,-1,21
 70 -90 70 -90 67 -84.5 c 128,-1,22
 64 -79 64 -79 64 -78 c 1,0,1
EndSplineSet
EndChar
StartChar: hyphen
Encoding: 45 45 14
Width: 576
VWidth: 1494
Flags: W
HStem: 215 59<127 552 115 564 127 127>
Fore
127 274 m 1,0,-1
 564 274 l 1,1,-1
 552 215 l 1,2,-1
 115 215 l 1,3,-1
 127 274 l 1,0,-1
EndSplineSet
EndChar
StartChar: period
Encoding: 46 46 15
Width: 270
VWidth: 1494
Flags: W
HStem: 0 109<113.534 177.951>
VStem: 92 107.5<32.7085 94.386>
Fore
135 0 m 256,0,1
 108 0 108 0 98 17 c 128,-1,2
 88 34 88 34 92 54.5 c 128,-1,3
 96 75 96 75 113 92 c 128,-1,4
 130 109 130 109 157 109 c 256,5,6
 184 109 184 109 193.5 92 c 128,-1,7
 203 75 203 75 199.5 54.5 c 128,-1,8
 196 34 196 34 178.5 17 c 128,-1,9
 161 0 161 0 135 0 c 256,0,1
EndSplineSet
EndChar
StartChar: slash
Encoding: 47 47 16
Width: 260
VWidth: 1494
Flags: W
HStem: 723 20G<365.199 433>
VStem: -19 452<-61 743 -61 -61>
Fore
33 -61 m 1,0,-1
 -19 -61 l 1,1,-1
 375 743 l 1,2,-1
 433 743 l 1,3,-1
 33 -61 l 1,0,-1
EndSplineSet
EndChar
StartChar: zero
Encoding: 48 48 17
Width: 588
VWidth: 1494
Flags: W
HStem: -10 65<224 396.27> 670 64<379.716 514.592>
Fore
291 -10 m 128,-1,1
 193 -10 193 -10 144 57 c 0,2,3
 109 105 109 105 101 178 c 128,-1,4
 93 251 93 251 117 359 c 0,5,6
 144 486 144 486 188.5 560.5 c 128,-1,7
 233 635 233 635 281.5 673.5 c 128,-1,8
 330 712 330 712 376 723 c 128,-1,9
 422 734 422 734 450 734 c 0,10,11
 547 734 547 734 598 667 c 0,12,13
 632 619 632 619 638 542 c 128,-1,14
 644 465 644 465 623 359 c 0,15,16
 577 149 577 149 469 57 c 0,17,0
 389 -10 389 -10 291 -10 c 128,-1,1
178 359 m 0,18,19
 138 176 138 176 196 103 c 0,20,21
 232 55 232 55 305 55 c 0,22,23
 365 55 365 55 408 83 c 128,-1,24
 451 111 451 111 481 154 c 128,-1,25
 511 197 511 197 530.5 251 c 128,-1,26
 550 305 550 305 562 359 c 0,27,28
 601 547 601 547 546 620 c 0,29,30
 507 670 507 670 436 670 c 0,31,32
 362 670 362 670 306 620 c 0,33,34
 263 583 263 583 230 518 c 128,-1,35
 197 453 197 453 178 359 c 0,18,19
EndSplineSet
EndChar
StartChar: one
Encoding: 49 49 18
Width: 426
VWidth: 1494
Flags: W
HStem: -1 21G<233 300.257> 582 20G<333.368 357.721>
VStem: 188 284.5<549 690 549 549>
Fore
226 507 m 1,0,-1
 188 549 l 1,1,-1
 417 713 l 2,2,3
 429 720 429 720 439.5 718 c 128,-1,4
 450 716 450 716 462 709 c 0,5,6
 471 701 471 701 472.5 690 c 128,-1,7
 474 679 474 679 462 668 c 1,8,9
 456 665 456 665 451.5 662 c 128,-1,10
 447 659 447 659 444 656 c 0,11,12
 439 653 439 653 435 652 c 1,13,-1
 296 -1 l 1,14,-1
 233 -1 l 1,15,-1
 362 602 l 1,16,-1
 226 507 l 1,0,-1
EndSplineSet
EndChar
StartChar: two
Encoding: 50 50 19
Width: 568
VWidth: 1494
Flags: W
HStem: 0 64<68.1249 81.6654 81.6654 88 164 465>
Fore
490 0 m 1,0,-1
 78 0 l 2,1,2
 57 0 57 0 50 3.5 c 128,-1,3
 43 7 43 7 52 33 c 0,4,5
 58 48 58 48 61 54.5 c 128,-1,6
 64 61 64 61 68 63.5 c 128,-1,7
 72 66 72 66 75.5 65 c 128,-1,8
 79 64 79 64 88 64 c 1,9,10
 114 97 114 97 163 138 c 128,-1,11
 212 179 212 179 268 218 c 0,12,13
 312 250 312 250 357 283.5 c 128,-1,14
 402 317 402 317 439.5 353.5 c 128,-1,15
 477 390 477 390 503 428 c 128,-1,16
 529 466 529 466 537 507 c 0,17,18
 546 565 546 565 522.5 601 c 128,-1,19
 499 637 499 637 461 649 c 128,-1,20
 423 661 423 661 376.5 649 c 128,-1,21
 330 637 330 637 290 598 c 0,22,23
 263 567 263 567 251 531.5 c 128,-1,24
 239 496 239 496 239 471 c 1,25,-1
 178 456 l 1,26,27
 179 484 179 484 191 532.5 c 128,-1,28
 203 581 203 581 251 635 c 0,29,30
 275 662 275 662 306.5 680 c 128,-1,31
 338 698 338 698 371 707 c 128,-1,32
 404 716 404 716 437.5 715.5 c 128,-1,33
 471 715 471 715 501 706 c 0,34,35
 558 688 558 688 584.5 637 c 128,-1,36
 611 586 611 586 599 510 c 0,37,38
 592 457 592 457 560.5 410 c 128,-1,39
 529 363 529 363 485 320.5 c 128,-1,40
 441 278 441 278 390 240 c 128,-1,41
 339 202 339 202 293 169 c 0,42,43
 259 145 259 145 224.5 117.5 c 128,-1,44
 190 90 190 90 164 64 c 1,45,-1
 465 64 l 1,46,-1
 505 120 l 1,47,48
 505 121 505 121 512.5 116.5 c 128,-1,49
 520 112 520 112 529 106 c 0,50,51
 540 100 540 100 552 91 c 1,52,-1
 490 0 l 1,0,-1
EndSplineSet
EndChar
StartChar: three
Encoding: 51 51 20
Width: 594
VWidth: 1494
Flags: W
HStem: -9 52<263.431 393.928> 414.5 63.5<417 482.145> 644 63<281 525 605 628.47>
VStem: 76 62<138.778 194>
Fore
138 212 m 1,0,1
 141 161 141 161 158 127.5 c 128,-1,2
 175 94 175 94 201 74.5 c 128,-1,3
 227 55 227 55 258.5 47.5 c 128,-1,4
 290 40 290 40 323 43 c 0,5,6
 362 46 362 46 398.5 67 c 128,-1,7
 435 88 435 88 462.5 119.5 c 128,-1,8
 490 151 490 151 509 189 c 128,-1,9
 528 227 528 227 533 264.5 c 128,-1,10
 538 302 538 302 527.5 335.5 c 128,-1,11
 517 369 517 369 487 390 c 0,12,13
 451 416 451 416 408.5 414.5 c 128,-1,14
 366 413 366 413 341 401 c 1,15,16
 339 399 339 399 334 394.5 c 128,-1,17
 329 390 329 390 321 383 c 256,18,19
 314 375 314 375 303 366 c 0,20,21
 291 356 291 356 284 361 c 128,-1,22
 277 366 277 366 269 374 c 1,23,24
 262 384 262 384 259.5 391.5 c 128,-1,25
 257 399 257 399 268 408 c 2,26,-1
 525 644 l 1,27,-1
 281 644 l 1,28,-1
 230 553 l 1,29,30
 217 561 217 561 206 567 c 0,31,32
 197 571 197 571 189.5 574.5 c 128,-1,33
 182 578 182 578 182 580 c 1,34,-1
 248 707 l 1,35,-1
 631 707 l 2,36,37
 644 707 644 707 648 702 c 128,-1,38
 652 697 652 697 643 676 c 0,39,40
 632 652 632 652 629 648 c 128,-1,41
 626 644 626 644 613 644 c 2,42,-1
 605 644 l 1,43,-1
 417 478 l 1,44,45
 478 478 478 478 528 447 c 0,46,47
 541 438 541 438 554.5 424.5 c 128,-1,48
 568 411 568 411 578.5 391 c 128,-1,49
 589 371 589 371 593.5 343 c 128,-1,50
 598 315 598 315 593 280 c 0,51,52
 586 214 586 214 557 161.5 c 128,-1,53
 528 109 528 109 488 71 c 128,-1,54
 448 33 448 33 402.5 12 c 128,-1,55
 357 -9 357 -9 315 -9 c 0,56,57
 272 -9 272 -9 231.5 -1.5 c 128,-1,58
 191 6 191 6 159 27.5 c 128,-1,59
 127 49 127 49 104.5 89.5 c 128,-1,60
 82 130 82 130 76 194 c 1,61,-1
 138 212 l 1,0,1
EndSplineSet
EndChar
StartChar: four
Encoding: 52 52 21
Width: 541
VWidth: 1494
Flags: W
HStem: 0 21G<365 432> 160 60<148 398 474 558>
Fore
411 220 m 1,0,-1
 486 573 l 1,1,-1
 148 220 l 1,2,-1
 411 220 l 1,0,-1
398 160 m 1,3,-1
 73 160 l 2,4,5
 69 160 69 160 64.5 164.5 c 128,-1,6
 60 169 60 169 57.5 177 c 128,-1,7
 55 185 55 185 56 194 c 128,-1,8
 57 203 57 203 63 211 c 2,9,-1
 546 713 l 1,10,11
 553 723 553 723 560.5 719.5 c 128,-1,12
 568 716 568 716 574 707 c 128,-1,13
 580 698 580 698 581.5 688.5 c 128,-1,14
 583 679 583 679 580 676 c 2,15,-1
 567 658 l 1,16,-1
 474 220 l 1,17,-1
 571 220 l 1,18,-1
 558 160 l 1,19,-1
 460 160 l 1,20,-1
 428 0 l 1,21,-1
 365 0 l 1,22,-1
 398 160 l 1,3,-1
EndSplineSet
EndChar
StartChar: five
Encoding: 53 53 22
Width: 594
VWidth: 1494
Flags: W
HStem: -12.5 61<259.784 332.75> 647 63<318 653>
Fore
138 338 m 1,0,1
 144 353 144 353 158.5 391 c 128,-1,2
 173 429 173 429 191 476 c 128,-1,3
 209 523 209 523 227 571 c 128,-1,4
 245 619 245 619 257 655 c 1,5,6
 253 658 253 658 250.5 665.5 c 128,-1,7
 248 673 248 673 256 689 c 0,8,9
 265 706 265 706 271 708 c 128,-1,10
 277 710 277 710 291 710 c 2,11,-1
 665 710 l 1,12,-1
 653 647 l 1,13,-1
 318 647 l 1,14,15
 308 616 308 616 285.5 560 c 128,-1,16
 263 504 263 504 242 448 c 1,17,18
 368 529 368 529 483 498 c 0,19,20
 538 483 538 483 566.5 448.5 c 128,-1,21
 595 414 595 414 603 369 c 128,-1,22
 611 324 611 324 602 274 c 128,-1,23
 593 224 593 224 574 179 c 0,24,25
 561 148 561 148 538.5 119 c 128,-1,26
 516 90 516 90 487.5 65 c 128,-1,27
 459 40 459 40 425.5 22 c 128,-1,28
 392 4 392 4 356 -4 c 0,29,30
 332 -10 332 -10 300 -12.5 c 128,-1,31
 268 -15 268 -15 233.5 -7 c 128,-1,32
 199 1 199 1 162.5 23 c 128,-1,33
 126 45 126 45 93 87 c 1,34,-1
 144 133 l 1,35,36
 169 105 169 105 192 86 c 128,-1,37
 215 67 215 67 239 58 c 128,-1,38
 263 49 263 49 290 48.5 c 128,-1,39
 317 48 317 48 348 55 c 0,40,41
 404 67 404 67 450 107.5 c 128,-1,42
 496 148 496 148 517 193 c 0,43,44
 525 211 525 211 535.5 245.5 c 128,-1,45
 546 280 546 280 544.5 318 c 128,-1,46
 543 356 543 356 522.5 389.5 c 128,-1,47
 502 423 502 423 450 438 c 0,48,49
 375 459 375 459 305.5 425.5 c 128,-1,50
 236 392 236 392 188 317 c 1,51,52
 173 323 173 323 163 327 c 0,53,54
 154 330 154 330 146 333 c 128,-1,55
 138 336 138 336 138 338 c 1,0,1
EndSplineSet
EndChar
StartChar: six
Encoding: 54 54 23
Width: 605
VWidth: 1494
Flags: W
HStem: 532 21G<596 652>
VStem: 111 70<153.636 219.432> 546 59<180.399 358.871> 596 56<547 606.791>
Fore
471 102 m 0,0,1
 538 169 538 169 546 271 c 0,2,3
 550 324 550 324 527.5 360 c 128,-1,4
 505 396 505 396 466.5 409.5 c 128,-1,5
 428 423 428 423 379 414 c 128,-1,6
 330 405 330 405 284 372 c 0,7,8
 266 359 266 359 247.5 338.5 c 128,-1,9
 229 318 229 318 213 292 c 128,-1,10
 197 266 197 266 188 234.5 c 128,-1,11
 179 203 179 203 181 166 c 0,12,13
 182 121 182 121 213 89 c 128,-1,14
 244 57 244 57 287 45.5 c 128,-1,15
 330 34 330 34 379.5 47 c 128,-1,16
 429 60 429 60 471 102 c 0,0,1
596 532 m 1,17,18
 596 584 596 584 567 617 c 128,-1,19
 538 650 538 650 494.5 659 c 128,-1,20
 451 668 451 668 401 652.5 c 128,-1,21
 351 637 351 637 308 592 c 0,22,23
 287 570 287 570 266 537.5 c 128,-1,24
 245 505 245 505 227 468.5 c 128,-1,25
 209 432 209 432 196.5 394.5 c 128,-1,26
 184 357 184 357 179 326 c 1,27,28
 215 384 215 384 262 419 c 128,-1,29
 309 454 309 454 358 468.5 c 128,-1,30
 407 483 407 483 452.5 477.5 c 128,-1,31
 498 472 498 472 533 447.5 c 128,-1,32
 568 423 568 423 588 381 c 128,-1,33
 608 339 608 339 605 281 c 0,34,35
 602 218 602 218 577 162 c 128,-1,36
 552 106 552 106 510 65 c 128,-1,37
 468 24 468 24 412 2.5 c 128,-1,38
 356 -19 356 -19 291 -15 c 0,39,40
 220 -10 220 -10 178 28.5 c 128,-1,41
 136 67 136 67 120.5 125.5 c 128,-1,42
 105 184 105 184 111 255.5 c 128,-1,43
 117 327 117 327 140 397.5 c 128,-1,44
 163 468 163 468 199 530.5 c 128,-1,45
 235 593 235 593 280 635 c 0,46,47
 333 686 333 686 396.5 705.5 c 128,-1,48
 460 725 460 725 516.5 714.5 c 128,-1,49
 573 704 573 704 611.5 662 c 128,-1,50
 650 620 650 620 652 547 c 1,51,-1
 596 532 l 1,17,18
EndSplineSet
EndChar
StartChar: seven
Encoding: 55 55 24
Width: 542
VWidth: 1494
Flags: W
HStem: -1 21G<193 277> 646 63<235 575 635.094 651.875>
VStem: 171 64<573 609.5 609.5 610.155 611.718 646> 193 61<16.9942 161.945>
Fore
166 553 m 1,0,1
 167 584 167 584 169 611 c 0,2,3
 170 634 170 634 171 653.5 c 128,-1,4
 172 673 172 673 173 676 c 2,5,6
 176 689 176 689 186.5 699 c 128,-1,7
 197 709 197 709 211 709 c 2,8,-1
 659 709 l 2,9,10
 671 709 671 709 673.5 697.5 c 128,-1,11
 676 686 676 686 656 652 c 0,12,13
 650 643 650 643 644 643.5 c 128,-1,14
 638 644 638 644 635 643 c 1,15,16
 629 625 629 625 627.5 614.5 c 128,-1,17
 626 604 626 604 622.5 594 c 128,-1,18
 619 584 619 584 610 571.5 c 128,-1,19
 601 559 601 559 580 538 c 0,20,21
 472 429 472 429 386 288.5 c 128,-1,22
 300 148 300 148 254 -1 c 1,23,-1
 193 -1 l 1,24,25
 218 75 218 75 254 153.5 c 128,-1,26
 290 232 290 232 335 307.5 c 128,-1,27
 380 383 380 383 430.5 451.5 c 128,-1,28
 481 520 481 520 537 575 c 0,29,30
 552 590 552 590 558.5 597 c 128,-1,31
 565 604 565 604 567.5 610 c 128,-1,32
 570 616 570 616 570.5 623.5 c 128,-1,33
 571 631 571 631 575 646 c 1,34,-1
 235 646 l 1,35,-1
 230 573 l 1,36,-1
 166 553 l 1,0,1
EndSplineSet
EndChar
StartChar: eight
Encoding: 56 56 25
Width: 606
VWidth: 1494
Flags: W
HStem: -18 54<220.7 401.029> 389 62<366.466 449.545> 665 64<412.09 489.604>
Fore
561 377 m 0,0,1
 586 344 586 344 595.5 302 c 128,-1,2
 605 260 605 260 595 215 c 0,3,4
 584 164 584 164 555 121.5 c 128,-1,5
 526 79 526 79 485.5 47.5 c 128,-1,6
 445 16 445 16 396 -1 c 128,-1,7
 347 -18 347 -18 296 -18 c 0,8,9
 244 -18 244 -18 202 0 c 128,-1,10
 160 18 160 18 133 49.5 c 128,-1,11
 106 81 106 81 95.5 123.5 c 128,-1,12
 85 166 85 166 96 215 c 0,13,14
 111 287 111 287 161.5 341 c 128,-1,15
 212 395 212 395 280 420 c 1,16,17
 250 444 250 444 238 480.5 c 128,-1,18
 226 517 226 517 235 558 c 0,19,20
 242 593 242 593 261.5 624.5 c 128,-1,21
 281 656 281 656 310 679.5 c 128,-1,22
 339 703 339 703 376.5 716 c 128,-1,23
 414 729 414 729 454 729 c 0,24,25
 493 729 493 729 524.5 716.5 c 128,-1,26
 556 704 556 704 575.5 681 c 128,-1,27
 595 658 595 658 602.5 626.5 c 128,-1,28
 610 595 610 595 602 558 c 0,29,30
 595 526 595 526 578 496 c 128,-1,31
 561 466 561 466 532 445 c 0,32,33
 525 439 525 439 516 432 c 128,-1,34
 507 425 507 425 499 422 c 1,35,36
 517 413 517 413 533 402.5 c 128,-1,37
 549 392 549 392 561 377 c 0,0,1
339 625 m 0,38,39
 306 596 306 596 298 558 c 128,-1,40
 290 520 290 520 311 490 c 0,41,42
 329 471 329 471 348.5 461 c 128,-1,43
 368 451 368 451 396 451 c 0,44,45
 448 451 448 451 488.5 482.5 c 128,-1,46
 529 514 529 514 540 558 c 0,47,48
 544 581 544 581 538 601.5 c 128,-1,49
 532 622 532 622 518 636 c 128,-1,50
 504 650 504 650 483.5 657.5 c 128,-1,51
 463 665 463 665 441 665 c 0,52,53
 413 665 413 665 389 654.5 c 128,-1,54
 365 644 365 644 339 625 c 0,38,39
308 36 m 0,55,56
 389 36 389 36 449.5 84 c 128,-1,57
 510 132 510 132 528 215 c 0,58,59
 535 251 535 251 527.5 283 c 128,-1,60
 520 315 520 315 500.5 338.5 c 128,-1,61
 481 362 481 362 450.5 375.5 c 128,-1,62
 420 389 420 389 383 389 c 0,63,64
 344 389 344 389 308 375.5 c 128,-1,65
 272 362 272 362 242 338.5 c 128,-1,66
 212 315 212 315 190.5 284 c 128,-1,67
 169 253 169 253 161 215 c 0,68,69
 145 133 145 133 188.5 84.5 c 128,-1,70
 232 36 232 36 308 36 c 0,55,56
EndSplineSet
EndChar
StartChar: nine
Encoding: 57 57 26
Width: 605
VWidth: 1494
Flags: W
HStem: 670 62<347.346 518.36>
VStem: 144.5 66.5<364.58 519.719> 577.5 66.5<428.491 577.163>
Fore
146 152 m 1,0,1
 148 112 148 112 184 82 c 128,-1,2
 220 52 220 52 269 45 c 0,3,4
 332 37 332 37 381.5 65.5 c 128,-1,5
 431 94 431 94 466 138 c 0,6,7
 493 170 493 170 513.5 220.5 c 128,-1,8
 534 271 534 271 550 333 c 1,9,10
 523 299 523 299 485.5 276 c 128,-1,11
 448 253 448 253 407 243 c 128,-1,12
 366 233 366 233 325 235.5 c 128,-1,13
 284 238 284 238 248 254 c 0,14,15
 196 278 196 278 170.5 323 c 128,-1,16
 145 368 145 368 144.5 421.5 c 128,-1,17
 144 475 144 475 164.5 531 c 128,-1,18
 185 587 185 587 226.5 633 c 128,-1,19
 268 679 268 679 326 707 c 128,-1,20
 384 735 384 735 457 732 c 0,21,22
 525 729 525 729 569.5 700 c 128,-1,23
 614 671 614 671 634 613 c 0,24,25
 650 562 650 562 644 489 c 128,-1,26
 638 416 638 416 618 342 c 128,-1,27
 598 268 598 268 569 203 c 128,-1,28
 540 138 540 138 511 103 c 0,29,30
 459 40 459 40 395.5 11 c 128,-1,31
 332 -18 332 -18 248 -10 c 0,32,33
 181 -3 181 -3 135.5 31.5 c 128,-1,34
 90 66 90 66 85 123 c 1,35,-1
 146 152 l 1,0,1
477 329 m 0,36,37
 525 362 525 362 551.5 418 c 128,-1,38
 578 474 578 474 577.5 529 c 128,-1,39
 577 584 577 584 544 625.5 c 128,-1,40
 511 667 511 667 441 670 c 0,41,42
 389 671 389 671 346 650 c 128,-1,43
 303 629 303 629 273.5 595.5 c 128,-1,44
 244 562 244 562 227.5 521 c 128,-1,45
 211 480 211 480 211 439 c 128,-1,46
 211 398 211 398 229 363.5 c 128,-1,47
 247 329 247 329 284 309 c 0,48,49
 326 288 326 288 380.5 293.5 c 128,-1,50
 435 299 435 299 477 329 c 0,36,37
EndSplineSet
EndChar
StartChar: colon
Encoding: 58 58 27
Width: 297
VWidth: 1494
Flags: W
HStem: -1 109<129.534 192.951> 390 109<212.049 276.466>
VStem: 107.5 190.5<53 445 31.6026 92.4484>
Fore
233 390 m 256,0,1
 206 390 206 390 196.5 407.5 c 128,-1,2
 187 425 187 425 190.5 445 c 128,-1,3
 194 465 194 465 211.5 482 c 128,-1,4
 229 499 229 499 256 499 c 256,5,6
 283 499 283 499 292.5 482 c 128,-1,7
 302 465 302 465 298 445 c 128,-1,8
 294 425 294 425 277 407.5 c 128,-1,9
 260 390 260 390 233 390 c 256,0,1
149 -1 m 256,10,11
 123 -1 123 -1 113 16 c 128,-1,12
 103 33 103 33 107.5 53 c 128,-1,13
 112 73 112 73 129 90.5 c 128,-1,14
 146 108 146 108 173 108 c 256,15,16
 200 108 200 108 210 90.5 c 128,-1,17
 220 73 220 73 215.5 53 c 128,-1,18
 211 33 211 33 193.5 16 c 128,-1,19
 176 -1 176 -1 149 -1 c 256,10,11
EndSplineSet
EndChar
StartChar: semicolon
Encoding: 59 59 28
Width: 298
VWidth: 1494
Flags: W
HStem: 390 109<212.049 276.466>
VStem: 67 231<-78 445 -78 -78> 190.5 107.5<423.603 484.448>
Fore
233 390 m 256,0,1
 206 390 206 390 196.5 407.5 c 128,-1,2
 187 425 187 425 190.5 445 c 128,-1,3
 194 465 194 465 211.5 482 c 128,-1,4
 229 499 229 499 256 499 c 256,5,6
 283 499 283 499 292.5 482 c 128,-1,7
 302 465 302 465 298 445 c 128,-1,8
 294 425 294 425 277 407.5 c 128,-1,9
 260 390 260 390 233 390 c 256,0,1
67 -78 m 1,10,11
 102 -66 102 -66 128.5 -42.5 c 128,-1,12
 155 -19 155 -19 163 1 c 1,13,14
 135 -9 135 -9 116 8 c 128,-1,15
 97 25 97 25 103 52 c 0,16,17
 106 69 106 69 125.5 88.5 c 128,-1,18
 145 108 145 108 172 108 c 0,19,20
 203 108 203 108 216.5 89 c 128,-1,21
 230 70 230 70 223 39 c 0,22,23
 217 9 217 9 201 -15 c 128,-1,24
 185 -39 185 -39 165 -58.5 c 128,-1,25
 145 -78 145 -78 123.5 -91.5 c 128,-1,26
 102 -105 102 -105 84 -112 c 1,27,28
 81.5 -107.5 l 2,29,30
 79 -103 79 -103 76 -96.5 c 128,-1,31
 73 -90 73 -90 70 -84.5 c 128,-1,32
 67 -79 67 -79 67 -78 c 1,10,11
EndSplineSet
EndChar
StartChar: less
Encoding: 60 60 29
Width: 615
VWidth: 1494
Flags: W
HStem: -12 21G<510.05 550.062>
Fore
643 445 m 1,0,-1
 178 256 l 1,1,-1
 559 52 l 1,2,-1
 546 -12 l 1,3,-1
 111 230 l 1,4,-1
 123 283 l 1,5,-1
 656 510 l 1,6,-1
 643 445 l 1,0,-1
EndSplineSet
EndChar
StartChar: equal
Encoding: 61 61 30
Width: 636
VWidth: 1494
Flags: W
HStem: 126 59<112 584> 329 57<154 628>
Fore
628 329 m 1,0,-1
 142 329 l 1,1,-1
 154 386 l 1,2,-1
 640 386 l 1,3,-1
 628 329 l 1,0,-1
584 126 m 1,4,-1
 99 126 l 1,5,-1
 112 185 l 1,6,-1
 598 185 l 1,7,-1
 584 126 l 1,4,-1
EndSplineSet
EndChar
StartChar: greater
Encoding: 62 62 31
Width: 600
VWidth: 1494
Flags: W
HStem: -12 21G<62.375 102.38>
Fore
169 510 m 1,0,-1
 607 283 l 1,1,-1
 595 230 l 1,2,-1
 58 -12 l 1,3,-1
 72 52 l 1,4,-1
 540 256 l 1,5,-1
 155 445 l 1,6,-1
 169 510 l 1,0,-1
EndSplineSet
EndChar
StartChar: question
Encoding: 63 63 32
Width: 518
VWidth: 1494
Flags: W
HStem: 1 111<241.111 302.89>
VStem: 217 112<33.0259 99.3744>
Fore
459 399 m 0,0,1
 419 360 419 360 385 323.5 c 128,-1,2
 351 287 351 287 342 239 c 2,3,-1
 323 154 l 1,4,-1
 263 154 l 1,5,-1
 283 239 l 2,6,7
 296 303 296 303 338 350.5 c 128,-1,8
 380 398 380 398 425 438 c 0,9,10
 535 540 535 540 501 632 c 0,11,12
 492 658 492 658 460 671.5 c 128,-1,13
 428 685 428 685 384 680 c 0,14,15
 335 674 335 674 299 643.5 c 128,-1,16
 263 613 263 613 245 578 c 1,17,-1
 197 608 l 1,18,19
 227 659 227 659 273.5 692.5 c 128,-1,20
 320 726 320 726 381 734 c 0,21,22
 442 743 442 743 491.5 727.5 c 128,-1,23
 541 712 541 712 559 670 c 0,24,25
 577 629 577 629 574 592 c 128,-1,26
 571 555 571 555 555.5 520.5 c 128,-1,27
 540 486 540 486 513.5 455.5 c 128,-1,28
 487 425 487 425 459 399 c 0,0,1
329 58 m 0,29,30
 323 33 323 33 303.5 17 c 128,-1,31
 284 1 284 1 263 1 c 0,32,33
 238 1 238 1 224.5 17 c 128,-1,34
 211 33 211 33 217 58 c 0,35,36
 221 81 221 81 240.5 96.5 c 128,-1,37
 260 112 260 112 286 112 c 0,38,39
 306 112 306 112 319.5 96.5 c 128,-1,40
 333 81 333 81 329 58 c 0,29,30
EndSplineSet
EndChar
StartChar: at
Encoding: 64 64 33
Width: 820
VWidth: 1494
Flags: W
HStem: -24.5 46<309.972 518.924> 537 41<519.299 590.216> 682 46<447.489 684.13>
VStem: 803 46<435.958 574.784>
Fore
849 495 m 0,0,1
 849 451 849 451 841 404 c 128,-1,2
 833 357 833 357 815 312.5 c 128,-1,3
 797 268 797 268 769 229.5 c 128,-1,4
 741 191 741 191 701 166 c 0,5,6
 676 149 676 149 643.5 142 c 128,-1,7
 611 135 611 135 584.5 140 c 128,-1,8
 558 145 558 145 541.5 164.5 c 128,-1,9
 525 184 525 184 531 221 c 1,10,11
 520 200 520 200 501.5 184.5 c 128,-1,12
 483 169 483 169 460.5 158.5 c 128,-1,13
 438 148 438 148 413.5 145 c 128,-1,14
 389 142 389 142 366 148 c 0,15,16
 333 157 333 157 316.5 183 c 128,-1,17
 300 209 300 209 296.5 244.5 c 128,-1,18
 293 280 293 280 301 319.5 c 128,-1,19
 309 359 309 359 326 395 c 0,20,21
 341 428 341 428 365 461.5 c 128,-1,22
 389 495 389 495 419.5 522 c 128,-1,23
 450 549 450 549 486.5 564.5 c 128,-1,24
 523 580 523 580 564 578 c 0,25,26
 592 577 592 577 610 561.5 c 128,-1,27
 628 546 628 546 629 517 c 1,28,-1
 653 577 l 1,29,-1
 701 577 l 1,30,31
 673 507 673 507 642 427.5 c 128,-1,32
 611 348 611 348 584 277 c 0,33,34
 568 232 568 232 577 207 c 128,-1,35
 586 182 586 182 610 177 c 128,-1,36
 634 172 634 172 667 188.5 c 128,-1,37
 700 205 700 205 730.5 241.5 c 128,-1,38
 761 278 761 278 782 337 c 128,-1,39
 803 396 803 396 803 477 c 0,40,41
 804 574 804 574 738.5 628 c 128,-1,42
 673 682 673 682 565 682 c 0,43,44
 495 682 495 682 430.5 654 c 128,-1,45
 366 626 366 626 315.5 580.5 c 128,-1,46
 265 535 265 535 229 474.5 c 128,-1,47
 193 414 193 414 179 347 c 0,48,49
 160 257 160 257 184.5 184 c 128,-1,50
 209 111 209 111 266.5 68 c 128,-1,51
 324 25 324 25 407 21.5 c 128,-1,52
 490 18 490 18 587 66 c 1,53,-1
 577 21 l 1,54,55
 478 -28 478 -28 387 -24.5 c 128,-1,56
 296 -21 296 -21 231.5 26 c 128,-1,57
 167 73 167 73 138 157 c 128,-1,58
 109 241 109 241 132 351 c 0,59,60
 148 428 148 428 190.5 496.5 c 128,-1,61
 233 565 233 565 293 616.5 c 128,-1,62
 353 668 353 668 425.5 698 c 128,-1,63
 498 728 498 728 575 728 c 0,64,65
 638 728 638 728 688 711 c 128,-1,66
 738 694 738 694 774 662.5 c 128,-1,67
 810 631 810 631 829.5 588.5 c 128,-1,68
 849 546 849 546 849 495 c 0,0,1
567 336 m 0,69,70
 604 425 604 425 600 481 c 128,-1,71
 596 537 596 537 544 537 c 0,72,73
 507 537 507 537 472.5 513.5 c 128,-1,74
 438 490 438 490 410.5 454.5 c 128,-1,75
 383 419 383 419 365 376 c 128,-1,76
 347 333 347 333 341.5 295 c 128,-1,77
 336 257 336 257 345 228 c 128,-1,78
 354 199 354 199 383 190 c 256,79,80
 411 181 411 181 438 190 c 128,-1,81
 465 199 465 199 489 220 c 128,-1,82
 513 241 513 241 532.5 271.5 c 128,-1,83
 552 302 552 302 567 336 c 0,69,70
EndSplineSet
EndChar
StartChar: A
Encoding: 65 65 34
Width: 612
VWidth: 1494
Flags: W
HStem: -12 21G<9 74.6346 538.019 602> 196 49<214 501>
Fore
602 0 m 1,0,-1
 541 -12 l 1,1,-1
 510 196 l 1,2,-1
 184 196 l 1,3,-1
 63 -12 l 1,4,-1
 9 0 l 1,5,6
 123 193 123 193 214 345 c 0,7,8
 253 411 253 411 288.5 472.5 c 128,-1,9
 324 534 324 534 354 583 c 0,10,11
 389 640 389 640 419 692 c 0,12,13
 432 713 432 713 446 721 c 128,-1,14
 460 729 460 729 465 731 c 0,15,16
 478 734 478 734 488.5 722 c 128,-1,17
 499 710 499 710 501 704 c 0,18,19
 502 700 502 700 497 694 c 128,-1,20
 492 688 492 688 489 685 c 1,21,-1
 602 0 l 1,0,-1
501 245 m 1,22,-1
 436 622 l 1,23,-1
 214 245 l 1,24,-1
 501 245 l 1,22,-1
EndSplineSet
EndChar
StartChar: B
Encoding: 66 66 35
Width: 584
VWidth: 1494
Flags: W
HStem: 0 58<155 419.325> 341 55<229 432.512> 650 59<283 513.906>
Fore
229 396 m 1,0,-1
 353 396 l 2,1,2
 416 396 416 396 467.5 430.5 c 128,-1,3
 519 465 519 465 532 531 c 0,4,5
 546 593 546 593 521 621.5 c 128,-1,6
 496 650 496 650 417 650 c 2,7,-1
 283 650 l 1,8,-1
 229 396 l 1,0,-1
317 58 m 2,9,10
 472 58 472 58 504 197 c 0,11,12
 510 226 510 226 505.5 251.5 c 128,-1,13
 501 277 501 277 483 297 c 128,-1,14
 465 317 465 317 433.5 329 c 128,-1,15
 402 341 402 341 354 341 c 2,16,-1
 215 341 l 1,17,-1
 155 58 l 1,18,-1
 317 58 l 2,9,10
221 638 m 2,19,20
 224 652 224 652 221 660 c 128,-1,21
 218 668 218 668 214.5 673.5 c 128,-1,22
 211 679 211 679 208 683.5 c 128,-1,23
 205 688 205 688 208 695 c 1,24,25
 212 703 212 703 224 714.5 c 128,-1,26
 236 726 236 726 251 726 c 0,27,28
 256 726 256 726 262.5 721 c 128,-1,29
 269 716 269 716 272 709 c 1,30,-1
 441 709 l 2,31,32
 486 709 486 709 518 694.5 c 128,-1,33
 550 680 550 680 568.5 656 c 128,-1,34
 587 632 587 632 593 601 c 128,-1,35
 599 570 599 570 592 537 c 0,36,37
 584 499 584 499 567 470.5 c 128,-1,38
 550 442 550 442 527.5 422 c 128,-1,39
 505 402 505 402 481 390 c 128,-1,40
 457 378 457 378 436 375 c 1,41,42
 463 372 463 372 489.5 358.5 c 128,-1,43
 516 345 516 345 534.5 322.5 c 128,-1,44
 553 300 553 300 561.5 269 c 128,-1,45
 570 238 570 238 561 199 c 0,46,47
 540 100 540 100 476.5 50 c 128,-1,48
 413 0 413 0 332 0 c 2,49,-1
 87 0 l 1,50,-1
 221 638 l 2,19,20
EndSplineSet
EndChar
StartChar: C
Encoding: 67 67 36
Width: 597
VWidth: 1494
Flags: W
Fore
567 58 m 1,0,1
 531 30 531 30 489.5 12 c 128,-1,2
 448 -6 448 -6 407 -12.5 c 128,-1,3
 366 -19 366 -19 326.5 -15.5 c 128,-1,4
 287 -12 287 -12 254 3 c 0,5,6
 229 13 229 13 199 35.5 c 128,-1,7
 169 58 169 58 146.5 98.5 c 128,-1,8
 124 139 124 139 116.5 200.5 c 128,-1,9
 109 262 109 262 127 350 c 0,10,11
 146 439 146 439 180 500.5 c 128,-1,12
 214 562 214 562 253.5 602.5 c 128,-1,13
 293 643 293 643 332.5 665.5 c 128,-1,14
 372 688 372 688 402 698 c 0,15,16
 481 725 481 725 555 711 c 128,-1,17
 629 697 629 697 674 647 c 1,18,-1
 634 589 l 1,19,20
 619 611 619 611 594.5 626 c 128,-1,21
 570 641 570 641 540 648 c 128,-1,22
 510 655 510 655 476 653.5 c 128,-1,23
 442 652 442 652 410 640 c 0,24,25
 329 611 329 611 271.5 534 c 128,-1,26
 214 457 214 457 190 350 c 0,27,28
 167 242 167 242 193.5 166 c 128,-1,29
 220 90 220 90 287 61 c 0,30,31
 312 51 312 51 343.5 48 c 128,-1,32
 375 45 375 45 408.5 49.5 c 128,-1,33
 442 54 442 54 476 68 c 128,-1,34
 510 82 510 82 537 108 c 1,35,-1
 567 58 l 1,0,1
EndSplineSet
EndChar
StartChar: D
Encoding: 68 68 37
Width: 674
VWidth: 1494
Flags: W
HStem: 0 58<149 399.835> 650 59<275 487.732>
Fore
214 638 m 2,0,1
 217 652 217 652 214 660 c 128,-1,2
 211 668 211 668 207 673.5 c 128,-1,3
 203 679 203 679 200 683.5 c 128,-1,4
 197 688 197 688 200 695 c 1,5,6
 205 703 205 703 217 714.5 c 128,-1,7
 229 726 229 726 244 726 c 0,8,9
 248 726 248 726 255 721 c 128,-1,10
 262 716 262 716 265 709 c 1,11,-1
 402 709 l 2,12,13
 480 709 480 709 542.5 686.5 c 128,-1,14
 605 664 605 664 645 619.5 c 128,-1,15
 685 575 685 575 698.5 508.5 c 128,-1,16
 712 442 712 442 694 356 c 0,17,18
 676 268 676 268 634 201.5 c 128,-1,19
 592 135 592 135 533.5 90 c 128,-1,20
 475 45 475 45 402.5 22.5 c 128,-1,21
 330 0 330 0 253 0 c 2,22,-1
 79 0 l 1,23,-1
 214 638 l 2,0,1
278 58 m 2,24,25
 345 58 345 58 403.5 79 c 128,-1,26
 462 100 462 100 507.5 139.5 c 128,-1,27
 553 179 553 179 585 233.5 c 128,-1,28
 617 288 617 288 631 356 c 0,29,30
 647 433 647 433 633.5 489.5 c 128,-1,31
 620 546 620 546 583 581.5 c 128,-1,32
 546 617 546 617 489.5 633.5 c 128,-1,33
 433 650 433 650 365 650 c 2,34,-1
 275 650 l 1,35,-1
 149 58 l 1,36,-1
 278 58 l 2,24,25
EndSplineSet
EndChar
StartChar: E
Encoding: 69 69 38
Width: 511
VWidth: 1494
Flags: W
HStem: 0 58<158 454> 338 58<230 495> 650 59<284 593>
Fore
221 638 m 2,0,1
 224 652 224 652 221 660 c 128,-1,2
 218 668 218 668 214.5 673.5 c 128,-1,3
 211 679 211 679 208 683.5 c 128,-1,4
 205 688 205 688 208 695 c 1,5,6
 212 703 212 703 224 714.5 c 128,-1,7
 236 726 236 726 251 726 c 0,8,9
 256 726 256 726 262.5 721 c 128,-1,10
 269 716 269 716 272 709 c 1,11,-1
 605 709 l 1,12,-1
 593 650 l 1,13,-1
 284 650 l 1,14,-1
 230 396 l 1,15,-1
 507 396 l 1,16,-1
 495 338 l 1,17,-1
 218 338 l 1,18,-1
 158 58 l 1,19,-1
 466 58 l 1,20,-1
 454 0 l 1,21,-1
 87 0 l 1,22,-1
 221 638 l 2,0,1
EndSplineSet
EndChar
StartChar: F
Encoding: 70 70 39
Width: 499
VWidth: 1494
Flags: W
HStem: 0 21G<84 148.201> 338 58<227 492> 650 59<281 590>
Fore
218 638 m 2,0,1
 221 652 221 652 218 660 c 128,-1,2
 215 668 215 668 211.5 673.5 c 128,-1,3
 208 679 208 679 205 683.5 c 128,-1,4
 202 688 202 688 205 695 c 1,5,6
 209 703 209 703 221 714.5 c 128,-1,7
 233 726 233 726 248 726 c 0,8,9
 253 726 253 726 259.5 721 c 128,-1,10
 266 716 266 716 269 709 c 1,11,-1
 602 709 l 1,12,-1
 590 650 l 1,13,-1
 281 650 l 1,14,-1
 227 396 l 1,15,-1
 504 396 l 1,16,-1
 492 338 l 1,17,-1
 215 338 l 1,18,-1
 144 0 l 1,19,-1
 84 0 l 1,20,-1
 218 638 l 2,0,1
EndSplineSet
EndChar
StartChar: G
Encoding: 71 71 40
Width: 630
VWidth: 1494
Flags: W
HStem: -19 58<262.043 402.725> 299 58<411 562> 661 58<374.121 533.672>
VStem: 116 61<127.285 201 201 289.074> 599 66<567 615.076>
Fore
595 357 m 1,0,1
 610 371 610 371 620 371 c 0,2,3
 635 371 635 371 642 359 c 128,-1,4
 649 347 649 347 650 339 c 1,5,6
 650 332 650 332 645.5 328 c 128,-1,7
 641 324 641 324 636 319.5 c 128,-1,8
 631 315 631 315 625 307.5 c 128,-1,9
 619 300 619 300 616 287 c 2,10,-1
 561 24 l 1,11,12
 498 -1 498 -1 442 -10 c 128,-1,13
 386 -19 386 -19 323 -19 c 0,14,15
 257 -19 257 -19 213 7.5 c 128,-1,16
 169 34 169 34 144.5 83.5 c 128,-1,17
 120 133 120 133 116 201 c 128,-1,18
 112 269 112 269 130 351 c 0,19,20
 145 420 145 420 175 486 c 128,-1,21
 205 552 205 552 249.5 603.5 c 128,-1,22
 294 655 294 655 352 687 c 128,-1,23
 410 719 410 719 480 719 c 0,24,25
 516 719 516 719 548.5 709.5 c 128,-1,26
 581 700 581 700 606.5 681 c 128,-1,27
 632 662 632 662 648 633 c 128,-1,28
 664 604 664 604 665 567 c 1,29,-1
 599 544 l 1,30,31
 598 604 598 604 559 632.5 c 128,-1,32
 520 661 520 661 466 661 c 0,33,34
 408 661 408 661 362.5 633 c 128,-1,35
 317 605 317 605 282.5 561 c 128,-1,36
 248 517 248 517 225 462 c 128,-1,37
 202 407 202 407 190 351 c 0,38,39
 176 283 176 283 177 225 c 128,-1,40
 178 167 178 167 198 126 c 128,-1,41
 218 85 218 85 259 62 c 128,-1,42
 300 39 300 39 366 39 c 0,43,44
 401 39 401 39 438 48.5 c 128,-1,45
 475 58 475 58 513 70 c 1,46,-1
 562 299 l 1,47,-1
 399 299 l 1,48,-1
 411 357 l 1,49,-1
 595 357 l 1,0,1
EndSplineSet
EndChar
StartChar: H
Encoding: 72 72 41
Width: 630
VWidth: 1494
Flags: W
HStem: 0 21G<84 146.26 490 550.203> 338 58<226 562> 689 20G<228.797 291 635.783 695>
Fore
695 709 m 1,0,-1
 546 0 l 1,1,-1
 490 0 l 1,2,-1
 562 338 l 1,3,-1
 214 338 l 1,4,-1
 142 0 l 1,5,-1
 84 0 l 1,6,-1
 233 709 l 1,7,-1
 291 709 l 1,8,-1
 226 396 l 1,9,-1
 574 396 l 1,10,-1
 640 709 l 1,11,-1
 695 709 l 1,0,-1
EndSplineSet
EndChar
StartChar: I
Encoding: 73 73 42
Width: 243
VWidth: 1494
Flags: W
HStem: 0 21G<96 156.231> 689 20G<240.797 302>
VStem: 96 206<0 709 1.53064e-18 1.53064e-18>
Fore
302 709 m 1,0,-1
 152 0 l 1,1,-1
 96 0 l 1,2,-1
 245 709 l 1,3,-1
 302 709 l 1,0,-1
EndSplineSet
EndChar
StartChar: J
Encoding: 74 74 43
Width: 373
VWidth: 1494
Flags: W
HStem: -14.5 51<71.923 122.696 122.696 165.171> 689 20G<384.73 447>
VStem: 22 425<15 709 -4.80383 37.6714>
Fore
447 709 m 1,0,-1
 333 170 l 2,1,2
 318 105 318 105 280 61.5 c 128,-1,3
 242 18 242 18 203 1 c 0,4,5
 146 -22 146 -22 100.5 -14.5 c 128,-1,6
 55 -7 55 -7 22 15 c 1,7,-1
 51 64 l 1,8,9
 58 55 58 55 71.5 47.5 c 128,-1,10
 85 40 85 40 103 36.5 c 128,-1,11
 121 33 121 33 142.5 35 c 128,-1,12
 164 37 164 37 187 48 c 0,13,14
 218 64 218 64 241.5 93.5 c 128,-1,15
 265 123 265 123 272 161 c 2,16,-1
 389 709 l 1,17,-1
 447 709 l 1,0,-1
EndSplineSet
EndChar
StartChar: K
Encoding: 75 75 44
Width: 585
VWidth: 1494
Flags: W
HStem: -9 21G<91 152.222 497.336 584> 689 20G<236.769 297 621.925 706>
Fore
584 0 m 1,0,-1
 513 -9 l 1,1,-1
 224 360 l 1,2,-1
 148 0 l 1,3,-1
 91 0 l 1,4,-1
 241 709 l 1,5,-1
 297 709 l 1,6,-1
 227 380 l 1,7,-1
 647 715 l 1,8,-1
 706 700 l 1,9,-1
 293 371 l 1,10,-1
 584 0 l 1,0,-1
EndSplineSet
EndChar
StartChar: L
Encoding: 76 76 45
Width: 484
VWidth: 1494
Flags: W
HStem: 0 52<155 451> 689 20G<231.743 294>
VStem: 63 399<13 52 13 52 13 13>
Fore
236 709 m 1,0,-1
 294 709 l 1,1,-1
 155 52 l 1,2,-1
 462 52 l 1,3,-1
 451 0 l 1,4,-1
 123 0 l 1,5,6
 115 -7 115 -7 106 -12.5 c 128,-1,7
 97 -18 97 -18 93 -18 c 0,8,9
 78 -18 78 -18 71 -6 c 128,-1,10
 64 6 64 6 63 13 c 0,11,12
 63 19 63 19 67.5 24.5 c 128,-1,13
 72 30 72 30 78.5 35 c 128,-1,14
 85 40 85 40 91 48.5 c 128,-1,15
 97 57 97 57 100 70 c 2,16,-1
 236 709 l 1,0,-1
EndSplineSet
EndChar
StartChar: M
Encoding: 77 77 46
Width: 826
VWidth: 1494
Flags: W
HStem: -10 21G<28 88.6898 750.792 809>
VStem: 750 59<3 78.375>
Fore
454 22 m 1,0,-1
 454 12 l 1,1,2
 457 3 457 3 449 -3.5 c 128,-1,3
 441 -10 441 -10 430 -14 c 128,-1,4
 419 -18 419 -18 407.5 -17 c 128,-1,5
 396 -16 396 -16 395 -7 c 2,6,-1
 314 596 l 1,7,-1
 81 -10 l 1,8,-1
 28 3 l 1,9,-1
 288 674 l 1,10,-1
 281 688 l 2,11,12
 278 695 278 695 292 709 c 128,-1,13
 306 723 306 723 323 726 c 0,14,15
 330 728 330 728 337 722 c 128,-1,16
 344 716 344 716 349 708.5 c 128,-1,17
 354 701 354 701 357 693.5 c 128,-1,18
 360 686 360 686 360 685 c 2,19,-1
 439 100 l 1,20,-1
 767 685 l 2,21,22
 768 686 768 686 774 693.5 c 128,-1,23
 780 701 780 701 788.5 708.5 c 128,-1,24
 797 716 797 716 806 722 c 128,-1,25
 815 728 815 728 822 726 c 0,26,27
 836 723 836 723 845 709 c 128,-1,28
 854 695 854 695 846 688 c 2,29,-1
 833 674 l 1,30,-1
 809 3 l 1,31,-1
 750 -10 l 1,32,-1
 774 596 l 1,33,-1
 454 22 l 1,0,-1
EndSplineSet
EndChar
StartChar: N
Encoding: 78 78 47
Width: 636
VWidth: 1494
Flags: W
HStem: 0 21G<81 142.22 496.206 560.231> 705 20<240.5 250.5 644.752 706>
Fore
215 640 m 2,0,1
 218 653 218 653 216 660.5 c 128,-1,2
 214 668 214 668 211 673.5 c 128,-1,3
 208 679 208 679 205 682.5 c 128,-1,4
 202 686 202 686 205 694 c 256,5,6
 208 701 208 701 220.5 713 c 128,-1,7
 233 725 233 725 248 725 c 0,8,9
 253 725 253 725 259 720 c 128,-1,10
 265 715 265 715 269 707 c 1,11,-1
 519 97 l 1,12,-1
 649 709 l 1,13,-1
 706 709 l 1,14,-1
 556 0 l 1,15,-1
 505 0 l 1,16,-1
 257 564 l 1,17,-1
 138 0 l 1,18,-1
 81 0 l 1,19,-1
 215 640 l 2,0,1
EndSplineSet
EndChar
StartChar: O
Encoding: 79 79 48
Width: 686
VWidth: 1494
Flags: W
HStem: -19 55<261.795 448.991> 664 55<385.331 572.613>
VStem: 119.5 60.5<135.378 291.691> 653 61.5<407.259 563.591>
Fore
496 719 m 128,-1,1
 564 719 564 719 611.5 692 c 128,-1,2
 659 665 659 665 684.5 617.5 c 128,-1,3
 710 570 710 570 714.5 501 c 128,-1,4
 719 432 719 432 701 350 c 0,5,6
 683 266 683 266 650 198 c 128,-1,7
 617 130 617 130 571 82 c 128,-1,8
 525 34 525 34 466 7.5 c 128,-1,9
 407 -19 407 -19 339 -19 c 128,-1,10
 271 -19 271 -19 223 7.5 c 128,-1,11
 175 34 175 34 149.5 82 c 128,-1,12
 124 130 124 130 119.5 198 c 128,-1,13
 115 266 115 266 133 350 c 0,14,15
 151 432 151 432 184 501 c 128,-1,16
 217 570 217 570 263 617.5 c 128,-1,17
 309 665 309 665 368.5 692 c 128,-1,0
 428 719 428 719 496 719 c 128,-1,1
351 36 m 0,18,19
 411 36 411 36 459.5 63 c 128,-1,20
 508 90 508 90 544 134 c 128,-1,21
 580 178 580 178 604.5 234.5 c 128,-1,22
 629 291 629 291 641 350 c 256,23,24
 653 408 653 408 653 464 c 128,-1,25
 653 520 653 520 635 565 c 128,-1,26
 617 610 617 610 580.5 637 c 128,-1,27
 544 664 544 664 484 664 c 0,28,29
 423 664 423 664 374.5 637 c 128,-1,30
 326 610 326 610 289.5 565 c 128,-1,31
 253 520 253 520 228 464 c 128,-1,32
 203 408 203 408 191 350 c 256,33,34
 179 291 179 291 180 234.5 c 128,-1,35
 181 178 181 178 199 134 c 128,-1,36
 217 90 217 90 253.5 63 c 128,-1,37
 290 36 290 36 351 36 c 0,18,19
EndSplineSet
EndChar
StartChar: P
Encoding: 80 80 49
Width: 547
VWidth: 1494
Flags: W
HStem: 0 21G<88 150.196> 286 55<218 367.7> 655 54<286 452.701>
Fore
223 637 m 2,0,1
 226 650 226 650 223 658.5 c 128,-1,2
 220 667 220 667 216 673 c 128,-1,3
 212 679 212 679 209 683.5 c 128,-1,4
 206 688 206 688 209 695 c 1,5,6
 214 703 214 703 226 714.5 c 128,-1,7
 238 726 238 726 253 726 c 0,8,9
 257 726 257 726 264 721 c 128,-1,10
 271 716 271 716 274 709 c 1,11,-1
 399 709 l 2,12,13
 448 709 448 709 492.5 698.5 c 128,-1,14
 537 688 537 688 568 663 c 128,-1,15
 599 638 599 638 612.5 598 c 128,-1,16
 626 558 626 558 613 496 c 256,17,18
 599 435 599 435 568.5 394.5 c 128,-1,19
 538 354 538 354 496 330 c 128,-1,20
 454 306 454 306 407 296 c 128,-1,21
 360 286 360 286 315 286 c 2,22,-1
 206 286 l 1,23,-1
 146 0 l 1,24,-1
 88 0 l 1,25,-1
 223 637 l 2,0,1
286 655 m 1,26,-1
 218 341 l 1,27,-1
 324 341 l 2,28,29
 425 341 425 341 482.5 383 c 128,-1,30
 540 425 540 425 556 496 c 0,31,32
 570 561 570 561 532.5 608 c 128,-1,33
 495 655 495 655 390 655 c 2,34,-1
 286 655 l 1,26,-1
EndSplineSet
EndChar
StartChar: Q
Encoding: 81 81 50
Width: 680
VWidth: 1494
Flags: W
HStem: -19 58<258.921 434.106> 661 58<381.396 566.208>
VStem: 116.5 61.5<137.347 293.281> 646.5 64<408.194 465 465 562.138>
Fore
605 -24 m 1,0,-1
 534 52 l 1,1,2
 445 -19 445 -19 335 -19 c 0,3,4
 266 -19 266 -19 219 7.5 c 128,-1,5
 172 34 172 34 146.5 83 c 128,-1,6
 121 132 121 132 116.5 200 c 128,-1,7
 112 268 112 268 130 351 c 0,8,9
 148 433 148 433 181 501.5 c 128,-1,10
 214 570 214 570 260 617.5 c 128,-1,11
 306 665 306 665 364.5 692 c 128,-1,12
 423 719 423 719 492 719 c 256,13,14
 561 719 561 719 608 692 c 128,-1,15
 655 665 655 665 680.5 617.5 c 128,-1,16
 706 570 706 570 710.5 501.5 c 128,-1,17
 715 433 715 433 697 351 c 0,18,19
 665 196 665 196 580 97 c 1,20,-1
 653 21 l 1,21,-1
 605 -24 l 1,0,-1
347 39 m 0,22,23
 390 39 390 39 426.5 53 c 128,-1,24
 463 67 463 67 495 93 c 1,25,-1
 431 158 l 1,26,-1
 480 205 l 1,27,-1
 540 139 l 1,28,29
 575 182 575 182 599 237.5 c 128,-1,30
 623 293 623 293 635 351 c 256,31,32
 647 410 647 410 646.5 465 c 128,-1,33
 646 520 646 520 628.5 563.5 c 128,-1,34
 611 607 611 607 574.5 634 c 128,-1,35
 538 661 538 661 478 661 c 256,36,37
 419 661 419 661 371 634 c 128,-1,38
 323 607 323 607 287 563.5 c 128,-1,39
 251 520 251 520 226.5 465 c 128,-1,40
 202 410 202 410 190 351 c 256,41,42
 178 293 178 293 178 236 c 128,-1,43
 178 179 178 179 196 136 c 128,-1,44
 214 93 214 93 250.5 66 c 128,-1,45
 287 39 287 39 347 39 c 0,22,23
EndSplineSet
EndChar
StartChar: R
Encoding: 82 82 51
Width: 584
VWidth: 1494
Flags: W
HStem: -13 21G<88 150.196 457.438 529> 286 55<218 338> 655 54<286 452.701>
Fore
223 638 m 2,0,1
 226 652 226 652 223 660 c 128,-1,2
 220 668 220 668 216 673.5 c 128,-1,3
 212 679 212 679 209 683.5 c 128,-1,4
 206 688 206 688 209 695 c 1,5,6
 214 703 214 703 226 714.5 c 128,-1,7
 238 726 238 726 253 726 c 0,8,9
 257 726 257 726 264 721 c 128,-1,10
 271 716 271 716 274 709 c 1,11,-1
 399 709 l 2,12,13
 448 709 448 709 492.5 698.5 c 128,-1,14
 537 688 537 688 568 663 c 128,-1,15
 599 638 599 638 612.5 598 c 128,-1,16
 626 558 626 558 613 496 c 0,17,18
 604 450 604 450 583 415.5 c 128,-1,19
 562 381 562 381 533.5 357 c 128,-1,20
 505 333 505 333 472 317.5 c 128,-1,21
 439 302 439 302 404 294 c 1,22,-1
 529 1 l 1,23,-1
 466 -13 l 1,24,-1
 338 286 l 1,25,-1
 206 286 l 1,26,-1
 146 0 l 1,27,-1
 88 0 l 1,28,-1
 223 638 l 2,0,1
286 655 m 1,29,-1
 218 341 l 1,30,-1
 324 341 l 2,31,32
 425 341 425 341 482.5 383 c 128,-1,33
 540 425 540 425 556 496 c 0,34,35
 570 561 570 561 532.5 608 c 128,-1,36
 495 655 495 655 390 655 c 2,37,-1
 286 655 l 1,29,-1
EndSplineSet
EndChar
StartChar: S
Encoding: 83 83 52
Width: 579
VWidth: 1494
Flags: W
HStem: -19 55<236.317 368.846> 667 58<327.86 498.439>
Fore
567 176 m 0,0,1
 547 91 547 91 474 36.5 c 128,-1,2
 401 -18 401 -18 274 -19 c 0,3,4
 230 -19 230 -19 195.5 -10 c 128,-1,5
 161 -1 161 -1 135 13 c 128,-1,6
 109 27 109 27 90.5 44 c 128,-1,7
 72 61 72 61 58 75 c 1,8,-1
 117 121 l 1,9,10
 127 108 127 108 141 93 c 128,-1,11
 155 78 155 78 176 65 c 128,-1,12
 197 52 197 52 225.5 44 c 128,-1,13
 254 36 254 36 293 36 c 256,14,15
 332 36 332 36 367 45.5 c 128,-1,16
 402 55 402 55 430.5 72.5 c 128,-1,17
 459 90 459 90 477.5 112.5 c 128,-1,18
 496 135 496 135 502 161 c 0,19,20
 508 190 508 190 503 211.5 c 128,-1,21
 498 233 498 233 477.5 252 c 128,-1,22
 457 271 457 271 423 288 c 128,-1,23
 389 305 389 305 336 326 c 0,24,25
 244 360 244 360 204 414.5 c 128,-1,26
 164 469 164 469 173 532 c 0,27,28
 178 568 178 568 199 603 c 128,-1,29
 220 638 220 638 253.5 665 c 128,-1,30
 287 692 287 692 332.5 708.5 c 128,-1,31
 378 725 378 725 433 725 c 0,32,33
 459 725 459 725 486.5 720.5 c 128,-1,34
 514 716 514 716 539.5 708 c 128,-1,35
 565 700 565 700 587.5 688.5 c 128,-1,36
 610 677 610 677 625 664 c 1,37,-1
 584 613 l 1,38,39
 559 634 559 634 518.5 650.5 c 128,-1,40
 478 667 478 667 419 667 c 0,41,42
 348 667 348 667 299.5 631 c 128,-1,43
 251 595 251 595 239 543 c 0,44,45
 227 489 227 489 267.5 448 c 128,-1,46
 308 407 308 407 389 377 c 0,47,48
 432 360 432 360 468.5 342 c 128,-1,49
 505 324 505 324 530 301 c 128,-1,50
 555 278 555 278 565 248 c 128,-1,51
 575 218 575 218 567 176 c 0,0,1
EndSplineSet
EndChar
StartChar: T
Encoding: 84 84 53
Width: 497
VWidth: 1494
Flags: W
HStem: 0 21G<221 282.244> 655 54<169.504 360 417 614.601>
VStem: 160.5 467<681.921 696.746>
Fore
417 655 m 1,0,-1
 278 0 l 1,1,-1
 221 0 l 1,2,-1
 360 655 l 1,3,-1
 169 655 l 2,4,5
 161 655 161 655 160.5 662.5 c 128,-1,6
 160 670 160 670 161 679 c 0,7,8
 163 695 163 695 166.5 702 c 128,-1,9
 170 709 170 709 184 709 c 2,10,-1
 613 709 l 2,11,12
 626 709 626 709 627.5 702 c 128,-1,13
 629 695 629 695 623 679 c 0,14,15
 620 670 620 670 617 662.5 c 128,-1,16
 614 655 614 655 607 655 c 2,17,-1
 417 655 l 1,0,-1
EndSplineSet
EndChar
StartChar: U
Encoding: 85 85 54
Width: 680
VWidth: 1494
Flags: W
HStem: -16 58<272.581 426.686> 689 20G<228.772 290 681.805 741>
Fore
741 709 m 1,0,-1
 637 217 l 2,1,2
 613 102 613 102 532 43 c 128,-1,3
 451 -16 451 -16 335 -16 c 256,4,5
 218 -16 218 -16 161.5 43 c 128,-1,6
 105 102 105 102 129 217 c 2,7,-1
 233 709 l 1,8,-1
 290 709 l 1,9,-1
 187 218 l 2,10,11
 176 170 176 170 185 136.5 c 128,-1,12
 194 103 194 103 216.5 82 c 128,-1,13
 239 61 239 61 272.5 51.5 c 128,-1,14
 306 42 306 42 347 42 c 0,15,16
 386 42 386 42 424 51.5 c 128,-1,17
 462 61 462 61 493.5 82 c 128,-1,18
 525 103 525 103 549 136.5 c 128,-1,19
 573 170 573 170 583 218 c 2,20,-1
 686 709 l 1,21,-1
 741 709 l 1,0,-1
EndSplineSet
EndChar
StartChar: V
Encoding: 86 86 55
Width: 614
VWidth: 1494
Flags: W
HStem: -19 21G<284 292.5> 700 20G<158 223.229 686.245 752>
Fore
345 22 m 0,0,1
 341 18 341 18 333.5 10.5 c 128,-1,2
 326 3 326 3 317.5 -3.5 c 128,-1,3
 309 -10 309 -10 301.5 -14.5 c 128,-1,4
 294 -19 294 -19 291 -19 c 0,5,6
 277 -16 277 -16 268 -3 c 128,-1,7
 259 10 259 10 265 18 c 2,8,-1
 277 31 l 1,9,-1
 158 709 l 1,10,-1
 220 720 l 1,11,-1
 323 82 l 1,12,-1
 698 720 l 1,13,-1
 752 709 l 1,14,-1
 549 365 l 2,15,16
 510 300 510 300 473 239 c 128,-1,17
 436 178 436 178 408 129.5 c 128,-1,18
 380 81 380 81 363.5 52.5 c 128,-1,19
 347 24 347 24 345 22 c 0,0,1
EndSplineSet
EndChar
StartChar: W
Encoding: 87 87 56
Width: 834
VWidth: 1494
Flags: W
HStem: 699 20G<178 235.176 898.257 958>
VStem: 178 58<634.02 706>
Fore
671 112 m 1,0,-1
 906 719 l 1,1,-1
 958 706 l 1,2,-1
 697 34 l 1,3,-1
 704 21 l 2,4,5
 707 13 707 13 693 -1 c 128,-1,6
 679 -15 679 -15 664 -18 c 0,7,8
 656 -19 656 -19 649.5 -13 c 128,-1,9
 643 -7 643 -7 637.5 0 c 128,-1,10
 632 7 632 7 629 14 c 128,-1,11
 626 21 626 21 626 24 c 2,12,-1
 547 608 l 1,13,-1
 220 24 l 2,14,15
 218 21 218 21 212 14 c 128,-1,16
 206 7 206 7 198 0 c 128,-1,17
 190 -7 190 -7 181 -13 c 128,-1,18
 172 -19 172 -19 164 -18 c 0,19,20
 149 -15 149 -15 141 -1 c 128,-1,21
 133 13 133 13 139 21 c 2,22,-1
 152 34 l 1,23,-1
 178 706 l 1,24,-1
 236 719 l 1,25,-1
 211 112 l 1,26,-1
 549 716 l 2,27,28
 555 725 555 725 566 725.5 c 128,-1,29
 577 726 577 726 587.5 722.5 c 128,-1,30
 598 719 598 719 602.5 712.5 c 128,-1,31
 607 706 607 706 601 697 c 2,32,-1
 595 686 l 1,33,-1
 671 112 l 1,0,-1
EndSplineSet
EndChar
StartChar: X
Encoding: 88 88 57
Width: 562
VWidth: 1494
Flags: W
Fore
16 37 m 1,0,-1
 332 390 l 1,1,-1
 182 701 l 1,2,-1
 238 731 l 1,3,-1
 375 432 l 1,4,-1
 641 729 l 1,5,-1
 683 701 l 1,6,-1
 395 380 l 1,7,-1
 564 33 l 1,8,-1
 513 3 l 1,9,-1
 354 336 l 1,10,-1
 54 6 l 1,11,-1
 16 37 l 1,0,-1
EndSplineSet
EndChar
StartChar: Y
Encoding: 89 89 58
Width: 533
VWidth: 1494
Flags: W
HStem: 0 21G<239 295.2> 708 20G<612.462 671>
Fore
302 302 m 1,0,-1
 160 710 l 1,1,-1
 212 729 l 1,2,-1
 339 356 l 1,3,-1
 628 728 l 1,4,-1
 671 709 l 1,5,6
 607 626 607 626 547 550 c 0,7,8
 522 517 522 517 495 482.5 c 128,-1,9
 468 448 468 448 442.5 415.5 c 128,-1,10
 417 383 417 383 394 353 c 128,-1,11
 371 323 371 323 354 300 c 1,12,-1
 291 0 l 1,13,-1
 239 0 l 1,14,-1
 302 300 l 1,15,-1
 302 302 l 1,0,-1
EndSplineSet
EndChar
StartChar: Z
Encoding: 90 90 59
Width: 591
VWidth: 1494
Flags: W
HStem: 0 58<148 540> 650 59<196 589>
Fore
662 725 m 256,0,1
 665 728 665 728 675.5 726.5 c 128,-1,2
 686 725 686 725 695 713 c 0,3,4
 706 697 706 697 701.5 689.5 c 128,-1,5
 697 682 697 682 685 671 c 2,6,-1
 659 644 l 1,7,-1
 148 58 l 1,8,-1
 552 58 l 1,9,-1
 540 0 l 1,10,-1
 94 0 l 2,11,12
 87 0 87 0 80 -5 c 128,-1,13
 73 -10 73 -10 66 -13 c 256,14,15
 58 -16 58 -16 50 -11.5 c 128,-1,16
 42 -7 42 -7 33 13 c 0,17,18
 30 24 30 24 35 28.5 c 128,-1,19
 40 33 40 33 52 42 c 0,20,21
 61 48 61 48 67 53 c 128,-1,22
 73 58 73 58 79 64 c 2,23,-1
 589 650 l 1,24,-1
 184 650 l 1,25,-1
 196 709 l 1,26,-1
 640 709 l 1,27,28
 643 712 643 712 647 715 c 0,29,30
 650 718 650 718 654.5 720 c 128,-1,31
 659 722 659 722 662 725 c 256,0,1
EndSplineSet
EndChar
StartChar: bracketleft
Encoding: 91 91 60
Width: 273
VWidth: 1494
Flags: W
HStem: -136 48<115 169> 707 48<284 348>
VStem: 46 313<-136 755 750.875 775.023>
Fore
284 707 m 1,0,-1
 115 -88 l 1,1,-1
 179 -88 l 1,2,-1
 169 -136 l 1,3,-1
 46 -136 l 1,4,-1
 236 755 l 1,5,-1
 359 755 l 1,6,-1
 348 707 l 1,7,-1
 284 707 l 1,0,-1
EndSplineSet
EndChar
StartChar: backslash
Encoding: 92 92 61
Width: 243
VWidth: 1494
Flags: W
VStem: 114 176<-27 729 729 729>
Fore
290 -27 m 1,0,-1
 241 -25 l 1,1,-1
 114 729 l 1,2,-1
 166 729 l 1,3,-1
 290 -27 l 1,0,-1
EndSplineSet
EndChar
StartChar: bracketright
Encoding: 93 93 62
Width: 270
VWidth: 1494
Flags: W
HStem: -136 48<52 117> 707 48<232 286>
VStem: 42 312<-136 755 -171.683 -136>
Fore
221 707 m 1,0,-1
 232 755 l 1,1,-1
 354 755 l 1,2,-1
 164 -136 l 1,3,-1
 42 -136 l 1,4,-1
 52 -88 l 1,5,-1
 117 -88 l 1,6,-1
 286 707 l 1,7,-1
 221 707 l 1,0,-1
EndSplineSet
EndChar
StartChar: asciicircum
Encoding: 94 94 63
Width: 576
VWidth: 1494
Flags: W
HStem: 232 441<112 408 408 408>
VStem: 112 450<232 232 232 232>
Fore
112 232 m 1,0,-1
 408 673 l 1,1,-1
 453 673 l 1,2,-1
 562 232 l 1,3,-1
 511 232 l 1,4,-1
 419 613 l 1,5,-1
 163 232 l 1,6,-1
 112 232 l 1,0,-1
EndSplineSet
EndChar
StartChar: underscore
Encoding: 95 95 64
Width: 481
VWidth: 1494
Flags: W
HStem: -130 57<-15 453 -27 465 -15 -15>
Fore
465 -73 m 1,0,-1
 453 -130 l 1,1,-1
 -27 -130 l 1,2,-1
 -15 -73 l 1,3,-1
 465 -73 l 1,0,-1
EndSplineSet
EndChar
StartChar: grave
Encoding: 96 96 65
Width: 243
VWidth: 1494
Flags: W
HStem: 549 140<166 288 166 166>
Fore
288 549 m 1,0,-1
 245 549 l 1,1,-1
 166 689 l 1,2,-1
 236 689 l 1,3,-1
 288 549 l 1,0,-1
EndSplineSet
EndChar
StartChar: a
Encoding: 97 97 66
Width: 523
VWidth: 1494
Flags: W
HStem: -13 53<181.626 329.119> 468 54<264.158 412.475>
VStem: 78 51.5<113.486 234.114> 438 54<19.6306 28.25 48.2098 82>
Fore
493 120 m 2,0,1
 481 70 481 70 485 47.5 c 128,-1,2
 489 25 489 25 492 9 c 1,3,-1
 438 -10 l 1,4,5
 435 -1 435 -1 428.5 19 c 128,-1,6
 422 39 422 39 431 82 c 1,7,8
 396 39 396 39 348 13 c 128,-1,9
 300 -13 300 -13 242 -13 c 0,10,11
 188 -13 188 -13 152.5 10 c 128,-1,12
 117 33 117 33 99 70.5 c 128,-1,13
 81 108 81 108 78 156.5 c 128,-1,14
 75 205 75 205 85 254 c 256,15,16
 96 303 96 303 119 352 c 128,-1,17
 142 401 142 401 176.5 438 c 128,-1,18
 211 475 211 475 256.5 498.5 c 128,-1,19
 302 522 302 522 356 522 c 0,20,21
 414 522 414 522 449 495.5 c 128,-1,22
 484 469 484 469 501 428 c 1,23,-1
 522 522 l 1,24,-1
 578 522 l 1,25,-1
 493 120 l 2,0,1
344 468 m 0,26,27
 300 468 300 468 265 448 c 128,-1,28
 230 428 230 428 204 396.5 c 128,-1,29
 178 365 178 365 161 326.5 c 128,-1,30
 144 288 144 288 136 254 c 0,31,32
 129 218 129 218 129.5 181 c 128,-1,33
 130 144 130 144 142.5 112.5 c 128,-1,34
 155 81 155 81 182 60.5 c 128,-1,35
 209 40 209 40 253 40 c 0,36,37
 291 40 291 40 325 56.5 c 128,-1,38
 359 73 359 73 385 99.5 c 128,-1,39
 411 126 411 126 430.5 158.5 c 128,-1,40
 450 191 450 191 460 226 c 2,41,-1
 472 284 l 2,42,43
 475 317 475 317 470 350 c 128,-1,44
 465 383 465 383 450 409 c 128,-1,45
 435 435 435 435 409 451.5 c 128,-1,46
 383 468 383 468 344 468 c 0,26,27
EndSplineSet
Substitution2: "Single Substitution lookup 22 subtable" uni0E38
Substitution2: "Single Substitution lookup 22 subtable" uni0E38
EndChar
StartChar: b
Encoding: 98 98 67
Width: 529
VWidth: 1494
Flags: W
HStem: -13 53<217.518 364.399> 466 54<300.492 447.476> 723 20G<207.795 268>
VStem: 500.5 52.5<273.865 325.5 325.5 393.514>
Fore
126 82 m 1,0,1
 117 39 117 39 102 19 c 128,-1,2
 87 -1 87 -1 79 -10 c 1,3,-1
 34 9 l 1,4,5
 45 25 45 25 57 47.5 c 128,-1,6
 69 70 69 70 81 120 c 2,7,-1
 212 743 l 1,8,-1
 268 743 l 1,9,-1
 200 428 l 1,10,11
 235 469 235 469 282 494.5 c 128,-1,12
 329 520 329 520 387 520 c 0,13,14
 441 520 441 520 477 497 c 128,-1,15
 513 474 513 474 531.5 436.5 c 128,-1,16
 550 399 550 399 553 351 c 128,-1,17
 556 303 556 303 546 254 c 256,18,19
 535 205 535 205 512 156.5 c 128,-1,20
 489 108 489 108 454.5 70.5 c 128,-1,21
 420 33 420 33 374.5 10 c 128,-1,22
 329 -13 329 -13 275 -13 c 0,23,24
 217 -13 217 -13 180.5 14.5 c 128,-1,25
 144 42 144 42 126 82 c 1,0,1
495 254 m 0,26,27
 502 288 502 288 500.5 325.5 c 128,-1,28
 499 363 499 363 486.5 394.5 c 128,-1,29
 474 426 474 426 447 446 c 128,-1,30
 420 466 420 466 377 466 c 0,31,32
 338 466 338 466 304.5 449.5 c 128,-1,33
 271 433 271 433 244.5 407 c 128,-1,34
 218 381 218 381 199.5 349 c 128,-1,35
 181 317 181 317 170 284 c 2,36,-1
 158 226 l 2,37,38
 154 191 154 191 159 158.5 c 128,-1,39
 164 126 164 126 179 99.5 c 128,-1,40
 194 73 194 73 220.5 56.5 c 128,-1,41
 247 40 247 40 286 40 c 0,42,43
 329 40 329 40 364 60.5 c 128,-1,44
 399 81 399 81 426 111.5 c 128,-1,45
 453 142 453 142 470 180 c 128,-1,46
 487 218 487 218 495 254 c 0,26,27
EndSplineSet
Substitution2: "Single Substitution lookup 22 subtable" uni0E39
Substitution2: "Single Substitution lookup 22 subtable" uni0E39
EndChar
StartChar: c
Encoding: 99 99 68
Width: 440
VWidth: 1494
Flags: W
VStem: 87.5 411.5<145 471 145 145>
Fore
419 42 m 2,0,1
 372 3 372 3 308 -9.5 c 128,-1,2
 244 -22 244 -22 188 0 c 0,3,4
 169 7 169 7 147.5 23.5 c 128,-1,5
 126 40 126 40 109.5 70 c 128,-1,6
 93 100 93 100 87.5 145 c 128,-1,7
 82 190 82 190 96 256 c 0,8,9
 109 320 109 320 134.5 365.5 c 128,-1,10
 160 411 160 411 188.5 441 c 128,-1,11
 217 471 217 471 245.5 487.5 c 128,-1,12
 274 504 274 504 296 511 c 0,13,14
 354 532 354 532 410 521 c 128,-1,15
 466 510 466 510 499 471 c 1,16,-1
 465 417 l 1,17,18
 456 435 456 435 438 447 c 128,-1,19
 420 459 420 459 398.5 464 c 128,-1,20
 377 469 377 469 353 468.5 c 128,-1,21
 329 468 329 468 306 460 c 0,22,23
 248 439 248 439 207 385.5 c 128,-1,24
 166 332 166 332 149 256 c 256,25,26
 133 179 133 179 151.5 125.5 c 128,-1,27
 170 72 170 72 220 51 c 0,28,29
 236 43 236 43 258.5 41 c 128,-1,30
 281 39 281 39 305.5 42.5 c 128,-1,31
 330 46 330 46 354 56.5 c 128,-1,32
 378 67 378 67 398 87 c 1,33,-1
 423 45 l 1,34,-1
 419 42 l 2,0,1
EndSplineSet
Substitution2: "Single Substitution lookup 22 subtable" uni0E3A
Substitution2: "Single Substitution lookup 22 subtable" uni0E3A
EndChar
StartChar: d
Encoding: 100 100 69
Width: 533
VWidth: 1494
Flags: W
HStem: -13 53<190.626 338.119> 466 54<272.879 421.157> 723 20G<573.746 634>
VStem: 87 51.5<112.455 156.5 156.5 234.114>
Fore
145 254 m 0,0,1
 138 218 138 218 138.5 180 c 128,-1,2
 139 142 139 142 151.5 111.5 c 128,-1,3
 164 81 164 81 191 60.5 c 128,-1,4
 218 40 218 40 262 40 c 0,5,6
 300 40 300 40 334 56.5 c 128,-1,7
 368 73 368 73 394 99.5 c 128,-1,8
 420 126 420 126 439.5 158.5 c 128,-1,9
 459 191 459 191 469 226 c 2,10,-1
 481 284 l 2,11,12
 484 317 484 317 479 349 c 128,-1,13
 474 381 474 381 459 407 c 128,-1,14
 444 433 444 433 418 449.5 c 128,-1,15
 392 466 392 466 353 466 c 0,16,17
 309 466 309 466 274 446 c 128,-1,18
 239 426 239 426 213 394.5 c 128,-1,19
 187 363 187 363 169.5 325.5 c 128,-1,20
 152 288 152 288 145 254 c 0,0,1
502 120 m 2,21,22
 490 70 490 70 494 47.5 c 128,-1,23
 498 25 498 25 501 9 c 1,24,-1
 447 -10 l 1,25,26
 444 -1 444 -1 437.5 19 c 128,-1,27
 431 39 431 39 439 82 c 1,28,29
 405 42 405 42 357 14.5 c 128,-1,30
 309 -13 309 -13 251 -13 c 0,31,32
 197 -13 197 -13 161.5 10 c 128,-1,33
 126 33 126 33 108 70.5 c 128,-1,34
 90 108 90 108 87 156.5 c 128,-1,35
 84 205 84 205 94 254 c 256,36,37
 105 303 105 303 127 351 c 128,-1,38
 149 399 149 399 183.5 436.5 c 128,-1,39
 218 474 218 474 263.5 497 c 128,-1,40
 309 520 309 520 363 520 c 0,41,42
 422 520 422 520 458.5 494.5 c 128,-1,43
 495 469 495 469 511 428 c 1,44,-1
 578 743 l 1,45,-1
 634 743 l 1,46,-1
 502 120 l 2,21,22
EndSplineSet
EndChar
StartChar: e
Encoding: 101 101 70
Width: 526
VWidth: 1494
Flags: W
HStem: -12.5 49<249.982 312.875> 227 57<160 492> 471 49<283.408 439.896>
VStem: 496.5 54.5<289.115 380.144>
Fore
380 520 m 0,0,1
 453 520 453 520 489.5 488 c 128,-1,2
 526 456 526 456 539.5 413.5 c 128,-1,3
 553 371 553 371 551 327.5 c 128,-1,4
 549 284 549 284 544 263 c 0,5,6
 540 241 540 241 529 233 c 0,7,8
 522 227 522 227 495 227 c 2,9,-1
 149 227 l 1,10,11
 135 160 135 160 159.5 113.5 c 128,-1,12
 184 67 184 67 223 49 c 0,13,14
 253 36 253 36 282 36.5 c 128,-1,15
 311 37 311 37 336.5 44.5 c 128,-1,16
 362 52 362 52 381.5 62 c 128,-1,17
 401 72 401 72 410 78 c 1,18,-1
 433 33 l 1,19,20
 414 21 414 21 382 9 c 128,-1,21
 350 -3 350 -3 314 -9 c 128,-1,22
 278 -15 278 -15 240.5 -12.5 c 128,-1,23
 203 -10 203 -10 175 6 c 0,24,25
 149 19 149 19 129 41.5 c 128,-1,26
 109 64 109 64 97 95 c 128,-1,27
 85 126 85 126 82 164.5 c 128,-1,28
 79 203 79 203 90 251 c 0,29,30
 99 294 99 294 122 342 c 128,-1,31
 145 390 145 390 181.5 429.5 c 128,-1,32
 218 469 218 469 267.5 494.5 c 128,-1,33
 317 520 317 520 380 520 c 0,0,1
492 284 m 1,34,35
 498 311 498 311 496.5 344 c 128,-1,36
 495 377 495 377 480.5 405 c 128,-1,37
 466 433 466 433 438.5 452 c 128,-1,38
 411 471 411 471 366 471 c 0,39,40
 320 471 320 471 284 451 c 128,-1,41
 248 431 248 431 222.5 401.5 c 128,-1,42
 197 372 197 372 181.5 340 c 128,-1,43
 166 308 166 308 160 284 c 1,44,-1
 492 284 l 1,34,35
EndSplineSet
EndChar
StartChar: f
Encoding: 102 102 71
Width: 289
VWidth: 1494
Flags: W
HStem: 475 45<129 197 260 360> 693 51<341.712 406.025>
VStem: 15 429<-155 734 -101 -1>
Fore
197 475 m 1,0,-1
 108 475 l 1,1,-1
 129 520 l 1,2,-1
 206 520 l 1,3,-1
 226 610 l 2,4,5
 236 656 236 656 258 685.5 c 128,-1,6
 280 715 280 715 309 729.5 c 128,-1,7
 338 744 338 744 373 744 c 128,-1,8
 408 744 408 744 444 734 c 1,9,-1
 426 686 l 1,10,11
 396 692 396 692 371.5 693 c 128,-1,12
 347 694 347 694 328 684 c 128,-1,13
 309 674 309 674 296.5 651.5 c 128,-1,14
 284 629 284 629 275 590 c 2,15,-1
 260 520 l 1,16,-1
 381 520 l 1,17,-1
 360 475 l 1,18,-1
 251 475 l 1,19,-1
 151 6 l 2,20,21
 142 -34 142 -34 127 -66.5 c 128,-1,22
 112 -99 112 -99 97 -123 c 0,23,24
 81 -149 81 -149 61 -170 c 1,25,-1
 15 -155 l 1,26,27
 45 -127 45 -127 66 -85 c 128,-1,28
 87 -43 87 -43 97 4 c 2,29,-1
 197 475 l 1,0,-1
EndSplineSet
EndChar
StartChar: g
Encoding: 103 103 72
Width: 536
VWidth: 1494
Flags: W
HStem: -220 53<148 195.961> -16 53<187.69 335.728> 468 54<269.916 417.947>
VStem: 82 51.5<110.486 154 154 227.688>
Fore
508 426 m 1,0,1
 517 469 517 469 533.5 491 c 128,-1,2
 550 513 550 513 558 522 c 1,3,-1
 602 502 l 1,4,5
 592 486 592 486 580 463.5 c 128,-1,6
 568 441 568 441 556 392 c 2,7,-1
 477 9 l 2,8,9
 459 -75 459 -75 415 -124 c 128,-1,10
 371 -173 371 -173 317 -197 c 128,-1,11
 263 -221 263 -221 208.5 -225 c 128,-1,12
 154 -229 154 -229 117 -220 c 1,13,14
 127 -200 127 -200 133 -191 c 128,-1,15
 139 -182 139 -182 142 -177.5 c 128,-1,16
 145 -173 145 -173 145.5 -171.5 c 128,-1,17
 146 -170 146 -170 148 -167 c 1,18,19
 191 -176 191 -176 235.5 -169.5 c 128,-1,20
 280 -163 280 -163 317 -140.5 c 128,-1,21
 354 -118 354 -118 382 -77.5 c 128,-1,22
 410 -37 410 -37 423 22 c 2,23,-1
 433 76 l 1,24,25
 398 34 398 34 350.5 9 c 128,-1,26
 303 -16 303 -16 247 -16 c 0,27,28
 193 -16 193 -16 157 7 c 128,-1,29
 121 30 121 30 103 68 c 128,-1,30
 85 106 85 106 82 154 c 128,-1,31
 79 202 79 202 90 253 c 0,32,33
 100 302 100 302 123 350.5 c 128,-1,34
 146 399 146 399 181.5 437 c 128,-1,35
 217 475 217 475 262.5 498.5 c 128,-1,36
 308 522 308 522 362 522 c 0,37,38
 420 522 420 522 456 495.5 c 128,-1,39
 492 469 492 469 508 426 c 1,0,1
477 281 m 2,40,41
 481 314 481 314 476 347.5 c 128,-1,42
 471 381 471 381 456 408 c 128,-1,43
 441 435 441 435 415 451.5 c 128,-1,44
 389 468 389 468 350 468 c 0,45,46
 306 468 306 468 270.5 448 c 128,-1,47
 235 428 235 428 208.5 396.5 c 128,-1,48
 182 365 182 365 164 326.5 c 128,-1,49
 146 288 146 288 139 253 c 256,50,51
 132 217 132 217 133.5 179 c 128,-1,52
 135 141 135 141 148 109.5 c 128,-1,53
 161 78 161 78 188 57.5 c 128,-1,54
 215 37 215 37 259 37 c 0,55,56
 297 37 297 37 331 53.5 c 128,-1,57
 365 70 365 70 391 96.5 c 128,-1,58
 417 123 417 123 435.5 155.5 c 128,-1,59
 454 188 454 188 465 221 c 2,60,-1
 477 281 l 2,40,41
EndSplineSet
EndChar
StartChar: h
Encoding: 104 104 73
Width: 530
VWidth: 1494
Flags: W
HStem: 0 21G<70 128.128 426.5 481> 462 49<303.986 418.852> 723 20G<222.774 283>
VStem: 70 461<0 394 155.16 335.664>
Fore
474 318 m 2,0,1
 481 356 481 356 474.5 383.5 c 128,-1,2
 468 411 468 411 452 428 c 128,-1,3
 436 445 436 445 414.5 453.5 c 128,-1,4
 393 462 393 462 372 462 c 0,5,6
 338 462 338 462 307.5 447 c 128,-1,7
 277 432 277 432 251.5 406.5 c 128,-1,8
 226 381 226 381 208 349 c 128,-1,9
 190 317 190 317 182 281 c 2,10,-1
 124 0 l 1,11,-1
 70 0 l 1,12,-1
 227 743 l 1,13,-1
 283 743 l 1,14,-1
 214 417 l 1,15,16
 244 457 244 457 289.5 484 c 128,-1,17
 335 511 335 511 386 511 c 0,18,19
 426 511 426 511 456.5 496 c 128,-1,20
 487 481 487 481 506 455 c 128,-1,21
 525 429 525 429 531 394 c 128,-1,22
 537 359 537 359 528 318 c 2,23,-1
 478 88 l 2,24,25
 472 58 472 58 475 32 c 128,-1,26
 478 6 478 6 481 4 c 1,27,-1
 428 -15 l 1,28,29
 425 -6 425 -6 420.5 19.5 c 128,-1,30
 416 45 416 45 425 88 c 2,31,-1
 474 318 l 2,0,1
EndSplineSet
EndChar
StartChar: i
Encoding: 105 105 74
Width: 206
VWidth: 1494
Flags: W
HStem: 0 21G<76 134.192> 500 20G<180.808 239> 616 90<217.016 266.5>
VStem: 196 90<641.211 692.592>
Fore
185 520 m 1,0,-1
 239 520 l 1,1,-1
 130 0 l 1,2,-1
 76 0 l 1,3,-1
 185 520 l 1,0,-1
253 706 m 0,4,5
 271 706 271 706 280.5 693 c 128,-1,6
 290 680 290 680 286 661 c 0,7,8
 283 643 283 643 267 629.5 c 128,-1,9
 251 616 251 616 233 616 c 0,10,11
 214 616 214 616 203.5 629.5 c 128,-1,12
 193 643 193 643 196 661 c 0,13,14
 200 680 200 680 216.5 693 c 128,-1,15
 233 706 233 706 253 706 c 0,4,5
EndSplineSet
EndChar
StartChar: j
Encoding: 106 106 75
Width: 206
VWidth: 1494
Flags: W
HStem: -223 21G<-89 -63> 500 20G<180.787 239>
VStem: -105 389<-176 659 187.707 343.027> 194 90<640.179 694.121>
Fore
250 704 m 0,0,1
 269 704 269 704 278.5 691.5 c 128,-1,2
 288 679 288 679 284 659 c 0,3,4
 281 641 281 641 265.5 627.5 c 128,-1,5
 250 614 250 614 230 614 c 0,6,7
 212 614 212 614 201.5 627.5 c 128,-1,8
 191 641 191 641 194 659 c 0,9,10
 199 679 199 679 215.5 691.5 c 128,-1,11
 232 704 232 704 250 704 c 0,0,1
-90 -223 m 1,12,13
 -88 -223 -88 -223 -91 -215.5 c 128,-1,14
 -94 -208 -94 -208 -97 -199.5 c 128,-1,15
 -100 -191 -100 -191 -103 -183.5 c 128,-1,16
 -106 -176 -106 -176 -105 -176 c 0,17,18
 -48 -172 -48 -172 -16 -159 c 128,-1,19
 16 -146 16 -146 33.5 -124.5 c 128,-1,20
 51 -103 51 -103 59 -69.5 c 128,-1,21
 67 -36 67 -36 78 12 c 2,22,-1
 185 520 l 1,23,-1
 239 520 l 1,24,-1
 126 -15 l 2,25,26
 114 -67 114 -67 99.5 -104.5 c 128,-1,27
 85 -142 85 -142 60.5 -166 c 128,-1,28
 36 -190 36 -190 0 -203.5 c 128,-1,29
 -36 -217 -36 -217 -90 -223 c 1,12,13
EndSplineSet
EndChar
StartChar: k
Encoding: 107 107 76
Width: 463
VWidth: 1494
Flags: W
HStem: -15 21<75 134.173 387.392 454> 509 20G<453.488 525> 723 20G<227.774 287>
VStem: 75 450<0 510 342.496 759.404>
Fore
454 3 m 1,0,-1
 402 -15 l 1,1,-1
 188 278 l 1,2,-1
 130 0 l 1,3,-1
 75 0 l 1,4,-1
 232 743 l 1,5,-1
 287 743 l 1,6,-1
 199 324 l 1,7,-1
 481 529 l 1,8,-1
 525 510 l 1,9,-1
 242 302 l 1,10,-1
 454 3 l 1,0,-1
EndSplineSet
EndChar
StartChar: l
Encoding: 108 108 77
Width: 206
VWidth: 1494
Flags: W
HStem: 0 21G<76 134.238> 735 20G<238.556 290>
VStem: 76 214<0 755 1.53064e-18 1.53064e-18>
Fore
263 755 m 1,0,-1
 290 755 l 1,1,-1
 130 0 l 1,2,-1
 76 0 l 1,3,-1
 230 728 l 1,4,-1
 263 755 l 1,0,-1
EndSplineSet
EndChar
StartChar: m
Encoding: 109 109 78
Width: 811
VWidth: 1494
Flags: W
HStem: -12 21G<69 127.175 383 440.242 714.5 770> 469 53<292.502 422.43 606.626 742.96>
VStem: 158.5 55.5<433.517 439 439 467.624 490 493.37 494.622 504>
Fore
152 398 m 2,0,1
 157 422 157 422 158.5 439 c 128,-1,2
 160 456 160 456 159 468 c 128,-1,3
 158 480 158 480 156 488 c 128,-1,4
 152 504 l 1,5,-1
 208 523 l 1,6,7
 211 514 211 514 216 494 c 128,-1,8
 221 474 221 474 214 433 c 1,9,10
 244 474 244 474 288.5 498 c 128,-1,11
 333 522 333 522 378 522 c 0,12,13
 431 522 431 522 466.5 493.5 c 128,-1,14
 502 465 502 465 508 416 c 1,15,16
 537 463 537 463 586 492.5 c 128,-1,17
 635 522 635 522 688 522 c 0,18,19
 743 522 743 522 772 498.5 c 128,-1,20
 801 475 801 475 812.5 444 c 128,-1,21
 824 413 824 413 822.5 378.5 c 128,-1,22
 821 344 821 344 816 321 c 2,23,-1
 767 91 l 2,24,25
 761 61 761 61 764 35 c 128,-1,26
 767 9 767 9 770 7 c 1,27,-1
 716 -12 l 1,28,29
 713 -3 713 -3 708.5 22.5 c 128,-1,30
 704 48 704 48 713 91 c 2,31,-1
 765 333 l 2,32,33
 779 398 779 398 755 433.5 c 128,-1,34
 731 469 731 469 676 469 c 0,35,36
 641 469 641 469 612.5 455 c 128,-1,37
 584 441 584 441 561 417 c 128,-1,38
 538 393 538 393 522.5 361.5 c 128,-1,39
 507 330 507 330 499 297 c 2,40,-1
 436 0 l 1,41,-1
 383 0 l 1,42,-1
 453 333 l 2,43,44
 466 398 466 398 436.5 433.5 c 128,-1,45
 407 469 407 469 353 469 c 0,46,47
 318 469 318 469 291.5 455 c 128,-1,48
 265 441 265 441 243 417 c 128,-1,49
 221 393 221 393 207 361.5 c 128,-1,50
 193 330 193 330 185 297 c 2,51,-1
 123 0 l 1,52,-1
 69 0 l 1,53,-1
 152 398 l 2,0,1
EndSplineSet
EndChar
StartChar: n
Encoding: 110 110 79
Width: 509
VWidth: 1494
Flags: W
HStem: -15 21<69 128.214 411.5 466> 468 55<298.655 434.501>
VStem: 406 55<4.06836 19.5 19.5 80.0913>
Fore
152 399 m 2,0,1
 158 423 158 423 159.5 440 c 128,-1,2
 161 457 161 457 159.5 468.5 c 128,-1,3
 158 480 158 480 156 488 c 128,-1,4
 152 504 l 1,5,-1
 208 523 l 1,6,7
 211 514 211 514 217 493 c 128,-1,8
 223 472 223 472 214 429 c 1,9,10
 245 475 245 475 292 499 c 128,-1,11
 339 523 339 523 384 523 c 0,12,13
 439 523 439 523 468.5 501.5 c 128,-1,14
 498 480 498 480 510 449.5 c 128,-1,15
 522 419 522 419 522 386.5 c 128,-1,16
 522 354 522 354 517 332 c 2,17,-1
 465 88 l 2,18,19
 459 58 459 58 461 32 c 128,-1,20
 463 6 463 6 466 4 c 1,21,-1
 413 -15 l 1,22,23
 410 -6 410 -6 406 19.5 c 128,-1,24
 402 45 402 45 411 88 c 2,25,-1
 463 333 l 2,26,27
 477 399 477 399 448 433.5 c 128,-1,28
 419 468 419 468 362 468 c 0,29,30
 329 468 329 468 300 453.5 c 128,-1,31
 271 439 271 439 248.5 416 c 128,-1,32
 226 393 226 393 210 362.5 c 128,-1,33
 194 332 194 332 187 299 c 2,34,-1
 124 0 l 1,35,-1
 69 0 l 1,36,-1
 152 399 l 2,0,1
EndSplineSet
EndChar
StartChar: o
Encoding: 111 111 80
Width: 491
VWidth: 1494
Flags: W
HStem: -12 48<184.545 328.206> 472 48<268.934 412.826>
VStem: 78 52.5<108.486 234.135> 466.5 54.5<272.34 329 329 398.998>
Fore
354 520 m 256,0,1
 408 520 408 520 444 497 c 128,-1,2
 480 474 480 474 498.5 436.5 c 128,-1,3
 517 399 517 399 521 351 c 128,-1,4
 525 303 525 303 514 254 c 256,5,6
 504 205 504 205 480 157 c 128,-1,7
 456 109 456 109 421.5 71.5 c 128,-1,8
 387 34 387 34 341.5 11 c 128,-1,9
 296 -12 296 -12 242 -12 c 256,10,11
 188 -12 188 -12 153 11 c 128,-1,12
 118 34 118 34 99.5 71.5 c 128,-1,13
 81 109 81 109 78 157 c 128,-1,14
 75 205 75 205 85 254 c 256,15,16
 96 303 96 303 119 351 c 128,-1,17
 142 399 142 399 176.5 436.5 c 128,-1,18
 211 474 211 474 255.5 497 c 128,-1,19
 300 520 300 520 354 520 c 256,0,1
253 36 m 256,20,21
 293 36 293 36 327.5 56 c 128,-1,22
 362 76 362 76 389 107.5 c 128,-1,23
 416 139 416 139 433.5 178 c 128,-1,24
 451 217 451 217 460 254 c 0,25,26
 468 290 468 290 466.5 329 c 128,-1,27
 465 368 465 368 451.5 400 c 128,-1,28
 438 432 438 432 412 452 c 128,-1,29
 386 472 386 472 345 472 c 256,30,31
 305 472 305 472 270 452 c 128,-1,32
 235 432 235 432 208 400.5 c 128,-1,33
 181 369 181 369 163 330 c 128,-1,34
 145 291 145 291 138 254 c 0,35,36
 129 217 129 217 130.5 178 c 128,-1,37
 132 139 132 139 145 107.5 c 128,-1,38
 158 76 158 76 185 56 c 128,-1,39
 212 36 212 36 253 36 c 256,20,21
EndSplineSet
EndChar
StartChar: p
Encoding: 112 112 81
Width: 533
VWidth: 1494
Flags: W
HStem: -235 21G<-4 44> -13 53<221.843 368.851> 471 54<303.903 451.826>
VStem: 505.5 52.5<280.469 398.514>
Fore
290 40 m 0,0,1
 333 40 333 40 368.5 60.5 c 128,-1,2
 404 81 404 81 430 112.5 c 128,-1,3
 456 144 456 144 474 182 c 128,-1,4
 492 220 492 220 499 256 c 256,5,6
 507 291 507 291 505.5 329.5 c 128,-1,7
 504 368 504 368 490.5 399.5 c 128,-1,8
 477 431 477 431 451 451 c 128,-1,9
 425 471 425 471 381 471 c 0,10,11
 341 471 341 471 308 454.5 c 128,-1,12
 275 438 275 438 249 411 c 128,-1,13
 223 384 223 384 204 350.5 c 128,-1,14
 185 317 185 317 175 284 c 2,15,-1
 163 226 l 2,16,17
 160 193 160 193 164.5 160 c 128,-1,18
 169 127 169 127 184 100 c 128,-1,19
 199 73 199 73 225 56.5 c 128,-1,20
 251 40 251 40 290 40 c 0,0,1
142 393 m 2,21,22
 154 442 154 442 150 464.5 c 128,-1,23
 146 487 146 487 144 504 c 1,24,-1
 197 523 l 1,25,26
 200 514 200 514 207 492.5 c 128,-1,27
 214 471 214 471 203 428 c 1,28,29
 238 471 238 471 286.5 498 c 128,-1,30
 335 525 335 525 393 525 c 0,31,32
 447 525 447 525 483 501.5 c 128,-1,33
 519 478 519 478 537 440 c 128,-1,34
 555 402 555 402 558 353.5 c 128,-1,35
 561 305 561 305 550 256 c 0,36,37
 540 205 540 205 516.5 157 c 128,-1,38
 493 109 493 109 459 71 c 128,-1,39
 425 33 425 33 379 10 c 128,-1,40
 333 -13 333 -13 280 -13 c 0,41,42
 221 -13 221 -13 184.5 12 c 128,-1,43
 148 37 148 37 132 79 c 1,44,-1
 87 -132 l 2,45,46
 78 -175 78 -175 63 -200.5 c 128,-1,47
 48 -226 48 -226 40 -235 c 1,48,-1
 -4 -215 l 1,49,50
 -1 -214 -1 -214 11.5 -187.5 c 128,-1,51
 24 -161 24 -161 31 -132 c 2,52,-1
 142 393 l 2,21,22
EndSplineSet
EndChar
StartChar: q
Encoding: 113 113 82
Width: 541
VWidth: 1494
Flags: W
HStem: -235 21G<396.5 453> -13 53<194.772 341.699> 471 54<276.158 425.24>
VStem: 90 51.5<113.486 157 157 235.405> 391 56<-214.963 -200.5 -200.5 -139.909>
Fore
265 40 m 0,0,1
 303 40 303 40 337 56.5 c 128,-1,2
 371 73 371 73 397 100 c 128,-1,3
 423 127 423 127 441.5 160 c 128,-1,4
 460 193 460 193 472 226 c 1,5,-1
 484 284 l 2,6,7
 489 317 489 317 483.5 350.5 c 128,-1,8
 478 384 478 384 463 411 c 128,-1,9
 448 438 448 438 422 454.5 c 128,-1,10
 396 471 396 471 356 471 c 0,11,12
 312 471 312 471 277 451 c 128,-1,13
 242 431 242 431 216 399.5 c 128,-1,14
 190 368 190 368 172.5 329.5 c 128,-1,15
 155 291 155 291 148 256 c 256,16,17
 141 220 141 220 141.5 182 c 128,-1,18
 142 144 142 144 155.5 112.5 c 128,-1,19
 169 81 169 81 195 60.5 c 128,-1,20
 221 40 221 40 265 40 c 0,0,1
451 -132 m 2,21,22
 444 -161 444 -161 447 -187.5 c 128,-1,23
 450 -214 450 -214 453 -215 c 1,24,-1
 398 -235 l 1,25,26
 395 -226 395 -226 391 -200.5 c 128,-1,27
 387 -175 387 -175 396 -132 c 2,28,-1
 441 79 l 1,29,30
 407 37 407 37 359.5 12 c 128,-1,31
 312 -13 312 -13 254 -13 c 0,32,33
 200 -13 200 -13 164.5 10 c 128,-1,34
 129 33 129 33 111 71 c 128,-1,35
 93 109 93 109 90 157 c 128,-1,36
 87 205 87 205 97 256 c 0,37,38
 108 305 108 305 131 353.5 c 128,-1,39
 154 402 154 402 188.5 440 c 128,-1,40
 223 478 223 478 268.5 501.5 c 128,-1,41
 314 525 314 525 368 525 c 0,42,43
 426 525 426 525 462.5 497 c 128,-1,44
 499 469 499 469 516 426 c 1,45,46
 525 469 525 469 540 491.5 c 128,-1,47
 555 514 555 514 562 523 c 1,48,-1
 608 504 l 1,49,50
 598 487 598 487 586 464.5 c 128,-1,51
 574 442 574 442 562 393 c 2,52,-1
 451 -132 l 2,21,22
EndSplineSet
EndChar
StartChar: r
Encoding: 114 114 83
Width: 331
VWidth: 1494
Flags: W
HStem: 0 21G<70 130.111> 469 58.5<332.381 401.342>
Fore
152 393 m 2,0,1
 164 442 164 442 160.5 464.5 c 128,-1,2
 157 487 157 487 154 504 c 1,3,-1
 208 523 l 1,4,5
 211 514 211 514 216 482 c 128,-1,6
 221 450 221 450 208 410 c 1,7,8
 223 450 223 450 249 477 c 128,-1,9
 275 504 275 504 307 516.5 c 128,-1,10
 339 529 339 529 373.5 527.5 c 128,-1,11
 408 526 408 526 441 510 c 1,12,-1
 402 457 l 1,13,14
 381 469 381 469 351 469 c 128,-1,15
 321 469 321 469 290.5 451 c 128,-1,16
 260 433 260 433 231.5 393.5 c 128,-1,17
 203 354 203 354 185 287 c 2,18,-1
 126 0 l 1,19,-1
 70 0 l 1,20,-1
 152 393 l 2,0,1
EndSplineSet
EndChar
StartChar: s
Encoding: 115 115 84
Width: 424
VWidth: 1494
Flags: W
HStem: -13 49<155.104 311.926> 477 52<237.23 391.748>
VStem: 30 436<55 483 55 55>
Fore
425 133 m 0,0,1
 411 69 411 69 356.5 28.5 c 128,-1,2
 302 -12 302 -12 206 -13 c 0,3,4
 167 -13 167 -13 138 -6.5 c 128,-1,5
 109 0 109 0 89 9.5 c 128,-1,6
 69 19 69 19 54.5 32 c 128,-1,7
 40 45 40 45 30 55 c 1,8,-1
 78 96 l 1,9,10
 94 76 94 76 127 55 c 128,-1,11
 160 34 160 34 218 36 c 256,12,13
 277 37 277 37 317 60.5 c 128,-1,14
 357 84 357 84 366 123 c 0,15,16
 375 164 375 164 349.5 186 c 128,-1,17
 324 208 324 208 245 238 c 0,18,19
 176 265 176 265 143.5 300.5 c 128,-1,20
 111 336 111 336 121 384 c 0,21,22
 127 411 127 411 143.5 437 c 128,-1,23
 160 463 160 463 186 483.5 c 128,-1,24
 212 504 212 504 246.5 516.5 c 128,-1,25
 281 529 281 529 323 529 c 0,26,27
 362 529 362 529 404.5 514 c 128,-1,28
 447 499 447 499 466 483 c 1,29,-1
 432 433 l 1,30,31
 422 442 422 442 388 459.5 c 128,-1,32
 354 477 354 477 309 477 c 0,33,34
 257 477 257 477 222.5 452.5 c 128,-1,35
 188 428 188 428 181 392 c 0,36,37
 173 351 173 351 203 329.5 c 128,-1,38
 233 308 233 308 291 284 c 0,39,40
 324 271 324 271 352 257.5 c 128,-1,41
 380 244 380 244 398 226.5 c 128,-1,42
 416 209 416 209 423.5 186.5 c 128,-1,43
 431 164 431 164 425 133 c 0,0,1
EndSplineSet
EndChar
StartChar: t
Encoding: 116 116 85
Width: 298
VWidth: 1494
Flags: W
HStem: -13 52<174.056 231.083 219.886 242.281 242.281 250.5> 475 45<132 193 256 356 111 377 132 132>
Fore
224 39 m 0,0,1
 238 39 238 39 250.5 43.5 c 128,-1,2
 263 48 263 48 274 51 c 1,3,-1
 280 0 l 1,4,5
 263 -3 263 -3 241.5 -8 c 128,-1,6
 220 -13 220 -13 205 -13 c 0,7,8
 161 -13 161 -13 141 1 c 128,-1,9
 121 15 121 15 114.5 36.5 c 128,-1,10
 108 58 108 58 111.5 84.5 c 128,-1,11
 115 111 115 111 121 136 c 2,12,-1
 193 475 l 1,13,-1
 111 475 l 1,14,-1
 132 520 l 1,15,-1
 202 520 l 1,16,-1
 230 649 l 1,17,-1
 271 676 l 1,18,-1
 290 676 l 1,19,-1
 256 520 l 1,20,-1
 377 520 l 1,21,-1
 356 475 l 1,22,-1
 247 475 l 1,23,-1
 170 114 l 2,24,25
 160 67 160 67 176.5 53 c 128,-1,26
 193 39 193 39 224 39 c 0,0,1
EndSplineSet
EndChar
StartChar: u
Encoding: 117 117 86
Width: 530
VWidth: 1494
Flags: W
HStem: -13 49<190.496 329.523> 500 20G<170.789 229 505.728 565>
VStem: 99.5 465.5<123 520 123.365 159.504>
Fore
478 112 m 2,0,1
 468 63 468 63 471.5 40.5 c 128,-1,2
 475 18 475 18 478 1 c 1,3,-1
 425 -18 l 1,4,5
 422 -9 422 -9 415 11 c 128,-1,6
 408 31 408 31 417 75 c 1,7,8
 384 28 384 28 335.5 7.5 c 128,-1,9
 287 -13 287 -13 242 -13 c 0,10,11
 187 -13 187 -13 157 8.5 c 128,-1,12
 127 30 127 30 113.5 60.5 c 128,-1,13
 100 91 100 91 99.5 123 c 128,-1,14
 99 155 99 155 103 178 c 2,15,-1
 175 520 l 1,16,-1
 229 520 l 1,17,-1
 157 176 l 2,18,19
 142 111 142 111 174 73.5 c 128,-1,20
 206 36 206 36 263 36 c 0,21,22
 296 36 296 36 326 51 c 128,-1,23
 356 66 356 66 380 90.5 c 128,-1,24
 404 115 404 115 420 146.5 c 128,-1,25
 436 178 436 178 444 211 c 2,26,-1
 510 520 l 1,27,-1
 565 520 l 1,28,-1
 478 112 l 2,0,1
EndSplineSet
EndChar
StartChar: v
Encoding: 118 118 87
Width: 500
VWidth: 1494
Flags: W
HStem: 508 20G<138 199.153 514.288 580>
VStem: 138 442<517 517 265.901 517>
Fore
526 528 m 1,0,-1
 580 517 l 1,1,2
 493 372 493 372 426 259 c 0,3,4
 398 209 398 209 370 163 c 128,-1,5
 342 117 342 117 320.5 81 c 128,-1,6
 299 45 299 45 286.5 23 c 128,-1,7
 274 1 274 1 274 0 c 1,8,9
 268 -12 268 -12 256 -14 c 128,-1,10
 244 -16 244 -16 233.5 -11.5 c 128,-1,11
 223 -7 223 -7 217 0 c 128,-1,12
 211 7 211 7 218 16 c 2,13,-1
 223 22 l 1,14,-1
 138 517 l 1,15,-1
 196 528 l 1,16,-1
 266 84 l 1,17,-1
 526 528 l 1,0,-1
EndSplineSet
EndChar
StartChar: w
Encoding: 119 119 88
Width: 777
VWidth: 1494
Flags: W
HStem: 514 20G<139 198.956 790.646 854>
Fore
478 516 m 2,0,1
 484 525 484 525 494.5 525.5 c 128,-1,2
 505 526 505 526 515 522.5 c 128,-1,3
 525 519 525 519 529.5 512 c 128,-1,4
 534 505 534 505 528 496 c 1,5,-1
 519 477 l 1,6,-1
 567 82 l 1,7,-1
 801 534 l 1,8,-1
 854 520 l 1,9,-1
 593 30 l 1,10,-1
 595 15 l 2,11,12
 595 4 595 4 584 -1.5 c 128,-1,13
 573 -7 573 -7 559.5 -8 c 128,-1,14
 546 -9 546 -9 534.5 -4.5 c 128,-1,15
 523 0 523 0 526 12 c 1,16,-1
 474 413 l 1,17,-1
 250 12 l 1,18,19
 247 0 247 0 235 -4.5 c 128,-1,20
 223 -9 223 -9 209.5 -8 c 128,-1,21
 196 -7 196 -7 187.5 -1.5 c 128,-1,22
 179 4 179 4 184 15 c 2,23,-1
 191 30 l 1,24,-1
 139 519 l 1,25,-1
 197 532 l 1,26,-1
 241 82 l 1,27,-1
 478 516 l 2,0,1
EndSplineSet
EndChar
StartChar: x
Encoding: 120 120 89
Width: 496
VWidth: 1494
Flags: W
HStem: -9 21G<52.0588 94.207 403.339 444.588> 517 20G<157.5 200 512.345 554.125>
Fore
332 259 m 1,0,-1
 466 25 l 1,1,-1
 414 -9 l 1,2,-1
 293 218 l 1,3,-1
 75 -9 l 1,4,-1
 36 25 l 1,5,-1
 268 259 l 1,6,-1
 138 505 l 1,7,-1
 190 537 l 1,8,-1
 309 299 l 1,9,-1
 531 537 l 1,10,-1
 568 505 l 1,11,-1
 332 259 l 1,0,-1
EndSplineSet
EndChar
StartChar: y
Encoding: 121 121 90
Width: 517
VWidth: 1494
Flags: W
HStem: -235 21G<37.5 44.5> 515 20G<149 202.744 538.282 585.833>
Fore
227 -105 m 0,0,1
 211 -132 211 -132 192 -152 c 128,-1,2
 173 -172 173 -172 148 -188 c 0,3,4
 108 -212 108 -212 78.5 -221 c 128,-1,5
 49 -230 49 -230 40 -235 c 1,6,-1
 34 -187 l 1,7,8
 78 -170 78 -170 105 -157.5 c 128,-1,9
 132 -145 132 -145 152.5 -125 c 128,-1,10
 173 -105 173 -105 192.5 -72.5 c 128,-1,11
 212 -40 212 -40 239 15 c 1,12,-1
 139 511 l 1,13,-1
 199 535 l 1,14,-1
 284 81 l 1,15,-1
 550 535 l 1,16,-1
 593 511 l 1,17,18
 577.5 484 l 2,19,20
 562 457 562 457 536.5 414 c 128,-1,21
 511 371 511 371 478 316.5 c 128,-1,22
 445 262 445 262 411.5 204 c 128,-1,23
 378 146 378 146 345 91 c 128,-1,24
 312 36 312 36 286 -7.5 c 128,-1,25
 260 -51 260 -51 244.5 -77 c 128,-1,26
 229 -103 229 -103 227 -105 c 0,0,1
EndSplineSet
EndChar
StartChar: z
Encoding: 122 122 91
Width: 464
VWidth: 1494
Flags: W
HStem: 0 52<46.4795 57 124 432> 466 54<157 448 517 527.3>
Fore
46 0 m 2,0,1
 37 0 37 0 34 8 c 128,-1,2
 31 16 31 16 33.5 26 c 128,-1,3
 36 36 36 36 42 44 c 128,-1,4
 48 52 48 52 57 52 c 1,5,-1
 448 466 l 1,6,-1
 146 466 l 1,7,-1
 157 520 l 1,8,-1
 528 520 l 2,9,10
 537 520 537 520 540 512 c 128,-1,11
 543 504 543 504 540.5 493.5 c 128,-1,12
 538 483 538 483 532 474.5 c 128,-1,13
 526 466 526 466 517 466 c 1,14,-1
 124 52 l 1,15,-1
 442 52 l 1,16,-1
 432 0 l 1,17,-1
 46 0 l 2,0,1
EndSplineSet
EndChar
StartChar: braceleft
Encoding: 123 123 92
Width: 273
VWidth: 1494
Flags: W
HStem: -152 19<145 179> 753 20<332 368>
VStem: 64 322<-82 773 389.362 769.633>
Fore
179 -133 m 1,0,-1
 190 -152 l 1,1,-1
 118 -152 l 2,2,3
 87 -152 87 -152 72.5 -130 c 128,-1,4
 58 -108 58 -108 64 -82 c 2,5,-1
 133 239 l 2,6,7
 136 259 136 259 133 275 c 128,-1,8
 130 291 130 291 111 299 c 1,9,-1
 117 321 l 1,10,11
 135 329 135 329 146.5 345.5 c 128,-1,12
 158 362 158 362 163 381 c 2,13,-1
 230 703 l 2,14,15
 236 728 236 728 259.5 750.5 c 128,-1,16
 283 773 283 773 314 773 c 2,17,-1
 386 773 l 1,18,-1
 368 753 l 1,19,-1
 332 750 l 1,20,21
 320 747 320 747 303.5 738 c 128,-1,22
 287 729 287 729 283 704 c 2,23,-1
 215 389 l 2,24,25
 212 377 212 377 204 363.5 c 128,-1,26
 196 350 196 350 185.5 338 c 128,-1,27
 175 326 175 326 165 318.5 c 128,-1,28
 155 311 155 311 149 309 c 1,29,30
 161 308 161 308 174 282.5 c 128,-1,31
 187 257 187 257 181 232 c 2,32,-1
 115 -84 l 2,33,34
 109 -109 109 -109 121 -118 c 128,-1,35
 133 -127 133 -127 145 -130 c 1,36,-1
 179 -133 l 1,0,-1
EndSplineSet
EndChar
StartChar: bar
Encoding: 124 124 93
Width: 194
VWidth: 1494
Flags: W
HStem: 0 21G<82 128.231> 689 20G<227.769 274>
VStem: 82 192<0 709 1.53064e-18 1.53064e-18>
Fore
274 709 m 1,0,-1
 124 0 l 1,1,-1
 82 0 l 1,2,-1
 232 709 l 1,3,-1
 274 709 l 1,0,-1
EndSplineSet
EndChar
StartChar: braceright
Encoding: 125 125 94
Width: 281
VWidth: 1494
Flags: W
HStem: -152 19<40 75> 753 20<229 262>
VStem: 21 321<-152 703 63.3772 191.898>
Fore
75 -130 m 1,0,1
 87 -127 87 -127 103.5 -118 c 128,-1,2
 120 -109 120 -109 126 -84 c 2,3,-1
 191 232 l 2,4,5
 194 244 194 244 202.5 257.5 c 128,-1,6
 211 271 211 271 220.5 282 c 128,-1,7
 230 293 230 293 240 301 c 128,-1,8
 250 309 250 309 256 309 c 1,9,10
 245 312 245 312 232.5 337.5 c 128,-1,11
 220 363 220 363 226 389 c 2,12,-1
 293 704 l 2,13,14
 297 729 297 729 285.5 738 c 128,-1,15
 274 747 274 747 262 750 c 1,16,-1
 229 753 l 1,17,-1
 217 773 l 1,18,-1
 288 773 l 2,19,20
 320 773 320 773 334 750.5 c 128,-1,21
 348 728 348 728 342 703 c 2,22,-1
 275 381 l 2,23,24
 271 362 271 362 274.5 345.5 c 128,-1,25
 278 329 278 329 294 321 c 1,26,-1
 291 299 l 1,27,28
 271 291 271 291 259.5 275 c 128,-1,29
 248 259 248 259 245 239 c 2,30,-1
 176 -82 l 2,31,32
 170 -108 170 -108 147 -130 c 128,-1,33
 124 -152 124 -152 93 -152 c 2,34,-1
 21 -152 l 1,35,-1
 40 -133 l 1,36,-1
 75 -130 l 1,0,1
EndSplineSet
EndChar
StartChar: asciitilde
Encoding: 126 126 95
Width: 606
VWidth: 1494
Flags: W
HStem: 197 57<423.945 507.165> 265 58<197.587 291.85>
Fore
613 297 m 1,0,1
 583 259 583 259 545 228 c 128,-1,2
 507 197 507 197 454 197 c 0,3,4
 428 197 428 197 403 207.5 c 128,-1,5
 378 218 378 218 354 231 c 128,-1,6
 330 244 330 244 307 254.5 c 128,-1,7
 284 265 284 265 260 265 c 0,8,9
 220 265 220 265 187 235 c 128,-1,10
 154 205 154 205 133 176 c 1,11,-1
 112 227 l 1,12,13
 141 260 141 260 179 291.5 c 128,-1,14
 217 323 217 323 271 323 c 0,15,16
 293 323 293 323 319 312.5 c 128,-1,17
 345 302 345 302 371.5 288.5 c 128,-1,18
 398 275 398 275 423 264.5 c 128,-1,19
 448 254 448 254 469 254 c 0,20,21
 486 254 486 254 502.5 262.5 c 128,-1,22
 519 271 519 271 534.5 283.5 c 128,-1,23
 550 296 550 296 563.5 310 c 128,-1,24
 577 324 577 324 586 338 c 1,25,-1
 613 297 l 1,0,1
EndSplineSet
EndChar
StartChar: uni0E33.alt1
Encoding: 65539 -1 96
Width: 521
VWidth: 1494
Flags: W
HStem: 0 21G<378 440.266> 556 54<277.339 401.418> 692 52<-179.761 -93.9133> 860 52<-163.3 -77.0341>
VStem: -70 52<764.773 834.781> 121 55<408.014 447.728>
Fore
-238 803 m 0,0,1
 -229 848 -229 848 -190 880 c 128,-1,2
 -151 912 -151 912 -105 912 c 0,3,4
 -60 912 -60 912 -34.5 880 c 128,-1,5
 -9 848 -9 848 -18 803 c 0,6,7
 -28 756 -28 756 -67 724 c 128,-1,8
 -106 692 -106 692 -151 692 c 0,9,10
 -197 692 -197 692 -222.5 724 c 128,-1,11
 -248 756 -248 756 -238 803 c 0,0,1
-141 744 m 0,12,13
 -117 744 -117 744 -96.5 760.5 c 128,-1,14
 -76 777 -76 777 -70 803 c 0,15,16
 -66 827 -66 827 -78.5 843.5 c 128,-1,17
 -91 860 -91 860 -115 860 c 0,18,19
 -141 860 -141 860 -161 843.5 c 128,-1,20
 -181 827 -181 827 -185 803 c 0,21,22
 -191 777 -191 777 -178.5 760.5 c 128,-1,23
 -166 744 -166 744 -141 744 c 0,12,13
436 0 m 1,24,-1
 378 0 l 1,25,-1
 472 447 l 2,26,27
 475 456 475 456 477.5 463.5 c 128,-1,28
 480 471 480 471 487 478 c 1,29,30
 483 489 483 489 474 502.5 c 128,-1,31
 465 516 465 516 449 528 c 128,-1,32
 433 540 433 540 410 548 c 128,-1,33
 387 556 387 556 356 556 c 0,34,35
 287 556 287 556 243 509.5 c 128,-1,36
 199 463 199 463 176 392 c 1,37,-1
 121 392 l 1,38,39
 135 438 135 438 157 477.5 c 128,-1,40
 179 517 179 517 210 546 c 128,-1,41
 241 575 241 575 280.5 592.5 c 128,-1,42
 320 610 320 610 366 610 c 0,43,44
 404 610 404 610 432 601.5 c 128,-1,45
 460 593 460 593 480.5 580.5 c 128,-1,46
 501 568 501 568 513 552.5 c 128,-1,47
 525 537 525 537 529 522 c 1,48,49
 532 525 532 525 540.5 523.5 c 128,-1,50
 549 522 549 522 558 510 c 0,51,52
 568 493 568 493 563 485.5 c 128,-1,53
 558 478 558 478 546 468 c 0,54,55
 534 459 534 459 529 436 c 2,56,-1
 436 0 l 1,24,-1
EndSplineSet
EndChar
StartChar: quotedbl
Encoding: 34 34 97
Width: 300
VWidth: 1494
Flags: W
HStem: 460 241<199 203 329 333>
VStem: 163 40<465.91 495.176> 293 40<465.91 495.176>
Fore
333 460 m 1,0,-1
 293 460 l 1,1,-1
 329 701 l 1,2,-1
 399 701 l 1,3,-1
 333 460 l 1,0,-1
203 460 m 1,4,-1
 163 460 l 1,5,-1
 199 701 l 1,6,-1
 269 701 l 1,7,-1
 203 460 l 1,4,-1
EndSplineSet
EndChar
StartChar: exclam
Encoding: 33 33 98
Width: 340
VWidth: 1494
Flags: W
HStem: 0 99<157.563 211.984> 689 20G<283.296 360>
VStem: 135 100<29.6826 88.4863> 187 48<177.74 256.581> 287 73<643.452 709>
Fore
187 169 m 1,0,-1
 287 709 l 1,1,-1
 360 709 l 1,2,-1
 235 169 l 1,3,-1
 187 169 l 1,0,-1
235 51 m 0,4,5
 229 28 229 28 212.5 14 c 128,-1,6
 196 0 196 0 176 0 c 0,7,8
 154 0 154 0 141.5 14 c 128,-1,9
 129 28 129 28 135 51 c 0,10,11
 139 72 139 72 157 85.5 c 128,-1,12
 175 99 175 99 197 99 c 0,13,14
 217 99 217 99 228 85.5 c 128,-1,15
 239 72 239 72 235 51 c 0,4,5
EndSplineSet
EndChar
StartChar: uni0E4E.alt1
Encoding: 65540 -1 99
Width: 0
VWidth: 1494
Flags: W
HStem: 665 55<-124.18 -86.0175> 988 14<24.6124 84>
VStem: -218 327<749 988 749 749>
Fore
109 988 m 1,0,1
 63 987 63 987 17.5 963 c 128,-1,2
 -28 939 -28 939 -35 902 c 128,-1,3
 -42 865 -42 865 0 855 c 1,4,-1
 -16 821 l 1,5,6
 -130 821 -130 821 -155 755 c 1,7,8
 -164 713 -164 713 -124.5 708.5 c 128,-1,9
 -85 704 -85 704 -52 720 c 1,10,-1
 -76 665 l 1,11,12
 -135 646 -135 646 -183.5 664 c 128,-1,13
 -232 682 -232 682 -218 749 c 1,14,15
 -187 837 -187 837 -69 851 c 1,16,17
 -100 894 -100 894 -83 930.5 c 128,-1,18
 -66 967 -66 967 -22.5 985 c 128,-1,19
 21 1003 21 1003 84 1002 c 1,20,-1
 109 988 l 1,0,1
EndSplineSet
EndChar
StartChar: exclamdown
Encoding: 161 161 100
Width: 231
VWidth: 1494
Flags: W
HStem: 419 98<185.564 240.953>
VStem: 34 74<-183.11 -121.124> 163 100<433.439 503.076> 163 48<266.124 342>
Fore
211 342 m 1,0,-1
 108 -197 l 1,1,-1
 34 -197 l 1,2,-1
 163 342 l 1,3,-1
 211 342 l 1,0,-1
263 469 m 0,4,5
 259 447 259 447 241.5 433 c 128,-1,6
 224 419 224 419 205 419 c 0,7,8
 182 419 182 419 170 433 c 128,-1,9
 158 447 158 447 163 469 c 0,10,11
 167 490 167 490 185 503.5 c 128,-1,12
 203 517 203 517 226 517 c 0,13,14
 245 517 245 517 256.5 503.5 c 128,-1,15
 268 490 268 490 263 469 c 0,4,5
EndSplineSet
EndChar
StartChar: cent
Encoding: 162 162 101
Width: 494
VWidth: 1494
Flags: W
HStem: 0 21G<262 297.235> 92 53<266.174 272.774 321 355.438> 558 49<338.406 364 364 373.141 373.141 380 423 472.404>
VStem: 132 405<241.5 561 241.5 275.938>
Fore
438 689 m 1,0,-1
 423 613 l 1,1,2
 456 610 456 610 486 598 c 128,-1,3
 516 586 516 586 537 561 c 1,4,-1
 502 507 l 1,5,6
 469 555 469 555 411 559 c 1,7,-1
 321 139 l 1,8,9
 350 139 350 139 379 148.5 c 128,-1,10
 408 158 408 158 435 184 c 1,11,-1
 460 148 l 1,12,13
 428 115 428 115 389 101 c 128,-1,14
 350 87 350 87 311 85 c 1,15,-1
 293 0 l 1,16,-1
 262 0 l 1,17,-1
 280 87 l 1,18,19
 266 90 266 90 255 92 c 128,-1,20
 244 94 244 94 232 99 c 0,21,22
 214 106 214 106 191.5 122.5 c 128,-1,23
 169 139 169 139 153.5 168 c 128,-1,24
 138 197 138 197 132 241.5 c 128,-1,25
 126 286 126 286 139 350 c 256,26,27
 152 414 152 414 177 458 c 128,-1,28
 202 502 202 502 230.5 531.5 c 128,-1,29
 259 561 259 561 287 576.5 c 128,-1,30
 315 592 315 592 338 599 c 0,31,32
 351 604 351 604 364 607 c 128,-1,33
 377 610 377 610 390 611 c 1,34,-1
 407 689 l 1,35,-1
 438 689 l 1,0,-1
260 149 m 0,36,37
 268 146 268 146 275.5 145 c 128,-1,38
 283 144 283 144 290 141 c 1,39,-1
 380 558 l 1,40,41
 308 547 308 547 259.5 491 c 128,-1,42
 211 435 211 435 193 350 c 0,43,44
 176 274 176 274 194 221.5 c 128,-1,45
 212 169 212 169 260 149 c 0,36,37
EndSplineSet
EndChar
StartChar: sterling
Encoding: 163 163 102
Width: 571
VWidth: 1494
Flags: W
HStem: 0 51<166 516> 333 45<155 263 320 466> 607 21G<604 623.043> 664 48<407.827 568.885>
VStem: 263 54<290.918 333 378 406.181 406.181 429.242 438.547 469.119 469.119 569.786>
Fore
63 0 m 1,0,-1
 70 37 l 1,1,2
 126 66 126 66 162.5 98 c 128,-1,3
 199 130 199 130 220 167.5 c 128,-1,4
 241 205 241 205 250.5 246 c 128,-1,5
 260 287 260 287 263 333 c 1,6,-1
 135 333 l 1,7,-1
 155 378 l 1,8,-1
 266 378 l 1,9,10
 266 404 266 404 261.5 437.5 c 128,-1,11
 257 471 257 471 263 505 c 0,12,13
 283 608 283 608 351.5 660 c 128,-1,14
 420 712 420 712 507 712 c 0,15,16
 553 712 553 712 589 693 c 128,-1,17
 625 674 625 674 640 653 c 1,18,-1
 610 607 l 1,19,20
 598 628 598 628 566 646 c 128,-1,21
 534 664 534 664 495 664 c 0,22,23
 423 664 423 664 376 619.5 c 128,-1,24
 329 575 329 575 318 504 c 0,25,26
 314 465 314 465 317 434.5 c 128,-1,27
 320 404 320 404 320 378 c 1,28,-1
 487 378 l 1,29,-1
 466 333 l 1,30,-1
 317 333 l 1,31,32
 317 297 317 297 306.5 256 c 128,-1,33
 296 215 296 215 276 177 c 128,-1,34
 256 139 256 139 228 105.5 c 128,-1,35
 200 72 200 72 166 51 c 1,36,-1
 526 51 l 1,37,-1
 516 0 l 1,38,-1
 63 0 l 1,0,-1
EndSplineSet
EndChar
StartChar: currency
Encoding: 164 164 103
Width: 657
VWidth: 1494
Flags: W
HStem: 154 48<313.443 402.604> 490 48<404.134 491.867>
Fore
595 345 m 256,0,1
 587 311 587 311 568 280.5 c 128,-1,2
 549 250 549 250 523 224 c 1,3,-1
 595 136 l 1,4,-1
 561 108 l 1,5,-1
 489 194 l 1,6,7
 462 176 462 176 429 165 c 128,-1,8
 396 154 396 154 362 154 c 256,9,10
 327 154 327 154 299.5 166 c 128,-1,11
 272 178 272 178 253 197 c 1,12,-1
 141 108 l 1,13,-1
 120 136 l 1,14,-1
 229 226 l 1,15,16
 215 250 215 250 210 280.5 c 128,-1,17
 205 311 205 311 212 345 c 256,18,19
 220 380 220 380 236.5 409.5 c 128,-1,20
 253 439 253 439 277 463 c 1,21,-1
 208 552 l 1,22,-1
 241 580 l 1,23,-1
 312 493 l 1,24,25
 341 514 341 514 375.5 526 c 128,-1,26
 410 538 410 538 444 538 c 256,27,28
 478 538 478 538 506 526 c 128,-1,29
 534 514 534 514 555 495 c 1,30,-1
 661 580 l 1,31,-1
 683 552 l 1,32,-1
 578 466 l 1,33,34
 590 441 590 441 596 410.5 c 128,-1,35
 602 380 602 380 595 345 c 256,0,1
372 202 m 0,36,37
 402 202 402 202 430.5 213 c 128,-1,38
 459 224 459 224 483 243.5 c 128,-1,39
 507 263 507 263 523.5 289 c 128,-1,40
 540 315 540 315 547 345 c 0,41,42
 559 407 559 407 526 448.5 c 128,-1,43
 493 490 493 490 433 490 c 0,44,45
 404 490 404 490 375.5 479 c 128,-1,46
 347 468 347 468 323 448.5 c 128,-1,47
 299 429 299 429 282.5 402 c 128,-1,48
 266 375 266 375 260 345 c 0,49,50
 247 286 247 286 279.5 244 c 128,-1,51
 312 202 312 202 372 202 c 0,36,37
EndSplineSet
EndChar
StartChar: yen
Encoding: 165 165 104
Width: 571
VWidth: 1494
Flags: W
HStem: -4 21G<253 315.216> 200 47<129 296 365 537> 339 42<157 299 429 567> 698 20G<197.667 242.821 640 669.667>
Fore
429 381 m 1,0,-1
 575 381 l 1,1,-1
 567 339 l 1,2,-1
 395 339 l 1,3,-1
 380 320 l 1,4,-1
 365 247 l 1,5,-1
 547 247 l 1,6,-1
 537 200 l 1,7,-1
 354 200 l 1,8,-1
 311 -4 l 1,9,-1
 253 -4 l 1,10,-1
 296 200 l 1,11,-1
 118 200 l 1,12,-1
 129 247 l 1,13,-1
 306 247 l 1,14,-1
 321 320 l 1,15,-1
 315 339 l 1,16,-1
 148 339 l 1,17,-1
 157 381 l 1,18,-1
 299 381 l 1,19,20
 257 486 257 486 234.5 542.5 c 128,-1,21
 212 599 212 599 201 628.5 c 128,-1,22
 190 658 190 658 187 668.5 c 128,-1,23
 184 679 184 679 179 688 c 1,24,-1
 235 718 l 1,25,-1
 366 383 l 1,26,27
 428 459 428 459 470.5 512 c 128,-1,28
 513 565 513 565 542 600 c 128,-1,29
 571 635 571 635 588 655.5 c 128,-1,30
 605 676 605 676 615.5 687 c 128,-1,31
 626 698 626 698 631.5 704 c 128,-1,32
 637 710 637 710 643 718 c 1,33,-1
 683 688 l 1,34,-1
 429 381 l 1,0,-1
EndSplineSet
EndChar
StartChar: brokenbar
Encoding: 166 166 105
Width: 261
VWidth: 1494
Flags: W
HStem: 695 20G<252.761 309>
VStem: 66 243<-190 715 -179.145 186.174>
Fore
232 347 m 1,0,-1
 179 347 l 1,1,-1
 257 715 l 1,2,-1
 309 715 l 1,3,-1
 232 347 l 1,0,-1
118 -190 m 1,4,-1
 66 -190 l 1,5,-1
 144 178 l 1,6,-1
 196 178 l 1,7,-1
 118 -190 l 1,4,-1
EndSplineSet
EndChar
StartChar: section
Encoding: 167 167 106
Width: 571
VWidth: 1494
Flags: W
HStem: -60 47<179.393 328.092> 688 43<355.038 521.772>
VStem: 108 488<-10 692 -10 -10>
Fore
553 321 m 0,0,1
 546 281 546 281 522.5 250.5 c 128,-1,2
 499 220 499 220 463 191 c 1,3,4
 474 179 474 179 480 154.5 c 128,-1,5
 486 130 486 130 480 99 c 0,6,7
 472 61 472 61 450.5 32 c 128,-1,8
 429 3 429 3 399 -17 c 128,-1,9
 369 -37 369 -37 331.5 -48.5 c 128,-1,10
 294 -60 294 -60 254 -60 c 0,11,12
 202 -60 202 -60 165.5 -46.5 c 128,-1,13
 129 -33 129 -33 108 -10 c 1,14,-1
 141 33 l 1,15,16
 155 15 155 15 186.5 1 c 128,-1,17
 218 -13 218 -13 268 -13 c 0,18,19
 329 -13 329 -13 371.5 15 c 128,-1,20
 414 43 414 43 425 91 c 0,21,22
 429 114 429 114 427 131.5 c 128,-1,23
 425 149 425 149 411.5 165 c 128,-1,24
 398 181 398 181 372.5 194.5 c 128,-1,25
 347 208 347 208 306 223 c 0,26,27
 224 251 224 251 187.5 284.5 c 128,-1,28
 151 318 151 318 164 381 c 0,29,30
 170 408 170 408 190.5 438.5 c 128,-1,31
 211 469 211 469 259 502 c 1,32,33
 230 534 230 534 242 584 c 0,34,35
 256 652 256 652 315.5 691.5 c 128,-1,36
 375 731 375 731 454 731 c 0,37,38
 505 731 505 731 540 718.5 c 128,-1,39
 575 706 575 706 596 692 c 1,40,-1
 561 647 l 1,41,42
 544 661 544 661 513.5 674.5 c 128,-1,43
 483 688 483 688 438 688 c 0,44,45
 387 688 387 688 346.5 661 c 128,-1,46
 306 634 306 634 297 593 c 0,47,48
 293 570 293 570 300.5 552 c 128,-1,49
 308 534 308 534 325 519.5 c 128,-1,50
 342 505 342 505 367.5 494 c 128,-1,51
 393 483 393 483 425 472 c 0,52,53
 456 460 456 460 483 446.5 c 128,-1,54
 510 433 510 433 528 417 c 128,-1,55
 546 401 546 401 553.5 377.5 c 128,-1,56
 561 354 561 354 553 321 c 0,0,1
502 314 m 0,57,58
 510 347 510 347 486.5 375.5 c 128,-1,59
 463 404 463 404 404 426 c 0,60,61
 377 435 377 435 343 448.5 c 128,-1,62
 309 462 309 462 287 477 c 1,63,64
 221 432 221 432 212 384 c 0,65,66
 206 354 206 354 228 323.5 c 128,-1,67
 250 293 250 293 326 266 c 0,68,69
 372 248 372 248 397 240 c 128,-1,70
 422 232 422 232 436 220 c 1,71,72
 457 239 457 239 476.5 263 c 128,-1,73
 496 287 496 287 502 314 c 0,57,58
EndSplineSet
EndChar
StartChar: dieresis
Encoding: 168 168 107
Width: 346
VWidth: 1494
Flags: W
HStem: 601 94<189.501 242.983 374.986 428.499>
VStem: 170 95<624.692 683.351> 356 94<613.893 669.293>
Fore
170 647 m 0,0,1
 173 668 173 668 189 681.5 c 128,-1,2
 205 695 205 695 226 695 c 256,3,4
 247 695 247 695 257.5 681.5 c 128,-1,5
 268 668 268 668 265 647 c 0,6,7
 260 626 260 626 243.5 613.5 c 128,-1,8
 227 601 227 601 206 601 c 256,9,10
 185 601 185 601 175.5 613.5 c 128,-1,11
 166 626 166 626 170 647 c 0,0,1
356 647 m 0,12,13
 359 668 359 668 374.5 681.5 c 128,-1,14
 390 695 390 695 411 695 c 256,15,16
 432 695 432 695 442.5 681.5 c 128,-1,17
 453 668 453 668 450 647 c 0,18,19
 445 626 445 626 429 613.5 c 128,-1,20
 413 601 413 601 392 601 c 256,21,22
 371 601 371 601 361 613.5 c 128,-1,23
 351 626 351 626 356 647 c 0,12,13
EndSplineSet
EndChar
StartChar: copyright
Encoding: 169 169 108
Width: 801
VWidth: 1494
Flags: W
HStem: -22 44<299.861 520.963> 111.5 49<404.82 480.609> 683 43<429.964 655.192>
Fore
556 726 m 0,0,1
 629 726 629 726 688 696.5 c 128,-1,2
 747 667 747 667 785.5 616 c 128,-1,3
 824 565 824 565 838 497 c 128,-1,4
 852 429 852 429 836 353 c 0,5,6
 819 275 819 275 775.5 207 c 128,-1,7
 732 139 732 139 672.5 88 c 128,-1,8
 613 37 613 37 541 7.5 c 128,-1,9
 469 -22 469 -22 396 -22 c 0,10,11
 321 -22 321 -22 262 7.5 c 128,-1,12
 203 37 203 37 165 88 c 128,-1,13
 127 139 127 139 113.5 207 c 128,-1,14
 100 275 100 275 117 353 c 0,15,16
 133 429 133 429 175.5 497 c 128,-1,17
 218 565 218 565 278 616 c 128,-1,18
 338 667 338 667 409.5 696.5 c 128,-1,19
 481 726 481 726 556 726 c 0,0,1
407 22 m 256,20,21
 472 22 472 22 535 48.5 c 128,-1,22
 598 75 598 75 650.5 119.5 c 128,-1,23
 703 164 703 164 740 225 c 128,-1,24
 777 286 777 286 792 353 c 0,25,26
 806 420 806 420 794 480.5 c 128,-1,27
 782 541 782 541 749 586 c 128,-1,28
 716 631 716 631 664.5 657 c 128,-1,29
 613 683 613 683 547 683 c 256,30,31
 481 683 481 683 418.5 657 c 128,-1,32
 356 631 356 631 303 586 c 128,-1,33
 250 541 250 541 212.5 480.5 c 128,-1,34
 175 420 175 420 161 353 c 0,35,36
 146 286 146 286 158 225 c 128,-1,37
 170 164 170 164 204 119.5 c 128,-1,38
 238 75 238 75 289.5 48.5 c 128,-1,39
 341 22 341 22 407 22 c 256,20,21
584 161 m 1,40,41
 564 144 564 144 537 132 c 128,-1,42
 510 120 510 120 481.5 114.5 c 128,-1,43
 453 109 453 109 424 111.5 c 128,-1,44
 395 114 395 114 371 123 c 0,45,46
 353 129 353 129 332 143.5 c 128,-1,47
 311 158 311 158 295.5 183.5 c 128,-1,48
 280 209 280 209 274.5 248.5 c 128,-1,49
 269 288 269 288 281 347 c 0,50,51
 293 404 293 404 315.5 443.5 c 128,-1,52
 338 483 338 483 364 509 c 128,-1,53
 390 535 390 535 417.5 549.5 c 128,-1,54
 445 564 445 564 466 571 c 0,55,56
 519 589 519 589 569.5 578.5 c 128,-1,57
 620 568 620 568 652 532 c 1,58,-1
 620 489 l 1,59,60
 598 522 598 522 556 531 c 128,-1,61
 514 540 514 540 471 525 c 0,62,63
 420 508 420 508 382.5 461 c 128,-1,64
 345 414 345 414 330 347 c 256,65,66
 315 280 315 280 333 232 c 128,-1,67
 351 184 351 184 395 167 c 0,68,69
 429 155 429 155 476 160.5 c 128,-1,70
 523 166 523 166 561 200 c 1,71,-1
 584 161 l 1,40,41
EndSplineSet
EndChar
StartChar: ordfeminine
Encoding: 170 170 109
Width: 376
VWidth: 1494
Flags: W
HStem: 280 47<197.74 301.8> 573 47<255.55 350.967>
VStem: 125 325<388 620 193.726 346.487> 125 46<383.81 442.25>
Fore
230 280 m 0,0,1
 194 280 194 280 171.5 294.5 c 128,-1,2
 149 309 149 309 138 333 c 128,-1,3
 127 357 127 357 125 388 c 128,-1,4
 123 419 123 419 130 450 c 256,5,6
 138 481 138 481 152.5 512 c 128,-1,7
 167 543 167 543 189 566.5 c 128,-1,8
 211 590 211 590 239.5 605 c 128,-1,9
 268 620 268 620 303 620 c 0,10,11
 341 620 341 620 362.5 603.5 c 128,-1,12
 384 587 384 587 395 561 c 1,13,-1
 408 620 l 1,14,-1
 450 620 l 1,15,-1
 390 338 l 1,16,-1
 383 290 l 1,17,-1
 339 290 l 1,18,-1
 350 339 l 1,19,20
 327 312 327 312 297.5 296 c 128,-1,21
 268 280 268 280 230 280 c 0,0,1
296 573 m 0,22,23
 271 573 271 573 250.5 561 c 128,-1,24
 230 549 230 549 214.5 531 c 128,-1,25
 199 513 199 513 189 491 c 128,-1,26
 179 469 179 469 175 450 c 0,27,28
 170 429 170 429 171 407.5 c 128,-1,29
 172 386 172 386 180 368 c 128,-1,30
 188 350 188 350 203 338.5 c 128,-1,31
 218 327 218 327 244 327 c 0,32,33
 290 327 290 327 321.5 363 c 128,-1,34
 353 399 353 399 366 456 c 0,35,36
 377 504 377 504 359.5 538.5 c 128,-1,37
 342 573 342 573 296 573 c 0,22,23
EndSplineSet
EndChar
StartChar: guillemotleft
Encoding: 171 171 110
Width: 448
VWidth: 1494
Flags: W
HStem: 43 419<247 275 275 275>
VStem: 106 389<239 462 239 239>
Fore
275 462 m 1,0,-1
 335 462 l 1,1,-1
 155 253 l 1,2,-1
 247 43 l 1,3,-1
 187 43 l 1,4,-1
 106 239 l 2,5,6
 100 253 100 253 111 266 c 2,7,-1
 275 462 l 1,0,-1
435 462 m 1,8,-1
 495 462 l 1,9,-1
 315 253 l 1,10,-1
 407 43 l 1,11,-1
 347 43 l 1,12,-1
 266 239 l 2,13,14
 260 253 260 253 271 266 c 2,15,-1
 435 462 l 1,8,-1
EndSplineSet
EndChar
StartChar: logicalnot
Encoding: 172 172 111
Width: 611
VWidth: 1494
Flags: W
HStem: 368 54<130 584>
Fore
535 139 m 1,0,-1
 584 368 l 1,1,-1
 120 368 l 1,2,-1
 130 422 l 1,3,-1
 653 422 l 1,4,-1
 593 139 l 1,5,-1
 535 139 l 1,0,-1
EndSplineSet
EndChar
StartChar: registered
Encoding: 174 174 112
Width: 804
VWidth: 1494
Flags: W
HStem: -21 43<297.863 521.24> 302 34<389 462> 538 36<432 547.529> 685 43<431.051 652.92>
Fore
555 728 m 0,0,1
 628 728 628 728 687 698 c 128,-1,2
 746 668 746 668 784 617.5 c 128,-1,3
 822 567 822 567 836.5 499 c 128,-1,4
 851 431 851 431 834 353 c 256,5,6
 818 275 818 275 774.5 207 c 128,-1,7
 731 139 731 139 672 88 c 128,-1,8
 613 37 613 37 541 8 c 128,-1,9
 469 -21 469 -21 396 -21 c 0,10,11
 321 -21 321 -21 262 8 c 128,-1,12
 203 37 203 37 165 88 c 128,-1,13
 127 139 127 139 113.5 207 c 128,-1,14
 100 275 100 275 117 353 c 256,15,16
 133 431 133 431 175.5 499 c 128,-1,17
 218 567 218 567 278 617.5 c 128,-1,18
 338 668 338 668 409 698 c 128,-1,19
 480 728 480 728 555 728 c 0,0,1
405 22 m 256,20,21
 471 22 471 22 533.5 48.5 c 128,-1,22
 596 75 596 75 648.5 119.5 c 128,-1,23
 701 164 701 164 738.5 225 c 128,-1,24
 776 286 776 286 791 353 c 0,25,26
 804 420 804 420 792 480.5 c 128,-1,27
 780 541 780 541 747.5 586.5 c 128,-1,28
 715 632 715 632 663 658.5 c 128,-1,29
 611 685 611 685 546 685 c 256,30,31
 480 685 480 685 417 658.5 c 128,-1,32
 354 632 354 632 301 586.5 c 128,-1,33
 248 541 248 541 210.5 480.5 c 128,-1,34
 173 420 173 420 160 353 c 0,35,36
 145 286 145 286 157 225 c 128,-1,37
 169 164 169 164 202.5 119.5 c 128,-1,38
 236 75 236 75 287.5 48.5 c 128,-1,39
 339 22 339 22 405 22 c 256,20,21
380 302 m 1,40,-1
 342 120 l 1,41,-1
 306 120 l 1,42,-1
 395 535 l 2,43,44
 396 544 396 544 388.5 551.5 c 128,-1,45
 381 559 381 559 386 568 c 1,46,47
 389 571 389 571 395.5 575.5 c 128,-1,48
 402 580 402 580 411 580 c 0,49,50
 419 580 419 580 426 574 c 1,51,-1
 504 574 l 2,52,53
 535 574 535 574 564 567.5 c 128,-1,54
 593 561 593 561 613.5 545 c 128,-1,55
 634 529 634 529 643 503 c 128,-1,56
 652 477 652 477 643 438 c 0,57,58
 631 380 631 380 592 349 c 128,-1,59
 553 318 553 318 510 306 c 1,60,-1
 590 121 l 1,61,-1
 546 112 l 1,62,-1
 462 302 l 1,63,-1
 380 302 l 1,40,-1
432 538 m 1,64,-1
 389 336 l 1,65,-1
 454 336 l 2,66,67
 520 336 520 336 558 366 c 128,-1,68
 596 396 596 396 605 439 c 0,69,70
 613 478 613 478 590 508 c 128,-1,71
 567 538 567 538 496 538 c 2,72,-1
 432 538 l 1,64,-1
EndSplineSet
EndChar
StartChar: macron
Encoding: 175 175 113
Width: 322
VWidth: 1494
Flags: W
HStem: 631 48<185 413 175 423 185 185>
Fore
175 631 m 1,0,-1
 185 679 l 1,1,-1
 423 679 l 1,2,-1
 413 631 l 1,3,-1
 175 631 l 1,0,-1
EndSplineSet
EndChar
StartChar: degree
Encoding: 176 176 114
Width: 322
VWidth: 1494
Flags: W
HStem: 463 41<214.849 328.422> 676 39<244.274 354.249>
VStem: 160 251<537 589 589 641 589 589 589 589>
Fore
312 715 m 256,0,1
 365 715 365 715 394 678 c 128,-1,2
 423 641 423 641 411 589 c 256,3,4
 399 537 399 537 355 500 c 128,-1,5
 311 463 311 463 259 463 c 256,6,7
 206 463 206 463 177.5 500 c 128,-1,8
 149 537 149 537 160 589 c 0,9,10
 172 641 172 641 216 678 c 128,-1,11
 260 715 260 715 312 715 c 256,0,1
268 504 m 0,12,13
 302 504 302 504 332.5 528.5 c 128,-1,14
 363 553 363 553 371 589 c 0,15,16
 378 623 378 623 358.5 649.5 c 128,-1,17
 339 676 339 676 305 676 c 0,18,19
 269 676 269 676 238.5 649.5 c 128,-1,20
 208 623 208 623 200 589 c 0,21,22
 193 553 193 553 212.5 528.5 c 128,-1,23
 232 504 232 504 268 504 c 0,12,13
EndSplineSet
EndChar
StartChar: plusminus
Encoding: 177 177 115
Width: 605
VWidth: 1494
Flags: W
HStem: 0 52<75 543> 336 57<146 345 416 613> 584 20G<397.735 460>
Fore
613 336 m 1,0,-1
 404 336 l 1,1,-1
 359 124 l 1,2,-1
 300 124 l 1,3,-1
 345 336 l 1,4,-1
 135 336 l 1,5,-1
 146 393 l 1,6,-1
 357 393 l 1,7,-1
 402 604 l 1,8,-1
 460 604 l 1,9,-1
 416 393 l 1,10,-1
 625 393 l 1,11,-1
 613 336 l 1,0,-1
543 0 m 1,12,-1
 64 0 l 1,13,-1
 75 52 l 1,14,-1
 553 52 l 1,15,-1
 543 0 l 1,12,-1
EndSplineSet
EndChar
StartChar: twosuperior
Encoding: 178 178 116
Width: 387
VWidth: 1494
Flags: W
HStem: 284 52<134.656 148 208 366.909>
VStem: 124 329<311 577 311 469.909> 196 51<558 588.725>
Fore
239 661 m 0,0,1
 269 694 269 694 311.5 706 c 128,-1,2
 354 718 354 718 393 704 c 0,3,4
 428 692 428 692 445 658.5 c 128,-1,5
 462 625 462 625 453 577 c 0,6,7
 445 547 445 547 426.5 519.5 c 128,-1,8
 408 492 408 492 382 467 c 128,-1,9
 356 442 356 442 327.5 421.5 c 128,-1,10
 299 401 299 401 272 383 c 0,11,12
 248 366 248 366 234 357 c 128,-1,13
 220 348 220 348 208 336 c 1,14,-1
 365 336 l 1,15,16
 366 339 366 339 370 343 c 128,-1,17
 374 347 374 347 377 351 c 0,18,19
 381 357 381 357 384 363 c 1,20,21
 386 363 386 363 401.5 357 c 128,-1,22
 417 351 417 351 429 347 c 1,23,-1
 386 284 l 1,24,-1
 144 284 l 2,25,26
 114 283 114 283 124 311 c 0,27,28
 129 324 129 324 132.5 330 c 128,-1,29
 136 336 136 336 146 336 c 2,30,-1
 148 336 l 1,31,32
 158 348 158 348 171.5 361 c 128,-1,33
 185 374 185 374 200 386 c 128,-1,34
 215 398 215 398 228.5 407.5 c 128,-1,35
 242 417 242 417 251 423 c 0,36,37
 305 462 305 462 348.5 499.5 c 128,-1,38
 392 537 392 537 401 578 c 0,39,40
 407 607 407 607 398 628.5 c 128,-1,41
 389 650 389 650 365 658 c 0,42,43
 342 665 342 665 317.5 658.5 c 128,-1,44
 293 652 293 652 272 631 c 0,45,46
 257 611 257 611 252 594.5 c 128,-1,47
 247 578 247 578 247 558 c 1,48,-1
 196 544 l 1,49,50
 197 616 197 616 239 661 c 0,0,1
EndSplineSet
EndChar
StartChar: threesuperior
Encoding: 179 179 117
Width: 388
VWidth: 1494
Flags: W
HStem: 602 21G<211.5 229.5> 658 51<257 375>
VStem: 388 52<425.23 467 467 512.95>
Fore
456 709 m 1,0,1
 463 710 463 710 468.5 705 c 128,-1,2
 474 700 474 700 472 692 c 0,3,4
 469 683 469 683 461.5 668 c 128,-1,5
 454 653 454 653 442 658 c 1,6,7
 439 656 439 656 426.5 645 c 128,-1,8
 414 634 414 634 397.5 619 c 128,-1,9
 381 604 381 604 365.5 590.5 c 128,-1,10
 350 577 350 577 344 571 c 1,11,12
 395 573 395 573 417 545 c 128,-1,13
 439 517 439 517 440 477.5 c 128,-1,14
 441 438 441 438 421.5 394 c 128,-1,15
 402 350 402 350 369 321 c 0,16,17
 332 287 332 287 289.5 279 c 128,-1,18
 247 271 247 271 211 283.5 c 128,-1,19
 175 296 175 296 151 329 c 128,-1,20
 127 362 127 362 127 410 c 1,21,-1
 178 425 l 1,22,23
 181 374 181 374 206.5 349 c 128,-1,24
 232 324 232 324 264 323.5 c 128,-1,25
 296 323 296 323 328 344 c 128,-1,26
 360 365 360 365 378 407 c 0,27,28
 392 438 392 438 388 467 c 128,-1,29
 384 496 384 496 367.5 513.5 c 128,-1,30
 351 531 351 531 325 529.5 c 128,-1,31
 299 528 299 528 269 499 c 0,32,33
 259 490 259 490 251.5 494 c 128,-1,34
 244 498 244 498 239 504 c 0,35,36
 236 508 236 508 232.5 516.5 c 128,-1,37
 229 525 229 525 241 534 c 0,38,39
 272 562 272 562 299 587 c 0,40,41
 323 608 323 608 344.5 629 c 128,-1,42
 366 650 366 650 375 658 c 1,43,-1
 257 658 l 1,44,45
 254 655 254 655 249.5 645 c 128,-1,46
 245 635 245 635 239 626 c 0,47,48
 233 614 233 614 226 602 c 1,49,50
 197 617 197 617 192 620 c 128,-1,51
 187 623 187 623 188 623 c 1,52,-1
 230 709 l 1,53,-1
 456 709 l 1,0,1
EndSplineSet
EndChar
StartChar: acute
Encoding: 180 180 118
Width: 322
VWidth: 1494
Flags: W
HStem: 577 155<290 377 377 377>
Fore
290 577 m 1,0,-1
 244 577 l 1,1,-1
 377 732 l 1,2,-1
 465 732 l 1,3,-1
 290 577 l 1,0,-1
EndSplineSet
EndChar
StartChar: mu
Encoding: 181 181 119
Width: 575
VWidth: 1494
Flags: W
HStem: -13 49<213.202 351.766> 503 20G<192.74 253 529.641 589>
VStem: 434.5 60.5<1 11 11 17.5776 17.5776 40.5 40.5 68.2715>
Fore
501 112 m 2,0,1
 490 63 490 63 491 40.5 c 128,-1,2
 492 18 492 18 495 1 c 1,3,-1
 441 -18 l 1,4,5
 438 -9 438 -9 434.5 11 c 128,-1,6
 431 31 431 31 439 75 c 1,7,8
 407 28 407 28 358 7.5 c 128,-1,9
 309 -13 309 -13 265 -13 c 128,-1,10
 221 -13 221 -13 193.5 1 c 128,-1,11
 166 15 166 15 149 36 c 1,12,-1
 87 -247 l 1,13,-1
 33 -247 l 1,14,-1
 197 523 l 1,15,-1
 253 523 l 1,16,-1
 179 176 l 2,17,18
 164 111 164 111 196.5 73.5 c 128,-1,19
 229 36 229 36 286 36 c 0,20,21
 318 36 318 36 348 51 c 128,-1,22
 378 66 378 66 402 90.5 c 128,-1,23
 426 115 426 115 442.5 146.5 c 128,-1,24
 459 178 459 178 466 211 c 2,25,-1
 534 523 l 1,26,-1
 589 523 l 1,27,-1
 501 112 l 2,0,1
EndSplineSet
EndChar
StartChar: paragraph
Encoding: 182 182 120
Width: 571
VWidth: 1494
Flags: W
HStem: 673 37<463 541 586 640>
Fore
317 338 m 2,0,1
 284 338 284 338 249 346 c 128,-1,2
 214 354 214 354 187 375 c 128,-1,3
 160 396 160 396 146 431 c 128,-1,4
 132 466 132 466 144 520 c 256,5,6
 155 574 155 574 180.5 610 c 128,-1,7
 206 646 206 646 240 668.5 c 128,-1,8
 274 691 274 691 314 700.5 c 128,-1,9
 354 710 354 710 395 710 c 2,10,-1
 647 710 l 1,11,-1
 640 673 l 1,12,-1
 586 673 l 1,13,-1
 405 -182 l 1,14,-1
 359 -184 l 1,15,-1
 541 673 l 1,16,-1
 463 673 l 1,17,-1
 283 -182 l 1,18,-1
 239 -182 l 1,19,-1
 350 338 l 1,20,-1
 317 338 l 2,0,1
EndSplineSet
EndChar
StartChar: periodcentered
Encoding: 183 183 121
Width: 343
VWidth: 1494
Flags: W
HStem: 248 200<204.982 297.018>
VStem: 151 200<320.299 417.607>
Fore
151 348 m 256,0,1
 160 390 160 390 195 419 c 128,-1,2
 230 448 230 448 272 448 c 256,3,4
 314 448 314 448 337 419 c 128,-1,5
 360 390 360 390 351 348 c 256,6,7
 342 306 342 306 307 277 c 128,-1,8
 272 248 272 248 230 248 c 256,9,10
 188 248 188 248 165 277 c 128,-1,11
 142 306 142 306 151 348 c 256,0,1
EndSplineSet
EndChar
StartChar: cedilla
Encoding: 184 184 122
Width: 322
VWidth: 1494
Flags: W
HStem: -207.5 44.5<34.4379 39 39 60.9067 60.9067 78.2731 69.5899 136.416>
VStem: 6 206<-194 -124 -248 -226.093>
Fore
212 -124 m 0,0,1
 202 -172 202 -172 161.5 -192 c 128,-1,2
 121 -212 121 -212 75 -212 c 0,3,4
 60 -212 60 -212 39 -207.5 c 128,-1,5
 18 -203 18 -203 6 -194 c 1,6,-1
 34 -151 l 1,7,8
 48 -160 48 -160 63.5 -163 c 128,-1,9
 79 -166 79 -166 93 -166 c 0,10,11
 114 -166 114 -166 133 -159 c 128,-1,12
 152 -152 152 -152 157 -133 c 0,13,14
 161 -108 161 -108 135 -99 c 128,-1,15
 109 -90 109 -90 70 -87 c 1,16,-1
 145 6 l 1,17,-1
 202 6 l 1,18,-1
 148 -52 l 1,19,20
 178 -58 178 -58 199 -76 c 128,-1,21
 220 -94 220 -94 212 -124 c 0,0,1
EndSplineSet
EndChar
StartChar: onesuperior
Encoding: 185 185 123
Width: 322
VWidth: 1494
Flags: W
HStem: 284 429.5<269 344.5 116.377 287.151>
VStem: 197 177<616 688 387.877 558.651>
Fore
332 707 m 1,0,1
 341 715 341 715 344.5 713.5 c 0,2,-1
 363 706 l 1,3,4
 366 703 366 703 370.5 698.5 c 128,-1,5
 375 694 375 694 374 688 c 1,6,-1
 374 686 l 1,7,8
 371 677 371 677 350 664 c 1,9,10
 348 659 348 659 339 617 c 0,11,12
 332 581 332 581 315.5 503.5 c 128,-1,13
 299 426 299 426 269 284 c 1,14,-1
 220 284 l 1,15,16
 238 372 238 372 254 444 c 0,17,18
 268 507 268 507 279 560.5 c 128,-1,19
 290 614 290 614 293 626 c 1,20,21
 286 622 286 622 274.5 614.5 c 128,-1,22
 263 607 263 607 251 599 c 0,23,24
 238 590 238 590 223 581 c 1,25,-1
 197 616 l 1,26,-1
 330 707 l 1,27,-1
 332 707 l 1,0,1
EndSplineSet
EndChar
StartChar: ordmasculine
Encoding: 186 186 124
Width: 376
VWidth: 1494
Flags: W
HStem: 280 44<209.337 308.578> 592 45<283.218 376.336>
VStem: 103 365.5<496 496 454 528.5 454 454>
Fore
466 460 m 0,0,1
 456 413 456 413 431.5 378.5 c 128,-1,2
 407 344 407 344 375.5 322 c 128,-1,3
 344 300 344 300 309.5 290 c 128,-1,4
 275 280 275 280 245 280 c 0,5,6
 167 280 167 280 127 329 c 128,-1,7
 87 378 87 378 103 454 c 0,8,9
 112 496 112 496 134.5 530.5 c 128,-1,10
 157 565 157 565 187.5 588 c 128,-1,11
 218 611 218 611 252.5 624 c 128,-1,12
 287 637 287 637 321 637 c 0,13,14
 363 637 363 637 394.5 622.5 c 128,-1,15
 426 608 426 608 444.5 584.5 c 128,-1,16
 463 561 463 561 468.5 528.5 c 128,-1,17
 474 496 474 496 466 460 c 0,0,1
417 457 m 0,18,19
 422 480 422 480 419 504 c 128,-1,20
 416 528 416 528 404 547.5 c 128,-1,21
 392 567 392 567 370 579.5 c 128,-1,22
 348 592 348 592 314 592 c 0,23,24
 281 592 281 592 254 580 c 128,-1,25
 227 568 227 568 207 549.5 c 128,-1,26
 187 531 187 531 173.5 506 c 128,-1,27
 160 481 160 481 154 456 c 0,28,29
 146 423 146 423 153 398.5 c 128,-1,30
 160 374 160 374 175.5 357.5 c 128,-1,31
 191 341 191 341 213 332.5 c 128,-1,32
 235 324 235 324 257 324 c 0,33,34
 306 324 306 324 354 357 c 128,-1,35
 402 390 402 390 417 457 c 0,18,19
EndSplineSet
EndChar
StartChar: guillemotright
Encoding: 187 187 125
Width: 451
VWidth: 1494
Flags: W
HStem: 43 419<280 308 308 308>
VStem: 60 388<43 266 43 43>
Fore
448 266 m 2,0,1
 454 251 454 251 444 239 c 2,2,-1
 280 43 l 1,3,-1
 220 43 l 1,4,-1
 398 253 l 1,5,-1
 308 462 l 1,6,-1
 368 462 l 1,7,-1
 448 266 l 2,0,1
288 266 m 2,8,9
 294 251 294 251 284 239 c 2,10,-1
 120 43 l 1,11,-1
 60 43 l 1,12,-1
 238 253 l 1,13,-1
 148 462 l 1,14,-1
 208 462 l 1,15,-1
 288 266 l 2,8,9
EndSplineSet
EndChar
StartChar: onequarter
Encoding: 188 188 126
Width: 828
VWidth: 1494
Flags: W
HStem: -13 21G<157 222.248 664 717> 91 53<547 682 744 788> 692 20G<727.807 795>
Fore
206 -13 m 1,0,-1
 157 -13 l 1,1,-1
 744 712 l 1,2,-1
 795 712 l 1,3,-1
 206 -13 l 1,0,-1
768 422 m 2,4,5
 776 431 776 431 783.5 430 c 128,-1,6
 791 429 791 429 796 423 c 128,-1,7
 801 417 801 417 803.5 408 c 128,-1,8
 806 399 806 399 801 393 c 1,9,-1
 798 390 l 2,10,11
 795 387 795 387 795 384 c 0,12,13
 795 383 795 383 791.5 366.5 c 128,-1,14
 788 350 788 350 782.5 323.5 c 128,-1,15
 777 297 777 297 770.5 267.5 c 128,-1,16
 764 238 764 238 758.5 211.5 c 128,-1,17
 753 185 753 185 748.5 165.5 c 128,-1,18
 744 146 744 146 744 144 c 1,19,-1
 800 144 l 1,20,-1
 788 91 l 1,21,-1
 732 91 l 1,22,23
 731 87 731 87 728.5 72 c 128,-1,24
 726 57 726 57 723 40 c 0,25,26
 719 22 719 22 715 0 c 1,27,-1
 664 0 l 1,28,29
 668 22 668 22 673 40 c 0,30,31
 676 57 676 57 678 72 c 128,-1,32
 680 87 680 87 682 91 c 1,33,-1
 483 91 l 1,34,35
 471 94 471 94 468 107 c 128,-1,36
 465 120 465 120 472 133 c 1,37,-1
 768 422 l 2,4,5
731 320 m 1,38,39
 720 309 720 309 693.5 283 c 128,-1,40
 667 257 667 257 636 228.5 c 128,-1,41
 605 200 605 200 580 175.5 c 128,-1,42
 555 151 555 151 547 144 c 1,43,-1
 694 144 l 1,44,45
 695 148 695 148 699.5 171 c 128,-1,46
 704 194 704 194 710 223.5 c 128,-1,47
 716 253 716 253 722 280.5 c 128,-1,48
 728 308 728 308 731 320 c 1,38,39
321 707 m 2,49,50
 332 715 332 715 335.5 713.5 c 0,51,-1
 354 706 l 1,52,53
 357 703 357 703 361.5 698.5 c 128,-1,54
 366 694 366 694 365 688 c 1,55,-1
 365 686 l 1,56,57
 363 679 363 679 341 667 c 1,58,-1
 341 665 l 2,59,60
 341 664 341 664 337 646.5 c 128,-1,61
 333 629 333 629 327 602 c 128,-1,62
 321 575 321 575 314.5 541.5 c 128,-1,63
 308 508 308 508 300 472 c 0,64,65
 284 390 284 390 260 284 c 1,66,-1
 211 284 l 1,67,68
 229 372 229 372 245 444 c 0,69,70
 259 507 259 507 270 560.5 c 128,-1,71
 281 614 281 614 284 626 c 1,72,73
 277 622 277 622 265.5 614.5 c 128,-1,74
 254 607 254 607 242 599 c 0,75,76
 229 590 229 590 214 581 c 1,77,-1
 188 616 l 1,78,-1
 321 707 l 2,49,50
EndSplineSet
Ligature2: "'frac' Diagonal Fractions in Latin lookup 0 subtable" one fraction four
Ligature2: "'frac' Diagonal Fractions in Latin lookup 0 subtable" one slash four
EndChar
StartChar: onehalf
Encoding: 189 189 127
Width: 846
VWidth: 1494
Flags: W
HStem: 0 52<511.375 525 584 743.548> 692 20G<708.807 776>
VStem: 571 51<274 304.725>
Fore
188 -13 m 1,0,-1
 138 -13 l 1,1,-1
 725 712 l 1,2,-1
 776 712 l 1,3,-1
 188 -13 l 1,0,-1
616 377 m 0,4,5
 646 410 646 410 687.5 421.5 c 128,-1,6
 729 433 729 433 768 420 c 0,7,8
 804 408 804 408 821.5 374.5 c 128,-1,9
 839 341 839 341 828 293 c 0,10,11
 822 263 822 263 802.5 235.5 c 128,-1,12
 783 208 783 208 757.5 183 c 128,-1,13
 732 158 732 158 703 137.5 c 128,-1,14
 674 117 674 117 649 99 c 1,15,16
 625 87 625 87 610.5 75.5 c 128,-1,17
 596 64 596 64 584 52 c 1,18,-1
 741 52 l 1,19,20
 743 55 743 55 746.5 59 c 128,-1,21
 750 63 750 63 753 67 c 0,22,23
 758 73 758 73 761 79 c 1,24,25
 762 79 762 79 777 73 c 128,-1,26
 792 67 792 67 804 63 c 1,27,-1
 762 0 l 1,28,-1
 520 0 l 2,29,30
 490 -1 490 -1 499 27 c 0,31,32
 505 40 505 40 509 46 c 128,-1,33
 513 52 513 52 523 52 c 2,34,-1
 525 52 l 1,35,36
 534 64 534 64 548 77 c 128,-1,37
 562 90 562 90 576 102 c 128,-1,38
 590 114 590 114 603.5 123.5 c 128,-1,39
 617 133 617 133 626 139 c 0,40,41
 680 178 680 178 724 215.5 c 128,-1,42
 768 253 768 253 776 294 c 0,43,44
 783 323 783 323 773.5 344.5 c 128,-1,45
 764 366 764 366 741 374 c 256,46,47
 719 381 719 381 694.5 374.5 c 128,-1,48
 670 368 670 368 649 347 c 0,49,50
 632 327 632 327 627 310.5 c 128,-1,51
 622 294 622 294 622 274 c 1,52,-1
 571 260 l 1,53,54
 573 329 573 329 616 377 c 0,4,5
323 707 m 1,55,56
 332 715 332 715 335.5 713.5 c 0,57,-1
 354 706 l 1,58,59
 357 703 357 703 361.5 698.5 c 128,-1,60
 366 694 366 694 365 688 c 1,61,-1
 365 686 l 1,62,63
 363 679 363 679 341 667 c 1,64,-1
 341 665 l 2,65,66
 341 664 341 664 337 646.5 c 128,-1,67
 333 629 333 629 327 602 c 128,-1,68
 321 575 321 575 314.5 541.5 c 128,-1,69
 308 508 308 508 300 472 c 0,70,71
 284 390 284 390 260 284 c 1,72,-1
 211 284 l 1,73,74
 229 372 229 372 245 444 c 0,75,76
 259 507 259 507 270 560.5 c 128,-1,77
 281 614 281 614 284 626 c 1,78,79
 277 622 277 622 265.5 614.5 c 128,-1,80
 254 607 254 607 242 599 c 0,81,82
 229 590 229 590 214 581 c 1,83,-1
 188 616 l 1,84,-1
 321 707 l 1,85,-1
 323 707 l 1,55,56
EndSplineSet
Ligature2: "'frac' Diagonal Fractions in Latin lookup 0 subtable" one fraction two
Ligature2: "'frac' Diagonal Fractions in Latin lookup 0 subtable" one slash two
EndChar
StartChar: threequarters
Encoding: 190 190 128
Width: 874
VWidth: 1494
Flags: W
HStem: -13 21G<227 296.193 715.5 764> 692 20G<799.752 867>
VStem: 401.5 52<424.279 467 477.5 512.95> 727 51<48.8901 72 72 82.6178 82.6178 82.6178 82.6178 91>
Fore
280 -13 m 1,0,-1
 227 -13 l 1,1,-1
 816 712 l 1,2,-1
 867 712 l 1,3,-1
 280 -13 l 1,0,-1
244 709 m 1,4,-1
 203 628 l 2,5,6
 202 623 202 623 206.5 620 c 128,-1,7
 211 617 211 617 239 602 c 1,8,9
 247 614 247 614 253 626 c 0,10,11
 259 635 259 635 263.5 645 c 128,-1,12
 268 655 268 655 271 658 c 1,13,-1
 389 658 l 1,14,15
 380 650 380 650 358 629 c 128,-1,16
 336 608 336 608 312 587 c 0,17,18
 286 562 286 562 254 534 c 0,19,20
 242 525 242 525 246 516.5 c 128,-1,21
 250 508 250 508 253 504 c 0,22,23
 257 498 257 498 264.5 494 c 128,-1,24
 272 490 272 490 283 499 c 0,25,26
 312 528 312 528 338.5 529.5 c 128,-1,27
 365 531 365 531 381.5 513.5 c 128,-1,28
 398 496 398 496 401.5 467 c 128,-1,29
 405 438 405 438 392 407 c 0,30,31
 374 365 374 365 341.5 344 c 128,-1,32
 309 323 309 323 277 323.5 c 128,-1,33
 245 324 245 324 219.5 349 c 128,-1,34
 194 374 194 374 191 425 c 1,35,-1
 141 410 l 1,36,37
 141 362 141 362 164.5 329 c 128,-1,38
 188 296 188 296 224 283.5 c 128,-1,39
 260 271 260 271 302.5 279 c 128,-1,40
 345 287 345 287 383 321 c 0,41,42
 416 350 416 350 435 394 c 128,-1,43
 454 438 454 438 453.5 477.5 c 128,-1,44
 453 517 453 517 430.5 545 c 128,-1,45
 408 573 408 573 357 571 c 1,46,47
 363 577 363 577 379 590.5 c 128,-1,48
 395 604 395 604 411.5 619 c 128,-1,49
 428 634 428 634 440.5 645 c 128,-1,50
 453 656 453 656 456 658 c 1,51,52
 468 653 468 653 475.5 668 c 128,-1,53
 483 683 483 683 486 692 c 0,54,55
 487 700 487 700 482 705 c 128,-1,56
 477 710 477 710 469 709 c 1,57,-1
 244 709 l 1,4,-1
522 133 m 1,58,59
 514 120 514 120 517 107 c 128,-1,60
 520 94 520 94 532 91 c 1,61,-1
 731 91 l 1,62,63
 729 87 729 87 727 72 c 128,-1,64
 725 57 725 57 722 40 c 0,65,66
 718 22 718 22 713 0 c 1,67,-1
 764 0 l 1,68,69
 768 22 768 22 773 40 c 0,70,71
 776 57 776 57 778 72 c 128,-1,72
 780 87 780 87 782 91 c 1,73,-1
 837 91 l 1,74,-1
 849 144 l 1,75,-1
 794 144 l 1,76,77
 794 146 794 146 798.5 165.5 c 128,-1,78
 803 185 803 185 808 211.5 c 128,-1,79
 813 238 813 238 820 267.5 c 128,-1,80
 827 297 827 297 832 323.5 c 128,-1,81
 837 350 837 350 841 366.5 c 128,-1,82
 845 383 845 383 845 384 c 0,83,84
 845 387 845 387 848 390 c 2,85,-1
 851 393 l 1,86,87
 855 399 855 399 853 408 c 128,-1,88
 851 417 851 417 845.5 423 c 128,-1,89
 840 429 840 429 832.5 430 c 128,-1,90
 825 431 825 431 818 422 c 2,91,-1
 522 133 l 1,58,59
780 320 m 1,92,93
 777 308 777 308 771 280.5 c 128,-1,94
 765 253 765 253 759 223.5 c 128,-1,95
 753 194 753 194 748.5 171 c 128,-1,96
 744 148 744 148 743 144 c 1,97,-1
 596 144 l 1,98,99
 604 151 604 151 629.5 175.5 c 128,-1,100
 655 200 655 200 685.5 228.5 c 128,-1,101
 716 257 716 257 743 283 c 128,-1,102
 770 309 770 309 780 320 c 1,92,93
EndSplineSet
Ligature2: "'frac' Diagonal Fractions in Latin lookup 0 subtable" three fraction four
Ligature2: "'frac' Diagonal Fractions in Latin lookup 0 subtable" three slash four
EndChar
StartChar: questiondown
Encoding: 191 191 129
Width: 515
VWidth: 1494
Flags: W
HStem: 408 111<337.111 398.89>
VStem: 312 113<444.533 506.862>
Fore
425 465 m 0,0,1
 419 439 419 439 399.5 423.5 c 128,-1,2
 380 408 380 408 359 408 c 0,3,4
 333 408 333 408 319.5 423.5 c 128,-1,5
 306 439 306 439 312 465 c 0,6,7
 317 487 317 487 336.5 503 c 128,-1,8
 356 519 356 519 381 519 c 0,9,10
 402 519 402 519 415.5 503 c 128,-1,11
 429 487 429 487 425 465 c 0,0,1
179 118 m 0,12,13
 221 157 221 157 254 193.5 c 128,-1,14
 287 230 287 230 297 278 c 2,15,-1
 315 363 l 1,16,-1
 375 363 l 1,17,-1
 357 278 l 2,18,19
 344 214 344 214 301.5 167 c 128,-1,20
 259 120 259 120 215 79 c 0,21,22
 103 -22 103 -22 138 -115 c 0,23,24
 146 -141 146 -141 178.5 -154 c 128,-1,25
 211 -167 211 -167 254 -163 c 0,26,27
 303 -157 303 -157 339 -126.5 c 128,-1,28
 375 -96 375 -96 395 -61 c 1,29,-1
 442 -91 l 1,30,31
 413 -142 413 -142 365.5 -175.5 c 128,-1,32
 318 -209 318 -209 259 -217 c 0,33,34
 197 -226 197 -226 148 -210 c 128,-1,35
 99 -194 99 -194 81 -152 c 0,36,37
 63 -112 63 -112 66 -74.5 c 128,-1,38
 69 -37 69 -37 84.5 -3 c 128,-1,39
 100 31 100 31 125.5 62 c 128,-1,40
 151 93 151 93 179 118 c 0,12,13
EndSplineSet
EndChar
StartChar: Aring
Encoding: 197 197 134
Width: 617
VWidth: 1494
Flags: W
HStem: -12 21G<9 74.6346 538.019 602> 196 49<214 501> 764 42<437.028 522.034> 919 44<453.305 538.094>
Fore
387 862 m 256,0,1
 396 904 396 904 430.5 933.5 c 128,-1,2
 465 963 465 963 507 963 c 256,3,4
 549 963 549 963 572 933.5 c 128,-1,5
 595 904 595 904 586 862 c 256,6,7
 577 821 577 821 542 792.5 c 128,-1,8
 507 764 507 764 465 764 c 256,9,10
 423 764 423 764 400.5 792.5 c 128,-1,11
 378 821 378 821 387 862 c 256,0,1
431 862 m 0,12,13
 426 839 426 839 438.5 822.5 c 128,-1,14
 451 806 451 806 475 806 c 256,15,16
 499 806 499 806 519.5 822.5 c 128,-1,17
 540 839 540 839 544 862 c 0,18,19
 550 886 550 886 536.5 902.5 c 128,-1,20
 523 919 523 919 499 919 c 256,21,22
 475 919 475 919 455.5 902.5 c 128,-1,23
 436 886 436 886 431 862 c 0,12,13
602 0 m 1,24,-1
 541 -12 l 1,25,-1
 510 196 l 1,26,-1
 184 196 l 1,27,-1
 63 -12 l 1,28,-1
 9 0 l 1,29,30
 123 193 123 193 214 345 c 0,31,32
 253 411 253 411 288.5 472.5 c 128,-1,33
 324 534 324 534 354 583 c 0,34,35
 389 640 389 640 419 692 c 0,36,37
 432 713 432 713 446 721 c 128,-1,38
 460 729 460 729 465 731 c 0,39,40
 478 734 478 734 488.5 722 c 128,-1,41
 499 710 499 710 501 704 c 0,42,43
 502 700 502 700 497 694 c 128,-1,44
 492 688 492 688 489 685 c 1,45,-1
 602 0 l 1,24,-1
501 245 m 1,46,-1
 436 622 l 1,47,-1
 214 245 l 1,48,-1
 501 245 l 1,46,-1
EndSplineSet
EndChar
StartChar: AE
Encoding: 198 198 135
Width: 841
VWidth: 1494
Flags: W
HStem: 1 59<526 807> 190 54<254 493> 339 59<598 848> 653 59<565 592 652 945>
Fore
652 653 m 1,0,-1
 598 398 l 1,1,-1
 858 398 l 1,2,-1
 848 339 l 1,3,-1
 586 339 l 1,4,-1
 526 60 l 1,5,-1
 819 60 l 1,6,-1
 807 1 l 1,7,-1
 508 1 l 2,8,9
 481 1 481 1 470.5 19 c 128,-1,10
 460 37 460 37 465 57 c 2,11,-1
 493 190 l 1,12,-1
 214 190 l 1,13,-1
 51 -10 l 1,14,-1
 6 16 l 1,15,-1
 517 664 l 2,16,17
 529 683 529 683 548.5 697.5 c 128,-1,18
 568 712 568 712 589 712 c 2,19,-1
 960 712 l 1,20,-1
 945 653 l 1,21,-1
 652 653 l 1,0,-1
505 244 m 1,22,-1
 592 649 l 1,23,-1
 592 652 l 1,24,-1
 565 650 l 1,25,-1
 254 244 l 1,26,-1
 505 244 l 1,22,-1
EndSplineSet
EndChar
StartChar: Eth
Encoding: 208 208 145
Width: 711
VWidth: 1494
Flags: W
HStem: 0 58<169 419.365> 332 57<85 169 239 389> 650 59<294 507.247>
Fore
169 332 m 1,0,-1
 73 332 l 1,1,-1
 85 389 l 1,2,-1
 181 389 l 1,3,-1
 236 650 l 1,4,5
 236 656 236 656 233 661.5 c 128,-1,6
 230 667 230 667 227 673 c 128,-1,7
 224 679 224 679 222.5 684 c 128,-1,8
 221 689 221 689 224 697 c 256,9,10
 227 704 227 704 238.5 713 c 128,-1,11
 250 722 250 722 265 722 c 0,12,13
 274 722 274 722 284 709 c 1,14,-1
 422 709 l 2,15,16
 499 709 499 709 562 686.5 c 128,-1,17
 625 664 625 664 664.5 619.5 c 128,-1,18
 704 575 704 575 717.5 508.5 c 128,-1,19
 731 442 731 442 713 356 c 0,20,21
 695 268 695 268 653 201.5 c 128,-1,22
 611 135 611 135 553 90 c 128,-1,23
 495 45 495 45 422.5 22.5 c 128,-1,24
 350 0 350 0 272 0 c 2,25,-1
 99 0 l 1,26,-1
 169 332 l 1,0,-1
297 58 m 2,27,28
 365 58 365 58 423 79 c 128,-1,29
 481 100 481 100 527 139.5 c 128,-1,30
 573 179 573 179 605 233.5 c 128,-1,31
 637 288 637 288 650 356 c 0,32,33
 667 433 667 433 653.5 489.5 c 128,-1,34
 640 546 640 546 602.5 581.5 c 128,-1,35
 565 617 565 617 509 633.5 c 128,-1,36
 453 650 453 650 384 650 c 2,37,-1
 294 650 l 1,38,-1
 239 389 l 1,39,-1
 401 389 l 1,40,-1
 389 332 l 1,41,-1
 227 332 l 1,42,-1
 169 58 l 1,43,-1
 297 58 l 2,27,28
EndSplineSet
EndChar
StartChar: multiply
Encoding: 215 215 152
Width: 597
VWidth: 1494
Flags: W
HStem: 24 439<220 490 220 220>
Fore
537 61 m 1,0,-1
 490 24 l 1,1,-1
 344 209 l 1,2,-1
 129 30 l 1,3,-1
 99 67 l 1,4,-1
 314 245 l 1,5,-1
 173 425 l 1,6,-1
 220 463 l 1,7,-1
 362 284 l 1,8,-1
 574 463 l 1,9,-1
 604 425 l 1,10,-1
 392 247 l 1,11,-1
 537 61 l 1,0,-1
EndSplineSet
EndChar
StartChar: Oslash
Encoding: 216 216 153
Width: 696
VWidth: 1494
Flags: W
HStem: -6 55<294.767 456.501> 677 55<392.827 580.648>
VStem: 129.5 58<141.374 196 196 314.844> 660.5 60<416.587 490.5 490.5 589.144>
Fore
677 653 m 1,0,1
 712 605 712 605 720.5 532 c 128,-1,2
 729 459 729 459 709 365 c 0,3,4
 691 281 691 281 658 213 c 128,-1,5
 625 145 625 145 578.5 96.5 c 128,-1,6
 532 48 532 48 473 21 c 128,-1,7
 414 -6 414 -6 347 -6 c 0,8,9
 259 -6 259 -6 206 37 c 1,10,-1
 121 -72 l 2,11,12
 114 -81 114 -81 108.5 -78 c 128,-1,13
 103 -75 103 -75 94 -70 c 1,14,15
 87 -64 87 -64 80 -59.5 c 128,-1,16
 73 -55 73 -55 81 -46 c 2,17,-1
 172 72 l 1,18,19
 138 121 138 121 129.5 196 c 128,-1,20
 121 271 121 271 141 365 c 0,21,22
 158 447 158 447 191 515 c 128,-1,23
 224 583 224 583 270.5 631 c 128,-1,24
 317 679 317 679 376 705.5 c 128,-1,25
 435 732 435 732 504 732 c 0,26,27
 592 732 592 732 644 689 c 1,28,-1
 716 783 l 2,29,30
 723 792 723 792 729 788.5 c 128,-1,31
 735 785 735 785 743 780 c 0,32,33
 752 774 752 774 758 770.5 c 128,-1,34
 764 767 764 767 756 758 c 2,35,-1
 677 653 l 1,0,1
199 365 m 0,36,37
 185 297 185 297 187.5 235 c 128,-1,38
 190 173 190 173 215 129 c 1,39,-1
 604 637 l 1,40,41
 564 677 564 677 492 677 c 0,42,43
 431 677 431 677 382 650 c 128,-1,44
 333 623 333 623 296.5 579 c 128,-1,45
 260 535 260 535 235.5 479 c 128,-1,46
 211 423 211 423 199 365 c 0,36,37
359 49 m 0,47,48
 419 49 419 49 467.5 76 c 128,-1,49
 516 103 516 103 551.5 148 c 128,-1,50
 587 193 587 193 612 249.5 c 128,-1,51
 637 306 637 306 649 365 c 0,52,53
 662 429 662 429 660.5 490.5 c 128,-1,54
 659 552 659 552 635 598 c 1,55,-1
 245 90 l 1,56,57
 266 70 266 70 293.5 59.5 c 128,-1,58
 321 49 321 49 359 49 c 0,47,48
EndSplineSet
EndChar
StartChar: Thorn
Encoding: 222 222 159
Width: 588
VWidth: 1494
Flags: W
HStem: 0 21G<81 133.046> 173 51<175 423.574> 547 46<254 428.369> 706 20G<230.758 283>
Fore
601 392 m 0,0,1
 575 275 575 275 489.5 224 c 128,-1,2
 404 173 404 173 274 173 c 2,3,-1
 164 173 l 1,4,-1
 129 0 l 1,5,-1
 81 0 l 1,6,-1
 235 726 l 1,7,-1
 283 726 l 1,8,-1
 254 593 l 1,9,-1
 390 593 l 2,10,11
 444 593 444 593 488 581.5 c 128,-1,12
 532 570 532 570 560.5 545 c 128,-1,13
 589 520 589 520 600 482 c 128,-1,14
 611 444 611 444 601 392 c 0,0,1
549 384 m 0,15,16
 558 428 558 428 548 458.5 c 128,-1,17
 538 489 538 489 514 509 c 128,-1,18
 490 529 490 529 456 538 c 128,-1,19
 422 547 422 547 381 547 c 2,20,-1
 244 547 l 1,21,-1
 175 224 l 1,22,-1
 287 224 l 2,23,24
 398 224 398 224 464.5 261.5 c 128,-1,25
 531 299 531 299 549 384 c 0,15,16
EndSplineSet
EndChar
StartChar: uni00DF
Encoding: 223 223 160
Width: 618
VWidth: 1494
Flags: W
HStem: -13 49<199 393.202> 472 50<290 440.133> 746.5 36.5<397.152 492.774>
Fore
595 398 m 0,0,1
 610 368 610 368 611.5 331 c 128,-1,2
 613 294 613 294 604 251 c 0,3,4
 592 199 592 199 566 151 c 128,-1,5
 540 103 540 103 501.5 67 c 128,-1,6
 463 31 463 31 414 9.5 c 128,-1,7
 365 -12 365 -12 309 -12 c 2,8,-1
 188 -13 l 1,9,-1
 199 36 l 1,10,-1
 306 36 l 2,11,12
 353 36 353 36 394.5 53 c 128,-1,13
 436 70 436 70 470 100 c 128,-1,14
 504 130 504 130 527 170.5 c 128,-1,15
 550 211 550 211 559 256 c 256,16,17
 568 300 568 300 558.5 340 c 128,-1,18
 549 380 549 380 525 409 c 128,-1,19
 501 438 501 438 464.5 455 c 128,-1,20
 428 472 428 472 383 472 c 2,21,-1
 280 472 l 1,22,-1
 290 522 l 1,23,-1
 396 522 l 1,24,-1
 398 522 l 1,25,-1
 399 522 l 2,26,27
 420 522 420 522 443 524 c 128,-1,28
 466 526 466 526 487 535 c 128,-1,29
 508 544 508 544 525.5 562.5 c 128,-1,30
 543 581 543 581 550 613 c 0,31,32
 561 656 561 656 552.5 682.5 c 128,-1,33
 544 709 544 709 523 722 c 0,34,35
 493 746 493 746 445.5 746.5 c 128,-1,36
 398 747 398 747 356 725 c 0,37,38
 347 720 347 720 333.5 710.5 c 128,-1,39
 320 701 320 701 306.5 684 c 128,-1,40
 293 667 293 667 281 640 c 128,-1,41
 269 613 269 613 260 573 c 2,42,-1
 88 -238 l 1,43,-1
 40 -238 l 1,44,-1
 214 581 l 2,45,46
 223 625 223 625 244 662.5 c 128,-1,47
 265 700 265 700 294.5 727.5 c 128,-1,48
 324 755 324 755 363 770 c 128,-1,49
 402 785 402 785 448 783 c 0,50,51
 483 783 483 783 513 775.5 c 128,-1,52
 543 768 543 768 567 746 c 0,53,54
 595 719 595 719 601.5 687 c 128,-1,55
 608 655 608 655 601 620 c 0,56,57
 596 596 596 596 583.5 574 c 128,-1,58
 571 552 571 552 556 534.5 c 128,-1,59
 541 517 541 517 524.5 506 c 128,-1,60
 508 495 508 495 496 493 c 1,61,62
 531 475 531 475 555.5 452 c 128,-1,63
 580 429 580 429 595 398 c 0,0,1
EndSplineSet
EndChar
StartChar: ae
Encoding: 230 230 167
Width: 941
VWidth: 1494
Flags: W
HStem: -19 55<197.275 349.491> -7 54<622.969 642.5 642.5 680 680 707.599 707.599 717.5 741 782.816> 241 56<561 901> 474 55<281.678 431.755> 490 51<686.448 847.841>
VStem: 90 52.5<109.517 155.5 155.5 235.343> 906.5 56.5<305.265 398.07>
Fore
785 541 m 0,0,1
 861 541 861 541 898.5 508 c 128,-1,2
 936 475 936 475 951 431 c 128,-1,3
 966 387 966 387 963 343.5 c 128,-1,4
 960 300 960 300 955 278 c 256,5,6
 951 256 951 256 939 247 c 0,7,8
 931 241 931 241 904 241 c 2,9,-1
 552 241 l 1,10,11
 537 170 537 170 557 126 c 128,-1,12
 577 82 577 82 622 61 c 0,13,14
 653 48 653 48 684 47 c 128,-1,15
 715 46 715 46 741 53 c 128,-1,16
 767 60 767 60 786.5 70.5 c 128,-1,17
 806 81 806 81 816 87 c 1,18,-1
 842 39 l 1,19,20
 821 27 821 27 788 15 c 128,-1,21
 755 3 755 3 717.5 -3.5 c 128,-1,22
 680 -10 680 -10 642.5 -7 c 128,-1,23
 605 -4 605 -4 575 12 c 0,24,25
 532 34 532 34 510 78 c 1,26,-1
 508 73 l 1,27,-1
 496 -3 l 1,28,-1
 435 -3 l 1,29,-1
 451 78 l 1,30,31
 416 34 416 34 367 7.5 c 128,-1,32
 318 -19 318 -19 257 -19 c 0,33,34
 202 -19 202 -19 166 4.5 c 128,-1,35
 130 28 130 28 111.5 67 c 128,-1,36
 93 106 93 106 90 155.5 c 128,-1,37
 87 205 87 205 97 256 c 256,38,39
 108 306 108 306 131.5 355 c 128,-1,40
 155 404 155 404 190.5 442.5 c 128,-1,41
 226 481 226 481 272 505 c 128,-1,42
 318 529 318 529 374 529 c 0,43,44
 435 529 435 529 471.5 503.5 c 128,-1,45
 508 478 508 478 526 435 c 1,46,-1
 547 531 l 1,47,-1
 605 531 l 1,48,-1
 589 453 l 1,49,50
 625 492 625 492 673.5 516.5 c 128,-1,51
 722 541 722 541 785 541 c 0,0,1
269 36 m 0,52,53
 311 36 311 36 345.5 53 c 128,-1,54
 380 70 380 70 406.5 97 c 128,-1,55
 433 124 433 124 452.5 157.5 c 128,-1,56
 472 191 472 191 483 226 c 2,57,-1
 495 286 l 2,58,59
 499 318 499 318 494 352 c 128,-1,60
 489 386 489 386 473 412.5 c 128,-1,61
 457 439 457 439 429.5 456.5 c 128,-1,62
 402 474 402 474 362 474 c 0,63,64
 318 474 318 474 281.5 453 c 128,-1,65
 245 432 245 432 218 400.5 c 128,-1,66
 191 369 191 369 173 330 c 128,-1,67
 155 291 155 291 148 256 c 0,68,69
 141 218 141 218 142.5 179.5 c 128,-1,70
 144 141 144 141 157 108.5 c 128,-1,71
 170 76 170 76 198 56 c 128,-1,72
 226 36 226 36 269 36 c 0,52,53
901 297 m 1,73,74
 909 326 909 326 906.5 360.5 c 128,-1,75
 904 395 904 395 890 423 c 128,-1,76
 876 451 876 451 847 470.5 c 128,-1,77
 818 490 818 490 771 490 c 0,78,79
 723 490 723 490 687.5 470 c 128,-1,80
 652 450 652 450 625.5 420 c 128,-1,81
 599 390 599 390 583 356.5 c 128,-1,82
 567 323 567 323 561 297 c 1,83,-1
 901 297 l 1,73,74
EndSplineSet
EndChar
StartChar: eth
Encoding: 240 240 177
Width: 621
VWidth: 1494
Flags: W
HStem: -13 49<231.532 395.305> 481 50<318.212 479.191>
VStem: 573 66<319.182 358.5 358.5 418.474>
Fore
628 272 m 0,0,1
 611 197 611 197 577 142.5 c 128,-1,2
 543 88 543 88 497 53.5 c 128,-1,3
 451 19 451 19 399.5 3 c 128,-1,4
 348 -13 348 -13 300 -13 c 0,5,6
 244 -13 244 -13 200.5 7 c 128,-1,7
 157 27 157 27 131 63 c 128,-1,8
 105 99 105 99 96 146.5 c 128,-1,9
 87 194 87 194 99 251 c 0,10,11
 112 315 112 315 145.5 367 c 128,-1,12
 179 419 179 419 224 455.5 c 128,-1,13
 269 492 269 492 320 511.5 c 128,-1,14
 371 531 371 531 420 531 c 0,15,16
 463 531 463 531 501.5 519 c 128,-1,17
 540 507 540 507 575 469 c 1,18,19
 556 517 556 517 526 559.5 c 128,-1,20
 496 602 496 602 453 643 c 1,21,22
 405 623 405 623 358.5 603 c 128,-1,23
 312 583 312 583 266 564 c 1,24,-1
 257 607 l 1,25,-1
 413 674 l 1,26,27
 390 691 390 691 360 706.5 c 128,-1,28
 330 722 330 722 299 734 c 1,29,-1
 333 783 l 1,30,31
 371 765 371 765 406.5 745 c 128,-1,32
 442 725 442 725 472 700 c 1,33,34
 510 716 510 716 551 734 c 128,-1,35
 592 752 592 752 629 768 c 1,36,-1
 640 722 l 1,37,-1
 510 668 l 1,38,39
 552 629 552 629 580 582 c 128,-1,40
 608 535 608 535 626 481 c 0,41,42
 638 433 638 433 639 382.5 c 128,-1,43
 640 332 640 332 628 272 c 0,0,1
567 265 m 256,44,45
 578 321 578 321 573 358.5 c 128,-1,46
 568 396 568 396 549 422 c 0,47,48
 528 442 528 442 495 461.5 c 128,-1,49
 462 481 462 481 410 481 c 0,50,51
 356 481 356 481 313.5 460 c 128,-1,52
 271 439 271 439 238 406.5 c 128,-1,53
 205 374 205 374 184 333.5 c 128,-1,54
 163 293 163 293 154 253 c 0,55,56
 144 200 144 200 152.5 160 c 128,-1,57
 161 120 161 120 183.5 92 c 128,-1,58
 206 64 206 64 239 50 c 128,-1,59
 272 36 272 36 309 36 c 0,60,61
 353 36 353 36 394 51 c 128,-1,62
 435 66 435 66 469.5 94.5 c 128,-1,63
 504 123 504 123 529.5 165.5 c 128,-1,64
 555 208 555 208 567 265 c 256,44,45
EndSplineSet
EndChar
StartChar: divide
Encoding: 247 247 184
Width: 690
VWidth: 1494
Flags: W
HStem: 37 95<336.047 387.984> 215 59<152 631>
VStem: 314 94<62.5415 117.046> 383 94<368.954 422.285>
Fore
631 215 m 1,0,-1
 141 215 l 1,1,-1
 152 274 l 1,2,-1
 643 274 l 1,3,-1
 631 215 l 1,0,-1
477 402 m 0,4,5
 472 383 472 383 455.5 368.5 c 128,-1,6
 439 354 439 354 420 354 c 256,7,8
 401 354 401 354 389.5 368.5 c 128,-1,9
 378 383 378 383 383 402 c 0,10,11
 386 422 386 422 403 435 c 128,-1,12
 420 448 420 448 439 448 c 256,13,14
 459 448 459 448 469.5 435 c 128,-1,15
 480 422 480 422 477 402 c 0,4,5
408 84 m 0,16,17
 405 64 405 64 388.5 50.5 c 128,-1,18
 372 37 372 37 353 37 c 256,19,20
 333 37 333 37 322 50.5 c 128,-1,21
 311 64 311 64 314 84 c 0,22,23
 318 103 318 103 335.5 117.5 c 128,-1,24
 353 132 353 132 372 132 c 256,25,26
 392 132 392 132 402.5 117.5 c 128,-1,27
 413 103 413 103 408 84 c 0,16,17
EndSplineSet
EndChar
StartChar: oslash
Encoding: 248 248 185
Width: 524
VWidth: 1494
Flags: W
HStem: 1 54<221.854 348.683> 469 54<289.081 429.57>
VStem: 107 56.5<110.002 148.5 148.5 242.537> 476 57<282.337 338 338 407.029>
Fore
501 462 m 1,0,1
 528 425 528 425 533 371.5 c 128,-1,2
 538 318 538 318 526 263 c 0,3,4
 516 214 516 214 493.5 167.5 c 128,-1,5
 471 121 471 121 437.5 83.5 c 128,-1,6
 404 46 404 46 360.5 23.5 c 128,-1,7
 317 1 317 1 265 1 c 0,8,9
 235 1 235 1 211 8.5 c 128,-1,10
 187 16 187 16 170 28 c 1,11,-1
 109 -49 l 2,12,13
 105 -57 105 -57 99.5 -54.5 c 128,-1,14
 94 -52 94 -52 87 -48 c 256,15,16
 79 -43 79 -43 75.5 -39.5 c 128,-1,17
 72 -36 72 -36 78 -28 c 2,18,-1
 141 55 l 1,19,20
 112 94 112 94 107 148.5 c 128,-1,21
 102 203 102 203 114 263 c 0,22,23
 124 311 124 311 145.5 358 c 128,-1,24
 167 405 167 405 201 441.5 c 128,-1,25
 235 478 235 478 278 500.5 c 128,-1,26
 321 523 321 523 375 523 c 0,27,28
 435 523 435 523 474 492 c 1,29,-1
 532 565 l 2,30,31
 538 573 538 573 542.5 570 c 128,-1,32
 547 567 547 567 555 564 c 1,33,34
 562 559 562 559 566 555.5 c 128,-1,35
 570 552 570 552 565 544 c 2,36,-1
 501 462 l 1,0,1
170 263 m 0,37,38
 161 224 161 224 163.5 182.5 c 128,-1,39
 166 141 166 141 182 109 c 1,40,-1
 436 441 l 1,41,42
 411 469 411 469 363 469 c 0,43,44
 323 469 323 469 291 450 c 128,-1,45
 259 431 259 431 234 401 c 128,-1,46
 209 371 209 371 193.5 334 c 128,-1,47
 178 297 178 297 170 263 c 0,37,38
275 55 m 256,48,49
 315 55 315 55 347.5 74.5 c 128,-1,50
 380 94 380 94 404.5 124.5 c 128,-1,51
 429 155 429 155 445.5 192 c 128,-1,52
 462 229 462 229 469 263 c 0,53,54
 477 299 477 299 476 338 c 128,-1,55
 475 377 475 377 460 408 c 1,56,-1
 208 79 l 1,57,58
 235 55 235 55 275 55 c 256,48,49
EndSplineSet
EndChar
StartChar: thorn
Encoding: 254 254 191
Width: 677
VWidth: 1494
Flags: W
HStem: -13 47<269.546 438.96> 483 48<356.853 525.9> 699 20G<230.725 286>
Fore
235 719 m 1,0,-1
 286 719 l 1,1,-1
 220 414 l 1,2,3
 265 466 265 466 327 498.5 c 128,-1,4
 389 531 389 531 456 531 c 0,5,6
 510 531 510 531 553 510 c 128,-1,7
 596 489 596 489 623 451.5 c 128,-1,8
 650 414 650 414 660 364.5 c 128,-1,9
 670 315 670 315 658 259 c 256,10,11
 646 202 646 202 615 152.5 c 128,-1,12
 584 103 584 103 541.5 65.5 c 128,-1,13
 499 28 499 28 447 7.5 c 128,-1,14
 395 -13 395 -13 341 -13 c 0,15,16
 274 -13 274 -13 225 18 c 128,-1,17
 176 49 176 49 154 102 c 1,18,-1
 87 -212 l 1,19,-1
 36 -212 l 1,20,-1
 235 719 l 1,0,-1
188 259 m 0,21,22
 179 212 179 212 186.5 171 c 128,-1,23
 194 130 194 130 216 100 c 128,-1,24
 238 70 238 70 272 52 c 128,-1,25
 306 34 306 34 350 34 c 256,26,27
 393 34 393 34 435.5 52 c 128,-1,28
 478 70 478 70 512.5 100 c 128,-1,29
 547 130 547 130 572.5 171 c 128,-1,30
 598 212 598 212 607 259 c 0,31,32
 617 305 617 305 609.5 346 c 128,-1,33
 602 387 602 387 580 417 c 128,-1,34
 558 447 558 447 523.5 465 c 128,-1,35
 489 483 489 483 445 483 c 256,36,37
 402 483 402 483 360 465 c 128,-1,38
 318 447 318 447 283 417 c 128,-1,39
 248 387 248 387 223.5 346 c 128,-1,40
 199 305 199 305 188 259 c 0,21,22
EndSplineSet
EndChar
StartChar: Lslash
Encoding: 321 321 193
Width: 475
VWidth: 1494
Flags: W
HStem: 0 52<160 456> 689 20G<236.765 299>
VStem: 45 421<52 247 -48.6403 247>
Fore
45 247 m 1,0,-1
 57 303 l 1,1,-1
 169 369 l 1,2,-1
 241 709 l 1,3,-1
 299 709 l 1,4,-1
 236 408 l 1,5,-1
 413 511 l 1,6,-1
 401 454 l 1,7,-1
 223 351 l 1,8,-1
 160 52 l 1,9,-1
 466 52 l 1,10,-1
 456 0 l 1,11,-1
 127 0 l 1,12,13
 120 -7 120 -7 111 -12.5 c 128,-1,14
 102 -18 102 -18 97 -18 c 0,15,16
 82 -18 82 -18 75.5 -6 c 128,-1,17
 69 6 69 6 67 13 c 0,18,19
 67 19 67 19 71.5 24.5 c 128,-1,20
 76 30 76 30 83 35 c 128,-1,21
 90 40 90 40 96 48.5 c 128,-1,22
 102 57 102 57 105 70 c 2,23,-1
 157 312 l 1,24,-1
 45 247 l 1,0,-1
EndSplineSet
EndChar
StartChar: lslash
Encoding: 322 322 194
Width: 242
VWidth: 1494
Flags: W
HStem: 0 21G<91 149.205>
VStem: 75 254<286 511 756.739 1043.45>
Fore
227 390 m 1,0,-1
 145 0 l 1,1,-1
 91 0 l 1,2,-1
 164 350 l 1,3,4
 144 335 144 335 120 317.5 c 128,-1,5
 96 300 96 300 75 286 c 1,6,-1
 87 342 l 1,7,-1
 176 404 l 1,8,-1
 248 741 l 1,9,-1
 281 770 l 1,10,-1
 308 770 l 1,11,-1
 239 450 l 1,12,13
 260 465 260 465 284 480.5 c 128,-1,14
 308 496 308 496 329 511 c 1,15,-1
 317 454 l 1,16,-1
 227 390 l 1,0,-1
EndSplineSet
EndChar
StartChar: OE
Encoding: 338 338 195
Width: 958
VWidth: 1494
Flags: W
HStem: -19 55<246.795 434.019> 0 58<628 924> 338 58<700 964> 650 59<753 1063> 664 55<370.331 557.189>
VStem: 104.5 60.5<135.378 198 198 291.691>
Fore
336 36 m 0,0,1
 396 36 396 36 444.5 63 c 128,-1,2
 493 90 493 90 529 134 c 128,-1,3
 565 178 565 178 589.5 234.5 c 128,-1,4
 614 291 614 291 626 350 c 256,5,6
 638 408 638 408 638 464 c 128,-1,7
 638 520 638 520 620 565 c 128,-1,8
 602 610 602 610 565.5 637 c 128,-1,9
 529 664 529 664 469 664 c 0,10,11
 408 664 408 664 359.5 637 c 128,-1,12
 311 610 311 610 274.5 565 c 128,-1,13
 238 520 238 520 213 464 c 128,-1,14
 188 408 188 408 176 350 c 256,15,16
 164 291 164 291 165 234.5 c 128,-1,17
 166 178 166 178 184 134 c 128,-1,18
 202 90 202 90 238.5 63 c 128,-1,19
 275 36 275 36 336 36 c 0,0,1
481 719 m 0,20,21
 558 719 558 719 608 685.5 c 128,-1,22
 658 652 658 652 680 590 c 1,23,-1
 694 650 l 1,24,25
 694 656 694 656 691 661.5 c 128,-1,26
 688 667 688 667 685 673 c 128,-1,27
 682 679 682 679 680.5 684 c 128,-1,28
 679 689 679 689 682 697 c 256,29,30
 685 704 685 704 696 713 c 128,-1,31
 707 722 707 722 722 722 c 0,32,33
 731 722 731 722 741 709 c 1,34,-1
 1075 709 l 1,35,-1
 1063 650 l 1,36,-1
 753 650 l 1,37,-1
 700 396 l 1,38,-1
 976 396 l 1,39,-1
 964 338 l 1,40,-1
 688 338 l 1,41,-1
 628 58 l 1,42,-1
 936 58 l 1,43,-1
 924 0 l 1,44,-1
 556 0 l 1,45,-1
 578 108 l 1,46,47
 529 46 529 46 465 13.5 c 128,-1,48
 401 -19 401 -19 324 -19 c 0,49,50
 256 -19 256 -19 208 7.5 c 128,-1,51
 160 34 160 34 134.5 82 c 128,-1,52
 109 130 109 130 104.5 198 c 128,-1,53
 100 266 100 266 118 350 c 0,54,55
 136 432 136 432 169 501 c 128,-1,56
 202 570 202 570 248 617.5 c 128,-1,57
 294 665 294 665 353.5 692 c 128,-1,58
 413 719 413 719 481 719 c 0,20,21
EndSplineSet
EndChar
StartChar: oe
Encoding: 339 339 196
Width: 896
VWidth: 1494
Flags: W
HStem: -1 55<202.084 338.883 616.875 639.777 639.777 666.467 666.467 678 700.5 742.92> 233 55<528 852> 468 54<286.436 417.171 650.281 804.816>
VStem: 96 58.5<124.454 164.5 164.5 240.197> 858.5 52.5<300.076 383.002>
Fore
741 520 m 0,0,1
 813 520 813 520 849.5 488.5 c 128,-1,2
 886 457 886 457 899.5 415.5 c 128,-1,3
 913 374 913 374 911 332 c 128,-1,4
 909 290 909 290 904 269 c 0,5,6
 898 245 898 245 888.5 240 c 128,-1,7
 879 235 879 235 855 233 c 2,8,-1
 520 233 l 1,9,10
 505 166 505 166 524.5 124 c 128,-1,11
 544 82 544 82 587 63 c 0,12,13
 617 49 617 49 646.5 49 c 128,-1,14
 676 49 676 49 700.5 56 c 128,-1,15
 725 63 725 63 743.5 72 c 128,-1,16
 762 81 762 81 771 87 c 1,17,-1
 795 43 l 1,18,19
 776 31 776 31 744.5 20 c 128,-1,20
 713 9 713 9 678 3 c 128,-1,21
 643 -3 643 -3 607 -1.5 c 128,-1,22
 571 0 571 0 543 16 c 256,23,24
 514 33 514 33 493 58.5 c 128,-1,25
 472 84 472 84 460 121 c 1,26,27
 426 69 426 69 374.5 34 c 128,-1,28
 323 -1 323 -1 256 -1 c 0,29,30
 202 -1 202 -1 168.5 21 c 128,-1,31
 135 43 135 43 117 80.5 c 128,-1,32
 99 118 99 118 96 164.5 c 128,-1,33
 93 211 93 211 103 260 c 256,34,35
 114 309 114 309 136 355.5 c 128,-1,36
 158 402 158 402 192 439.5 c 128,-1,37
 226 477 226 477 270 499.5 c 128,-1,38
 314 522 314 522 368 522 c 0,39,40
 435 522 435 522 471.5 486 c 128,-1,41
 508 450 508 450 520 395 c 1,42,43
 558 447 558 447 612.5 483.5 c 128,-1,44
 667 520 667 520 741 520 c 0,0,1
268 54 m 0,45,46
 305 54 305 54 338 73.5 c 128,-1,47
 371 93 371 93 395.5 122 c 128,-1,48
 420 151 420 151 436.5 187 c 128,-1,49
 453 223 453 223 460 257 c 256,50,51
 468 291 468 291 467 328.5 c 128,-1,52
 466 366 466 366 455 397 c 128,-1,53
 444 428 444 428 420 448 c 128,-1,54
 396 468 396 468 356 468 c 256,55,56
 315 468 315 468 283 448.5 c 128,-1,57
 251 429 251 429 226.5 398.5 c 128,-1,58
 202 368 202 368 185.5 331 c 128,-1,59
 169 294 169 294 161 260 c 256,60,61
 154 226 154 226 154.5 190 c 128,-1,62
 155 154 155 154 167 123.5 c 128,-1,63
 179 93 179 93 203 73.5 c 128,-1,64
 227 54 227 54 268 54 c 0,45,46
852 288 m 1,65,66
 860 315 860 315 858.5 347.5 c 128,-1,67
 857 380 857 380 843.5 407.5 c 128,-1,68
 830 435 830 435 803 453.5 c 128,-1,69
 776 472 776 472 731 472 c 256,70,71
 686 472 686 472 651 452.5 c 128,-1,72
 616 433 616 433 590.5 405 c 128,-1,73
 565 377 565 377 549.5 344.5 c 128,-1,74
 534 312 534 312 528 288 c 1,75,-1
 852 288 l 1,65,66
EndSplineSet
EndChar
StartChar: florin
Encoding: 402 402 202
Width: 503
VWidth: 1494
Flags: W
HStem: -84 42<15 34.8268 34.8268 81.2427> 387 36<193 287 351 442> 692 20G<469.5 542.5>
Fore
562 649 m 1,0,1
 516 683 516 683 472.5 658.5 c 128,-1,2
 429 634 429 634 402 571 c 2,3,-1
 351 423 l 1,4,-1
 459 423 l 1,5,-1
 442 387 l 1,6,-1
 339 387 l 1,7,8
 330 360 330 360 316.5 320.5 c 128,-1,9
 303 281 303 281 288.5 239 c 128,-1,10
 274 197 274 197 259.5 157.5 c 128,-1,11
 245 118 245 118 235 91 c 0,12,13
 212 28 212 28 184.5 -9 c 128,-1,14
 157 -46 157 -46 125.5 -65.5 c 128,-1,15
 94 -85 94 -85 59.5 -88 c 128,-1,16
 25 -91 25 -91 -9 -84 c 1,17,-1
 15 -42 l 1,18,19
 69 -51 69 -51 109 -25.5 c 128,-1,20
 149 0 149 0 173 66 c 2,21,-1
 287 387 l 1,22,-1
 176 387 l 1,23,-1
 193 423 l 1,24,-1
 300 423 l 1,25,26
 302 429 302 429 309.5 450.5 c 128,-1,27
 317 472 317 472 325 497 c 128,-1,28
 333 522 333 522 340.5 543.5 c 128,-1,29
 348 565 348 565 351 573 c 0,30,31
 410 712 410 712 529 712 c 0,32,33
 556 712 556 712 575.5 700 c 128,-1,34
 595 688 595 688 601 682 c 1,35,-1
 562 649 l 1,0,1
EndSplineSet
EndChar
StartChar: circumflex
Encoding: 710 710 203
Width: 436
VWidth: 1494
Flags: W
HStem: 709 130<375 451 375 375>
VStem: 221 293<709 709 709 709>
Fore
451 709 m 1,0,-1
 384 788 l 1,1,-1
 287 709 l 1,2,-1
 221 709 l 1,3,-1
 375 839 l 1,4,-1
 416 839 l 1,5,-1
 514 709 l 1,6,-1
 451 709 l 1,0,-1
EndSplineSet
EndChar
StartChar: caron
Encoding: 711 711 204
Width: 506
VWidth: 1494
Flags: W
HStem: 709 130<414 570 570 570>
VStem: 283 287<839 839 839 839>
Fore
570 839 m 1,0,-1
 414 709 l 1,1,-1
 375 709 l 1,2,-1
 283 839 l 1,3,-1
 342 839 l 1,4,-1
 404 753 l 1,5,-1
 507 839 l 1,6,-1
 570 839 l 1,0,-1
EndSplineSet
EndChar
StartChar: breve
Encoding: 728 728 205
Width: 448
VWidth: 1494
Flags: W
HStem: 577 49<293.739 405.119>
VStem: 221 54<689.5 738>
Fore
541 738 m 1,0,1
 534 706 534 706 515 676.5 c 128,-1,2
 496 647 496 647 470 624.5 c 128,-1,3
 444 602 444 602 412.5 589.5 c 128,-1,4
 381 577 381 577 347 577 c 0,5,6
 314 577 314 577 286.5 589.5 c 128,-1,7
 259 602 259 602 243 624.5 c 128,-1,8
 227 647 227 647 220.5 676.5 c 128,-1,9
 214 706 214 706 221 738 c 1,10,-1
 275 738 l 1,11,12
 263 688 263 688 285.5 657 c 128,-1,13
 308 626 308 626 357 626 c 256,14,15
 407 626 407 626 441 657 c 128,-1,16
 475 688 475 688 487 738 c 1,17,-1
 541 738 l 1,0,1
EndSplineSet
EndChar
StartChar: dotaccent
Encoding: 729 729 206
Width: 236
VWidth: 1494
Flags: W
HStem: 637 107<233.564 294.921>
VStem: 211 107<652.986 727.499>
Fore
211 691 m 0,0,1
 215 712 215 712 233 728 c 128,-1,2
 251 744 251 744 275 744 c 256,3,4
 299 744 299 744 311 728 c 128,-1,5
 323 712 323 712 318 691 c 0,6,7
 314 668 314 668 295.5 652.5 c 128,-1,8
 277 637 277 637 253 637 c 256,9,10
 229 637 229 637 217.5 652.5 c 128,-1,11
 206 668 206 668 211 691 c 0,0,1
EndSplineSet
EndChar
StartChar: ring
Encoding: 730 730 207
Width: 415
VWidth: 1494
Flags: W
HStem: 604 45<307.419 390.116> 756 47<322.826 405.723>
VStem: 256 198<661 664 741 744 703 703 703 703>
Fore
256 703 m 0,0,1
 265 744 265 744 300 773.5 c 128,-1,2
 335 803 335 803 377 803 c 256,3,4
 419 803 419 803 441 773.5 c 128,-1,5
 463 744 463 744 454 703 c 0,6,7
 447 661 447 661 411 632.5 c 128,-1,8
 375 604 375 604 333 604 c 256,9,10
 291 604 291 604 269.5 632.5 c 128,-1,11
 248 661 248 661 256 703 c 0,0,1
302 703 m 0,12,13
 297 679 297 679 309 664 c 128,-1,14
 321 649 321 649 345 649 c 256,15,16
 369 649 369 649 387 664 c 128,-1,17
 405 679 405 679 410 703 c 0,18,19
 416 726 416 726 404 741 c 128,-1,20
 392 756 392 756 368 756 c 256,21,22
 344 756 344 756 326 741 c 128,-1,23
 308 726 308 726 302 703 c 0,12,13
EndSplineSet
EndChar
StartChar: tilde
Encoding: 732 732 209
Width: 331
VWidth: 1494
Flags: W
HStem: 611 95<206 445 445 445> 655 48<219.44 264.469>
VStem: 163 43<612.597 649.691> 404 41<676.981 706>
Fore
445 706 m 1,0,1
 436 665 436 665 411.5 638 c 128,-1,2
 387 611 387 611 351 611 c 0,3,4
 339 611 339 611 325 618 c 128,-1,5
 311 625 311 625 296 633 c 128,-1,6
 281 641 281 641 267.5 648 c 128,-1,7
 254 655 254 655 244 655 c 0,8,9
 230 655 230 655 221 640.5 c 128,-1,10
 212 626 212 626 206 605 c 1,11,-1
 163 605 l 1,12,13
 170 644 170 644 194 673.5 c 128,-1,14
 218 703 218 703 251 703 c 0,15,16
 268 703 268 703 283.5 697 c 128,-1,17
 299 691 299 691 314 683.5 c 128,-1,18
 329 676 329 676 342.5 669 c 128,-1,19
 356 662 356 662 368 661 c 0,20,21
 377 659 377 659 387.5 669 c 128,-1,22
 398 679 398 679 404 706 c 1,23,-1
 445 706 l 1,0,1
EndSplineSet
EndChar
StartChar: uni0E01
Encoding: 3585 3585 212
Width: 636
VWidth: 1494
Flags: W
HStem: 0 21G<135 197.183 490 553.159> 559 51<334.852 500.922>
Fore
583 436 m 2,0,1
 584 454 584 454 596 468 c 1,2,3
 593 474 593 474 583.5 489.5 c 128,-1,4
 574 505 574 505 556 520 c 128,-1,5
 538 535 538 535 508 547 c 128,-1,6
 478 559 478 559 435 559 c 0,7,8
 384 559 384 559 346 546.5 c 128,-1,9
 308 534 308 534 280.5 516 c 128,-1,10
 253 498 253 498 235 478.5 c 128,-1,11
 217 459 217 459 208 445 c 1,12,-1
 259 408 l 1,13,14
 271 420 271 420 292.5 434 c 128,-1,15
 314 448 314 448 332 451 c 0,16,17
 333 451 333 451 340.5 436.5 c 128,-1,18
 348 422 348 422 353 411 c 1,19,20
 303 390 303 390 282.5 359.5 c 128,-1,21
 262 329 262 329 257 306 c 2,22,-1
 193 0 l 1,23,-1
 135 0 l 1,24,-1
 199 308 l 2,25,26
 203 326 203 326 211.5 341.5 c 128,-1,27
 220 357 220 357 224 363 c 1,28,-1
 135 425 l 1,29,30
 139 433 139 433 158.5 462.5 c 128,-1,31
 178 492 178 492 216 525 c 128,-1,32
 254 558 254 558 310 583 c 128,-1,33
 366 608 366 608 444 610 c 0,34,35
 487 610 487 610 519.5 601.5 c 128,-1,36
 552 593 552 593 575 579 c 128,-1,37
 598 565 598 565 613.5 548 c 128,-1,38
 629 531 629 531 638 513 c 1,39,40
 643 516 643 516 651 514.5 c 128,-1,41
 659 513 659 513 668 501 c 0,42,43
 679 484 679 484 673.5 476.5 c 128,-1,44
 668 469 668 469 656 459 c 0,45,46
 643 448 643 448 638 428 c 2,47,-1
 549 0 l 1,48,-1
 490 0 l 1,49,-1
 583 436 l 2,0,1
EndSplineSet
EndChar
StartChar: uni0E02
Encoding: 3586 3586 213
Width: 562
VWidth: 1494
Flags: W
HStem: 0 57<251 428> 360 53<180.858 258.058> 557.5 50.5<291.938 361.139>
VStem: 126 475<462 598 556.589 574.294>
Fore
543 598 m 1,0,-1
 601 598 l 1,1,-1
 486 58 l 2,2,3
 481 37 481 37 460 21 c 0,4,5
 439 0 439 0 401 0 c 2,6,-1
 211 0 l 2,7,8
 203 0 203 0 200 -2 c 128,-1,9
 197 -4 197 -4 190 -7 c 0,10,11
 178 -10 178 -10 172 -8.5 c 128,-1,12
 166 -7 166 -7 157 13 c 0,13,14
 154 24 154 24 158.5 29 c 128,-1,15
 163 34 163 34 176 42 c 0,16,17
 194 52 194 52 201.5 64 c 128,-1,18
 209 76 209 76 211 84 c 2,19,-1
 251 269 l 2,20,21
 259 300 259 300 279 321 c 128,-1,22
 299 342 299 342 320 359 c 0,23,24
 345 380 345 380 366 404.5 c 128,-1,25
 387 429 387 429 396 474 c 0,26,27
 401 501 401 501 392.5 519 c 128,-1,28
 384 537 384 537 367.5 546.5 c 128,-1,29
 351 556 351 556 330 557.5 c 128,-1,30
 309 559 309 559 288 553 c 1,31,32
 312 541 312 541 323.5 516.5 c 128,-1,33
 335 492 335 492 327 462 c 0,34,35
 318 419 318 419 283 389.5 c 128,-1,36
 248 360 248 360 205 360 c 0,37,38
 163 360 163 360 140 389.5 c 128,-1,39
 117 419 117 419 126 462 c 0,40,41
 136 517 136 517 193 564 c 0,42,43
 215 583 215 583 246 594 c 128,-1,44
 277 605 277 605 307.5 608 c 128,-1,45
 338 611 338 611 366.5 604.5 c 128,-1,46
 395 598 395 598 414 581 c 0,47,48
 436 564 436 564 446 535.5 c 128,-1,49
 456 507 456 507 450 477 c 0,50,51
 445 445 445 445 433.5 420.5 c 128,-1,52
 422 396 422 396 407 378 c 128,-1,53
 392 360 392 360 375.5 346 c 128,-1,54
 359 332 359 332 345 320 c 0,55,56
 326 303 326 303 319 293 c 128,-1,57
 312 283 312 283 309 269 c 2,58,-1
 271 91 l 2,59,60
 266 66 266 66 251 57 c 1,61,-1
 428 57 l 1,62,-1
 543 598 l 1,0,-1
215 413 m 256,63,64
 236 413 236 413 254 427 c 128,-1,65
 272 441 272 441 277 462 c 256,66,67
 281 483 281 483 269 497 c 128,-1,68
 257 511 257 511 236 511 c 256,69,70
 215 511 215 511 198 497 c 128,-1,71
 181 483 181 483 176 462 c 256,72,73
 172 441 172 441 183 427 c 128,-1,74
 194 413 194 413 215 413 c 256,63,64
EndSplineSet
EndChar
StartChar: uni0E03
Encoding: 3587 3587 214
Width: 615
VWidth: 1494
Flags: W
HStem: 0 57<312 486> 323 48<189.698 265.384> 466 50<219.813 278.268> 578 20G<596.749 658>
VStem: 125 60<389.826 451.82> 481 59<466.146 500.761 500.761 504.635 504.635 528.5>
Fore
543 58 m 2,0,1
 538 37 538 37 517 21 c 0,2,3
 496 0 496 0 457 0 c 2,4,-1
 272 0 l 2,5,6
 265 0 265 0 262 -2 c 128,-1,7
 259 -4 259 -4 251 -7 c 0,8,9
 239 -10 239 -10 233 -8.5 c 128,-1,10
 227 -7 227 -7 218 13 c 0,11,12
 215 24 215 24 219.5 29 c 128,-1,13
 224 34 224 34 238 42 c 0,14,15
 256 52 256 52 263.5 65 c 128,-1,16
 271 78 271 78 274 85 c 1,17,-1
 315 287 l 2,18,19
 321 314 321 314 334.5 335 c 128,-1,20
 348 356 348 356 365.5 371.5 c 128,-1,21
 383 387 383 387 401 400 c 128,-1,22
 419 413 419 413 433 423 c 0,23,24
 463 444 463 444 473 457.5 c 128,-1,25
 483 471 483 471 481 487 c 0,26,27
 480 507 480 507 474 528.5 c 128,-1,28
 468 550 468 550 459 558 c 1,29,30
 450 552 450 552 437.5 543 c 128,-1,31
 425 534 425 534 408 522 c 1,32,33
 414 505 414 505 410.5 497 c 128,-1,34
 407 489 407 489 395 484 c 0,35,36
 369 472 369 472 362 493 c 0,37,38
 350 537 350 537 318 552.5 c 128,-1,39
 286 568 286 568 253 556 c 0,40,41
 236 550 236 550 216.5 532 c 128,-1,42
 197 514 197 514 191 493 c 1,43,44
 205 502 205 502 222 509 c 128,-1,45
 239 516 239 516 256 516 c 0,46,47
 296 516 296 516 318.5 487.5 c 128,-1,48
 341 459 341 459 332 419 c 256,49,50
 323 378 323 378 288.5 350.5 c 128,-1,51
 254 323 254 323 214 323 c 0,52,53
 179 323 179 323 158.5 339.5 c 128,-1,54
 138 356 138 356 129.5 382 c 128,-1,55
 121 408 121 408 125 438.5 c 128,-1,56
 129 469 129 469 142 499 c 0,57,58
 176 570 176 570 244 598 c 0,59,60
 284 616 284 616 326.5 609 c 128,-1,61
 369 602 369 602 395 559 c 1,62,63
 423 581 423 581 441 591.5 c 128,-1,64
 459 602 459 602 469.5 606.5 c 128,-1,65
 480 611 480 611 485 609.5 c 128,-1,66
 490 608 490 608 495 607 c 1,67,68
 507 598 507 598 515 582.5 c 128,-1,69
 523 567 523 567 528.5 549.5 c 128,-1,70
 534 532 534 532 537 516.5 c 128,-1,71
 540 501 540 501 540 493 c 0,72,73
 540 471 540 471 532.5 455 c 128,-1,74
 525 439 525 439 513 427.5 c 128,-1,75
 501 416 501 416 486.5 406 c 128,-1,76
 472 396 472 396 457 386 c 0,77,78
 429 365 429 365 405 343 c 128,-1,79
 381 321 381 321 374 287 c 2,80,-1
 332 91 l 2,81,82
 327 66 327 66 312 57 c 1,83,-1
 486 57 l 1,84,-1
 601 598 l 1,85,-1
 658 598 l 1,86,-1
 543 58 l 2,0,1
245 466 m 256,87,88
 224 466 224 466 207 452.5 c 128,-1,89
 190 439 190 439 185 419 c 256,90,91
 181 398 181 398 192 384.5 c 128,-1,92
 203 371 203 371 224 371 c 256,93,94
 245 371 245 371 261.5 384.5 c 128,-1,95
 278 398 278 398 283 419 c 256,96,97
 287 439 287 439 276.5 452.5 c 128,-1,98
 266 466 266 466 245 466 c 256,87,88
EndSplineSet
EndChar
StartChar: uni0E04
Encoding: 3588 3588 215
Width: 650
VWidth: 1494
Flags: W
HStem: 0 21G<122.5 133.5 505 568.159> 275 49<367.265 441.668> 420 51<379.066 453.294> 559 51<346.144 516.751>
Fore
613 474 m 1,0,1
 614 474 614 474 607.5 486.5 c 128,-1,2
 601 499 601 499 581.5 515.5 c 128,-1,3
 562 532 562 532 530 545.5 c 128,-1,4
 498 559 498 559 447 559 c 0,5,6
 366 559 366 559 306.5 514 c 128,-1,7
 247 469 247 469 224 384 c 0,8,9
 212 341 212 341 207 299 c 128,-1,10
 202 257 202 257 199.5 222.5 c 128,-1,11
 197 188 197 188 195.5 163 c 128,-1,12
 194 138 194 138 191 126 c 1,13,14
 227 194 227 194 248 241 c 128,-1,15
 269 288 269 288 282.5 321 c 128,-1,16
 296 354 296 354 305 374.5 c 128,-1,17
 314 395 314 395 324 410 c 0,18,19
 366 471 366 471 431 471 c 0,20,21
 471 471 471 471 494 442 c 128,-1,22
 517 413 517 413 508 372 c 0,23,24
 501 332 501 332 466 303.5 c 128,-1,25
 431 275 431 275 390 275 c 0,26,27
 348 275 348 275 327 303 c 1,28,29
 314 275 314 275 297.5 240 c 128,-1,30
 281 205 281 205 261 165.5 c 128,-1,31
 241 126 241 126 213 86 c 128,-1,32
 185 46 185 46 149 9 c 0,33,34
 139 -1 139 -1 128 -1 c 128,-1,35
 117 -1 117 -1 109 6 c 0,36,37
 99 16 99 16 99.5 22 c 128,-1,38
 100 28 100 28 115 46 c 0,39,40
 135 69 135 69 139.5 102 c 128,-1,41
 144 135 144 135 145 177.5 c 128,-1,42
 146 220 146 220 149 273 c 128,-1,43
 152 326 152 326 169 389 c 0,44,45
 194 490 194 490 270.5 550 c 128,-1,46
 347 610 347 610 456 610 c 0,47,48
 499 610 499 610 531.5 601 c 128,-1,49
 564 592 564 592 587.5 578.5 c 128,-1,50
 611 565 611 565 627 548 c 128,-1,51
 643 531 643 531 653 513 c 1,52,53
 658 516 658 516 666 514.5 c 128,-1,54
 674 513 674 513 683 501 c 0,55,56
 694 484 694 484 688.5 476.5 c 128,-1,57
 683 469 683 469 671 459 c 0,58,59
 658 448 658 448 653 428 c 2,60,-1
 564 0 l 1,61,-1
 505 0 l 1,62,-1
 598 442 l 2,63,64
 602 462 602 462 613 474 c 1,0,1
457 372 m 0,65,66
 462 393 462 393 451.5 406.5 c 128,-1,67
 441 420 441 420 420 420 c 256,68,69
 399 420 399 420 382.5 406.5 c 128,-1,70
 366 393 366 393 362 372 c 0,71,72
 359 351 359 351 369.5 337.5 c 128,-1,73
 380 324 380 324 401 324 c 256,74,75
 422 324 422 324 438 337.5 c 128,-1,76
 454 351 454 351 457 372 c 0,65,66
EndSplineSet
EndChar
StartChar: uni0E05
Encoding: 3589 3589 216
Width: 650
VWidth: 1494
Flags: W
HStem: 0 21G<122.5 133.5 505 568.159> 256 50<366.234 441.668> 402 51<379.37 454.322>
VStem: 153 45<126.473 175 194 213.846 213.846 242.484 242.484 308.667>
Fore
611 471 m 1,0,1
 607 489 607 489 590 516 c 128,-1,2
 573 543 573 543 538 555 c 1,3,4
 531 552 531 552 510 536 c 128,-1,5
 489 520 489 520 465 499 c 1,6,7
 463 496 463 496 459.5 491 c 128,-1,8
 456 486 456 486 450 483 c 0,9,10
 438 475 438 475 431.5 480.5 c 128,-1,11
 425 486 425 486 419 495 c 0,12,13
 384 555 384 555 354 558 c 1,14,15
 305 546 305 546 275 513.5 c 128,-1,16
 245 481 245 481 229.5 438.5 c 128,-1,17
 214 396 214 396 208 346.5 c 128,-1,18
 202 297 202 297 200.5 253 c 128,-1,19
 199 209 199 209 198 175 c 128,-1,20
 197 141 197 141 191 126 c 1,21,22
 227 185 227 185 248 228 c 128,-1,23
 269 271 269 271 282.5 302 c 128,-1,24
 296 333 296 333 304 354 c 128,-1,25
 312 375 312 375 324 392 c 0,26,27
 368 453 368 453 432 453 c 0,28,29
 472 453 472 453 495.5 424 c 128,-1,30
 519 395 519 395 510 354 c 256,31,32
 501 314 501 314 466 285 c 128,-1,33
 431 256 431 256 390 256 c 0,34,35
 348 256 348 256 327 286 c 1,36,37
 299 229 299 229 261 156.5 c 128,-1,38
 223 84 223 84 149 9 c 0,39,40
 139 -1 139 -1 128 -1 c 128,-1,41
 117 -1 117 -1 109 6 c 0,42,43
 99 16 99 16 100.5 23 c 128,-1,44
 102 30 102 30 115 46 c 0,45,46
 135 70 135 70 140.5 108 c 128,-1,47
 146 146 146 146 148.5 194 c 128,-1,48
 151 242 151 242 153 296.5 c 128,-1,49
 155 351 155 351 169 410 c 0,50,51
 187 486 187 486 229.5 531.5 c 128,-1,52
 272 577 272 577 350 602 c 0,53,54
 377 610 377 610 404.5 590 c 128,-1,55
 432 570 432 570 450 543 c 1,56,57
 480 570 480 570 510 589 c 128,-1,58
 540 608 540 608 562 602 c 0,59,60
 602 586 602 586 624.5 560.5 c 128,-1,61
 647 535 647 535 658 514 c 1,62,63
 662 516 662 516 669 513.5 c 128,-1,64
 676 511 676 511 683 501 c 0,65,66
 694 484 694 484 688.5 476.5 c 128,-1,67
 683 469 683 469 671 459 c 0,68,69
 658 448 658 448 653 428 c 2,70,-1
 564 0 l 1,71,-1
 505 0 l 1,72,-1
 598 439 l 2,73,74
 601 448 601 448 603 455.5 c 128,-1,75
 605 463 605 463 611 471 c 1,0,1
459 354 m 256,76,77
 463 375 463 375 452.5 388.5 c 128,-1,78
 442 402 442 402 422 402 c 256,79,80
 401 402 401 402 383.5 388.5 c 128,-1,81
 366 375 366 375 362 354 c 256,82,83
 357 333 357 333 368.5 319.5 c 128,-1,84
 380 306 380 306 401 306 c 256,85,86
 422 306 422 306 438 319.5 c 128,-1,87
 454 333 454 333 459 354 c 256,76,77
EndSplineSet
EndChar
StartChar: uni0E06
Encoding: 3590 3590 217
Width: 717
VWidth: 1494
Flags: W
HStem: 0 21G<573 635.247> 320 48<192.646 266.911> 465 46<220.969 279.843> 578 20G<695.667 758>
VStem: 284 51<382.439 417 417 447.555> 504 51<477.953 533.51>
Fore
631 0 m 1,0,-1
 573 0 l 1,1,-1
 583 51 l 1,2,3
 567 102 567 102 534.5 133 c 128,-1,4
 502 164 502 164 468.5 180.5 c 128,-1,5
 435 197 435 197 406.5 203 c 128,-1,6
 378 209 378 209 369 211 c 1,7,-1
 342 84 l 2,8,9
 335 48 335 48 314.5 24 c 128,-1,10
 294 0 294 0 263 -6 c 0,11,12
 233 -10 233 -10 209 -0.5 c 128,-1,13
 185 9 185 9 171 28.5 c 128,-1,14
 157 48 157 48 153 75 c 128,-1,15
 149 102 149 102 158 132 c 0,16,17
 176 188 176 188 223.5 219.5 c 128,-1,18
 271 251 271 251 323 260 c 1,19,-1
 335 314 l 2,20,21
 341 341 341 341 353.5 360.5 c 128,-1,22
 366 380 366 380 382.5 395 c 128,-1,23
 399 410 399 410 417 421 c 128,-1,24
 435 432 435 432 450 442 c 0,25,26
 480 463 480 463 491 477.5 c 128,-1,27
 502 492 502 492 504 508 c 0,28,29
 505 529 505 529 495.5 544 c 128,-1,30
 486 559 486 559 481 562 c 1,31,32
 472 555 472 555 455.5 544.5 c 128,-1,33
 439 534 439 534 423 522 c 1,34,35
 428 504 428 504 423.5 496.5 c 128,-1,36
 419 489 419 489 410 486 c 1,37,38
 395 478 395 478 386.5 481 c 128,-1,39
 378 484 378 484 375 493 c 0,40,41
 363 538 363 538 334.5 552.5 c 128,-1,42
 306 567 306 567 268 555 c 0,43,44
 256 552 256 552 235.5 535.5 c 128,-1,45
 215 519 215 519 208 496 c 1,46,47
 218 504 218 504 231.5 507.5 c 128,-1,48
 245 511 245 511 256 511 c 0,49,50
 297 511 297 511 319.5 484 c 128,-1,51
 342 457 342 457 335 417 c 0,52,53
 326 375 326 375 291 347.5 c 128,-1,54
 256 320 256 320 215 320 c 0,55,56
 179 320 179 320 160.5 337 c 128,-1,57
 142 354 142 354 136 380.5 c 128,-1,58
 130 407 130 407 136 438 c 128,-1,59
 142 469 142 469 154 496 c 0,60,61
 170 534 170 534 198.5 560 c 128,-1,62
 227 586 227 586 251 596 c 0,63,64
 271 605 271 605 294 608 c 128,-1,65
 317 611 317 611 338 608 c 128,-1,66
 359 605 359 605 377.5 593 c 128,-1,67
 396 581 396 581 410 561 c 1,68,69
 438 581 438 581 455 592.5 c 128,-1,70
 472 604 472 604 482.5 607.5 c 128,-1,71
 493 611 493 611 498.5 609.5 c 128,-1,72
 504 608 504 608 508 607 c 0,73,74
 520 601 520 601 529 589.5 c 128,-1,75
 538 578 538 578 543.5 565 c 128,-1,76
 549 552 549 552 552 539 c 128,-1,77
 555 526 555 526 555 519 c 0,78,79
 556 474 556 474 530 450 c 128,-1,80
 504 426 504 426 475 407 c 256,81,82
 447 387 447 387 423 367 c 128,-1,83
 399 347 399 347 392 314 c 2,84,-1
 380 260 l 1,85,86
 389 260 389 260 413.5 256.5 c 128,-1,87
 438 253 438 253 471 241 c 128,-1,88
 504 229 504 229 539 205 c 128,-1,89
 574 181 574 181 601 141 c 1,90,-1
 700 598 l 1,91,-1
 758 598 l 1,92,-1
 631 0 l 1,0,-1
247 465 m 256,93,94
 226 465 226 465 209.5 451.5 c 128,-1,95
 193 438 193 438 188 417 c 256,96,97
 184 396 184 396 194.5 382 c 128,-1,98
 205 368 205 368 226 368 c 256,99,100
 247 368 247 368 263.5 382 c 128,-1,101
 280 396 280 396 284 417 c 256,102,103
 288 438 288 438 278 451.5 c 128,-1,104
 268 465 268 465 247 465 c 256,93,94
311 209 m 1,105,106
 297 206 297 206 282.5 201 c 128,-1,107
 268 196 268 196 253.5 187 c 128,-1,108
 239 178 239 178 227 163 c 128,-1,109
 215 148 215 148 208 126 c 0,110,111
 199 97 199 97 210 67 c 128,-1,112
 221 37 221 37 257 40 c 0,113,114
 277 42 277 42 283 72 c 2,115,-1
 311 209 l 1,105,106
EndSplineSet
EndChar
StartChar: uni0E07
Encoding: 3591 3591 218
Width: 485
VWidth: 1494
Flags: W
HStem: 410 50<365.684 423.368> 556 51<378.5 452.752>
VStem: 75 432<330 510 599.189 661.059>
Fore
120 369 m 1,0,1
 121 366 121 366 139 344.5 c 128,-1,2
 157 323 157 323 181.5 291 c 128,-1,3
 206 259 206 259 235.5 222 c 128,-1,4
 265 185 265 185 289.5 153 c 128,-1,5
 314 121 314 121 332 98 c 128,-1,6
 350 75 350 75 351 72 c 1,7,8
 359 76 359 76 362 87 c 2,9,-1
 365 96 l 1,10,-1
 433 420 l 1,11,12
 410 410 410 410 389 410 c 0,13,14
 347 410 347 410 324.5 439 c 128,-1,15
 302 468 302 468 311 508 c 0,16,17
 318 549 318 549 353.5 578 c 128,-1,18
 389 607 389 607 431 607 c 0,19,20
 471 607 471 607 493.5 578.5 c 128,-1,21
 516 550 516 550 507 510 c 2,22,23
 503 492.5 l 2,24,25
 499 475 499 475 493 447.5 c 128,-1,26
 487 420 487 420 479.5 385 c 128,-1,27
 472 350 472 350 465 312 c 2,28,-1
 423 115 l 2,29,30
 417 88 417 88 411 72.5 c 128,-1,31
 405 57 405 57 397 45 c 128,-1,32
 389 33 389 33 377.5 23 c 128,-1,33
 366 13 366 13 353 0 c 0,34,35
 339 -12 339 -12 332.5 -10.5 c 128,-1,36
 326 -9 326 -9 312 0 c 0,37,38
 303 6 303 6 304.5 11 c 128,-1,39
 306 16 306 16 315 28 c 1,40,41
 254 106 254 106 205 169 c 0,42,43
 184 196 184 196 162.5 223 c 128,-1,44
 141 250 141 250 123 272 c 128,-1,45
 105 294 105 294 92 310 c 128,-1,46
 79 326 79 326 75 330 c 1,47,-1
 120 369 l 1,0,1
399 460 m 0,48,49
 419 460 419 460 436 473.5 c 128,-1,50
 453 487 453 487 457 508 c 256,51,52
 462 529 462 529 450.5 542.5 c 128,-1,53
 439 556 439 556 420 556 c 0,54,55
 399 556 399 556 382.5 542.5 c 128,-1,56
 366 529 366 529 362 508 c 256,57,58
 357 487 357 487 367.5 473.5 c 128,-1,59
 378 460 378 460 399 460 c 0,48,49
EndSplineSet
EndChar
StartChar: uni0E08
Encoding: 3592 3592 219
Width: 597
VWidth: 1494
Flags: W
HStem: 254 49<294.475 368.731> 401 49<306.179 380.712> 558 50<307.356 472.326>
VStem: 103 49<320.657 449.687> 383 55<91 159 159 227 227 275 317.955 378.969>
Fore
466 61 m 2,0,1
 459 43 459 43 441 26.5 c 128,-1,2
 423 10 423 10 402 -4 c 0,3,4
 383 -15 383 -15 368 4 c 0,5,6
 363 10 363 10 364.5 16 c 128,-1,7
 366 22 366 22 370.5 26.5 c 128,-1,8
 375 31 375 31 381 35 c 128,-1,9
 387 39 387 39 390 43 c 1,10,-1
 383 275 l 1,11,12
 353 254 353 254 317 254 c 0,13,14
 277 254 277 254 254.5 282.5 c 128,-1,15
 232 311 232 311 241 353 c 0,16,17
 248 393 248 393 282.5 421.5 c 128,-1,18
 317 450 317 450 357 450 c 0,19,20
 396 450 396 450 417.5 425.5 c 128,-1,21
 439 401 439 401 438 363 c 2,22,-1
 432 91 l 1,23,-1
 555 445 l 2,24,25
 559 454 559 454 563 461.5 c 128,-1,26
 567 469 567 469 574 475 c 1,27,28
 567 486 567 486 552.5 500 c 128,-1,29
 538 514 538 514 517 527 c 128,-1,30
 496 540 496 540 467.5 549 c 128,-1,31
 439 558 439 558 405 558 c 0,32,33
 302 558 302 558 237 490 c 128,-1,34
 172 422 172 422 152 312 c 1,35,-1
 103 312 l 1,36,37
 117 390 117 390 146.5 446 c 128,-1,38
 176 502 176 502 219 538 c 128,-1,39
 262 574 262 574 312 591 c 128,-1,40
 362 608 362 608 416 608 c 0,41,42
 492 608 492 608 540.5 578.5 c 128,-1,43
 589 549 589 549 614 513 c 1,44,45
 619 516 619 516 627 514.5 c 128,-1,46
 635 513 635 513 643 498 c 0,47,48
 650 481 650 481 645 473.5 c 128,-1,49
 640 466 640 466 628 456 c 0,50,51
 623 453 623 453 616.5 447 c 128,-1,52
 610 441 610 441 605 429 c 2,53,-1
 466 61 l 2,0,1
327 303 m 256,54,55
 348 303 348 303 365.5 317.5 c 128,-1,56
 383 332 383 332 387 353 c 0,57,58
 390 372 390 372 379 386.5 c 128,-1,59
 368 401 368 401 347 401 c 256,60,61
 326 401 326 401 309.5 386.5 c 128,-1,62
 293 372 293 372 290 353 c 0,63,64
 286 332 286 332 296 317.5 c 128,-1,65
 306 303 306 303 327 303 c 256,54,55
EndSplineSet
EndChar
StartChar: uni0E09
Encoding: 3593 3593 220
Width: 636
VWidth: 1494
Flags: W
HStem: -1 50<467.767 552.915> 167 65<500.646 535> 227 45<186.885 238.294> 369 47<200.179 274.301> 558 52<350.332 486.273>
Fore
580 441 m 2,0,1
 583 450 583 450 585 457.5 c 128,-1,2
 587 465 587 465 595 472 c 1,3,4
 592 474 592 474 583 487.5 c 128,-1,5
 574 501 574 501 553 516.5 c 128,-1,6
 532 532 532 532 498.5 545 c 128,-1,7
 465 558 465 558 414 558 c 0,8,9
 381 558 381 558 346.5 549 c 128,-1,10
 312 540 312 540 280 523.5 c 128,-1,11
 248 507 248 507 221 480.5 c 128,-1,12
 194 454 194 454 176 422 c 1,13,-1
 155 428 l 2,14,15
 148 431 148 431 140.5 433 c 128,-1,16
 133 435 133 435 132 436 c 1,17,18
 146 468 146 468 174.5 499.5 c 128,-1,19
 203 531 203 531 241.5 555.5 c 128,-1,20
 280 580 280 580 326 595 c 128,-1,21
 372 610 372 610 425 610 c 0,22,23
 469 610 469 610 503.5 601 c 128,-1,24
 538 592 538 592 563.5 578.5 c 128,-1,25
 589 565 589 565 606 548 c 128,-1,26
 623 531 623 531 634 513 c 1,27,28
 638 516 638 516 646.5 514.5 c 128,-1,29
 655 513 655 513 664 501 c 0,30,31
 674 484 674 484 669 476.5 c 128,-1,32
 664 469 664 469 652 459 c 0,33,34
 638 448 638 448 634 428 c 2,35,-1
 587 208 l 1,36,37
 620 191 620 191 627 162 c 128,-1,38
 634 133 634 133 629 108 c 0,39,40
 619 61 619 61 580 30 c 128,-1,41
 541 -1 541 -1 495 -1 c 0,42,43
 451 -1 451 -1 423 27 c 128,-1,44
 395 55 395 55 407 108 c 0,45,46
 410 126 410 126 428.5 151 c 128,-1,47
 447 176 447 176 472 188 c 1,48,49
 416 182 416 182 370 150 c 128,-1,50
 324 118 324 118 290.5 83 c 128,-1,51
 257 48 257 48 235.5 20.5 c 128,-1,52
 214 -7 214 -7 205 -4 c 1,53,54
 194 -4 194 -4 186 3 c 128,-1,55
 178 10 178 10 176 18 c 1,56,57
 176 31 176 31 188 40 c 128,-1,58
 200 49 200 49 203 63 c 2,59,-1
 241 232 l 1,60,61
 227 227 227 227 211 227 c 0,62,63
 170 227 170 227 147 253.5 c 128,-1,64
 124 280 124 280 133 320 c 0,65,66
 142 362 142 362 176.5 389 c 128,-1,67
 211 416 211 416 251 416 c 256,68,69
 291 416 291 416 313.5 389 c 128,-1,70
 336 362 336 362 327 320 c 0,71,72
 323 296 323 296 309 277 c 0,73,74
 306 271 306 271 302.5 253.5 c 128,-1,75
 299 236 299 236 294.5 214.5 c 128,-1,76
 290 193 290 193 285 170.5 c 128,-1,77
 280 148 280 148 275 132 c 1,78,79
 303 161 303 161 337 182 c 128,-1,80
 371 203 371 203 406 216 c 128,-1,81
 441 229 441 229 474.5 232.5 c 128,-1,82
 508 236 508 236 535 232 c 1,83,-1
 580 441 l 2,0,1
182 320 m 0,84,85
 178 300 178 300 188.5 286 c 128,-1,86
 199 272 199 272 220 272 c 256,87,88
 241 272 241 272 257.5 286 c 128,-1,89
 274 300 274 300 278 320 c 0,90,91
 283 341 283 341 272.5 355 c 128,-1,92
 262 369 262 369 241 369 c 256,93,94
 220 369 220 369 203.5 355 c 128,-1,95
 187 341 187 341 182 320 c 0,84,85
507 49 m 256,96,97
 532 49 532 49 551.5 66.5 c 128,-1,98
 571 84 571 84 577 108 c 0,99,100
 581 132 581 132 568.5 149.5 c 128,-1,101
 556 167 556 167 531 167 c 0,102,103
 508 167 508 167 486.5 150 c 128,-1,104
 465 133 465 133 460 108 c 0,105,106
 456 85 456 85 468.5 67 c 128,-1,107
 481 49 481 49 507 49 c 256,96,97
EndSplineSet
EndChar
StartChar: uni0E0A
Encoding: 3594 3594 221
Width: 566
VWidth: 1494
Flags: W
HStem: 0 57<251 433> 348 50<166.044 240.484>
VStem: 112 49<417.496 479.949> 259 49<412.834 474.904>
Fore
492 58 m 2,0,1
 487 37 487 37 466 21 c 0,2,3
 445 0 445 0 407 0 c 2,4,-1
 211 0 l 2,5,6
 203 0 203 0 200 -2 c 128,-1,7
 197 -4 197 -4 190 -7 c 0,8,9
 178 -10 178 -10 172 -8.5 c 128,-1,10
 166 -7 166 -7 157 13 c 0,11,12
 154 24 154 24 158.5 29 c 128,-1,13
 163 34 163 34 176 42 c 0,14,15
 194 52 194 52 201.5 64 c 128,-1,16
 209 76 209 76 211 84 c 2,17,-1
 250 262 l 2,18,19
 256 291 256 291 276 315 c 128,-1,20
 296 339 296 339 317 362 c 0,21,22
 345 392 345 392 367.5 420 c 128,-1,23
 390 448 390 448 387 487 c 0,24,25
 386 511 386 511 371.5 524.5 c 128,-1,26
 357 538 357 538 336 543.5 c 128,-1,27
 315 549 315 549 291.5 546.5 c 128,-1,28
 268 544 268 544 245 535 c 1,29,30
 278 540 278 540 296.5 510.5 c 128,-1,31
 315 481 315 481 308 447 c 0,32,33
 299 405 299 405 264.5 376.5 c 128,-1,34
 230 348 230 348 188 348 c 0,35,36
 148 348 148 348 126.5 376 c 128,-1,37
 105 404 105 404 112 447 c 0,38,39
 121 487 121 487 151.5 522.5 c 128,-1,40
 182 558 182 558 226 578 c 0,41,42
 262 593 262 593 298.5 596 c 128,-1,43
 335 599 335 599 366.5 590 c 128,-1,44
 398 581 398 581 418.5 559.5 c 128,-1,45
 439 538 439 538 442 504 c 0,46,47
 445 459 445 459 423.5 419.5 c 128,-1,48
 402 380 402 380 363 341 c 0,49,50
 333 309 333 309 322 293.5 c 128,-1,51
 311 278 311 278 306 256 c 2,52,-1
 271 91 l 2,53,54
 266 66 266 66 251 57 c 1,55,-1
 433 57 l 1,56,-1
 499 371 l 1,57,58
 496 384 496 384 487 394 c 128,-1,59
 478 404 478 404 466 411 c 0,60,61
 453 419 453 419 438 426 c 1,62,63
 439 429 439 429 448 449 c 128,-1,64
 457 469 457 469 482 501.5 c 128,-1,65
 507 534 507 534 551 574 c 128,-1,66
 595 614 595 614 665 659 c 1,67,-1
 677 638 l 2,68,69
 682 631 682 631 685.5 623.5 c 128,-1,70
 689 616 689 616 691 616 c 1,71,72
 617 573 617 573 571.5 533 c 128,-1,73
 526 493 526 493 502 451 c 1,74,75
 511 450 511 450 519 444 c 0,76,77
 535 433 535 433 549 416 c 0,78,79
 559 399 559 399 557 376 c 128,-1,80
 555 353 555 353 552 342 c 2,81,-1
 492 58 l 2,0,1
259 447 m 0,82,83
 263 466 263 466 252 480.5 c 128,-1,84
 241 495 241 495 220 495 c 0,85,86
 200 495 200 495 183 480.5 c 128,-1,87
 166 466 166 466 161 447 c 0,88,89
 157 426 157 426 168 412 c 128,-1,90
 179 398 179 398 199 398 c 0,91,92
 220 398 220 398 237 412 c 128,-1,93
 254 426 254 426 259 447 c 0,82,83
EndSplineSet
EndChar
StartChar: uni0E0B
Encoding: 3595 3595 222
Width: 635
VWidth: 1494
Flags: W
HStem: 0 57<320 502> 312 50<180.702 254.911> 459 49<193.821 268.551>
VStem: 116 60<381.019 428.967> 568 57.5<351.508 385.061>
Fore
561 58 m 2,0,1
 556 37 556 37 535 21 c 0,2,3
 514 0 514 0 475 0 c 2,4,-1
 280 0 l 2,5,6
 272 0 272 0 269 -2 c 128,-1,7
 266 -4 266 -4 259 -7 c 0,8,9
 247 -10 247 -10 241 -8.5 c 128,-1,10
 235 -7 235 -7 226 13 c 0,11,12
 223 24 223 24 227.5 29 c 128,-1,13
 232 34 232 34 245 42 c 0,14,15
 263 52 263 52 270.5 64 c 128,-1,16
 278 76 278 76 280 84 c 2,17,-1
 321 281 l 2,18,19
 329 309 329 309 343 332.5 c 128,-1,20
 357 356 357 356 392 387 c 0,21,22
 423 417 423 417 447 440 c 128,-1,23
 471 463 471 463 472 475 c 0,24,25
 474 486 474 486 471.5 498.5 c 128,-1,26
 469 511 469 511 466 522.5 c 128,-1,27
 463 534 463 534 458.5 541.5 c 128,-1,28
 454 549 454 549 451 547 c 0,29,30
 442 541 442 541 430.5 532 c 128,-1,31
 419 523 419 523 402 511 c 1,32,33
 408 490 408 490 380 480 c 0,34,35
 357 472 357 472 351 498 c 1,36,37
 336 532 336 532 315 544 c 128,-1,38
 294 556 294 556 272 552.5 c 128,-1,39
 250 549 250 549 227.5 531.5 c 128,-1,40
 205 514 205 514 187 490 c 1,41,42
 215 508 215 508 243 508 c 128,-1,43
 271 508 271 508 290 496 c 128,-1,44
 309 484 309 484 319 461.5 c 128,-1,45
 329 439 329 439 323 411 c 0,46,47
 314 369 314 369 279 340.5 c 128,-1,48
 244 312 244 312 203 312 c 0,49,50
 169 312 169 312 149 329.5 c 128,-1,51
 129 347 129 347 120.5 373 c 128,-1,52
 112 399 112 399 116 429.5 c 128,-1,53
 120 460 120 460 132 487 c 0,54,55
 146 522 146 522 177 551 c 128,-1,56
 208 580 208 580 239 593 c 0,57,58
 280 610 280 610 320 604 c 128,-1,59
 360 598 360 598 386 555 c 1,60,61
 414 577 414 577 432 587.5 c 128,-1,62
 450 598 450 598 459.5 601.5 c 128,-1,63
 469 605 469 605 474.5 603.5 c 128,-1,64
 480 602 480 602 484 601 c 0,65,66
 493 596 493 596 501.5 582 c 128,-1,67
 510 568 510 568 515 550 c 128,-1,68
 520 532 520 532 522.5 513.5 c 128,-1,69
 525 495 525 495 522 481 c 0,70,71
 519 462 519 462 512 448.5 c 128,-1,72
 505 435 505 435 493 421.5 c 128,-1,73
 481 408 481 408 464 392.5 c 128,-1,74
 447 377 447 377 423 353 c 0,75,76
 408 339 408 339 397.5 325 c 128,-1,77
 387 311 387 311 380 278 c 2,78,-1
 339 91 l 2,79,80
 335 66 335 66 320 57 c 1,81,-1
 502 57 l 1,82,-1
 568 368 l 1,83,84
 568 384 568 384 558.5 394.5 c 128,-1,85
 549 405 549 405 537 411 c 0,86,87
 523 417 523 417 507 420 c 1,88,89
 508 423 508 423 517 444 c 128,-1,90
 526 465 526 465 550.5 498 c 128,-1,91
 575 531 575 531 619.5 572.5 c 128,-1,92
 664 614 664 614 734 659 c 1,93,-1
 746 638 l 2,94,95
 750 631 750 631 754 623.5 c 128,-1,96
 758 616 758 616 759 616 c 1,97,98
 686 573 686 573 640.5 533 c 128,-1,99
 595 493 595 493 571 451 c 1,100,101
 580 450 580 450 587 444 c 0,102,103
 604 433 604 433 617 416 c 0,104,105
 628 399 628 399 625.5 376 c 128,-1,106
 623 353 623 353 620 342 c 2,107,-1
 561 58 l 2,0,1
235 459 m 256,108,109
 214 459 214 459 197.5 445 c 128,-1,110
 181 431 181 431 176 411 c 0,111,112
 172 390 172 390 182.5 376 c 128,-1,113
 193 362 193 362 214 362 c 256,114,115
 235 362 235 362 251.5 376 c 128,-1,116
 268 390 268 390 272 411 c 0,117,118
 277 431 277 431 266.5 445 c 128,-1,119
 256 459 256 459 235 459 c 256,108,109
EndSplineSet
EndChar
StartChar: uni0E0C
Encoding: 3596 3596 223
Width: 917
VWidth: 1494
Flags: W
HStem: -7 50<207.813 282.69 470.829 491.795> 139 51<238.661 294.328> 559 51<334.852 519.787>
VStem: 394 53.5<79.922 81.5 81.5 129.718>
Fore
587 436 m 2,0,1
 589 454 589 454 601 468 c 1,2,3
 598 474 598 474 587.5 489.5 c 128,-1,4
 577 505 577 505 558.5 520 c 128,-1,5
 540 535 540 535 509 547 c 128,-1,6
 478 559 478 559 435 559 c 0,7,8
 384 559 384 559 346 546.5 c 128,-1,9
 308 534 308 534 280.5 516 c 128,-1,10
 253 498 253 498 235 478.5 c 128,-1,11
 217 459 217 459 208 445 c 1,12,-1
 259 408 l 1,13,14
 271 420 271 420 292.5 434 c 128,-1,15
 314 448 314 448 332 451 c 0,16,17
 333 451 333 451 340.5 436.5 c 128,-1,18
 348 422 348 422 353 411 c 1,19,20
 303 390 303 390 282.5 359.5 c 128,-1,21
 262 329 262 329 257 306 c 2,22,-1
 230 181 l 1,23,24
 253 190 253 190 271 190 c 0,25,26
 312 190 312 190 334.5 161 c 128,-1,27
 357 132 357 132 348 91 c 0,28,29
 341 51 341 51 306 22 c 128,-1,30
 271 -7 271 -7 229 -7 c 0,31,32
 188 -7 188 -7 166.5 22 c 128,-1,33
 145 51 145 51 152 91 c 2,34,-1
 199 308 l 2,35,36
 203 326 203 326 211.5 341.5 c 128,-1,37
 220 357 220 357 224 363 c 1,38,-1
 135 425 l 1,39,40
 139 433 139 433 158.5 462.5 c 128,-1,41
 178 492 178 492 216 525 c 128,-1,42
 254 558 254 558 310 583 c 128,-1,43
 366 608 366 608 444 610 c 0,44,45
 532 610 532 610 577.5 579.5 c 128,-1,46
 623 549 623 549 643 513 c 1,47,48
 647 516 647 516 655.5 514.5 c 128,-1,49
 664 513 664 513 673 501 c 0,50,51
 683 484 683 484 678 476.5 c 128,-1,52
 673 469 673 469 661 459 c 0,53,54
 647 448 647 448 643 428 c 2,55,-1
 610 269 l 1,56,57
 626 268 626 268 651.5 262 c 128,-1,58
 677 256 677 256 704 242.5 c 128,-1,59
 731 229 731 229 758 206.5 c 128,-1,60
 785 184 785 184 804 148 c 1,61,-1
 900 598 l 1,62,-1
 958 598 l 1,63,-1
 831 0 l 1,64,-1
 773 0 l 1,65,-1
 782 46 l 1,66,67
 777 93 777 93 754 124 c 128,-1,68
 731 155 731 155 702 174.5 c 128,-1,69
 673 194 673 194 643.5 204 c 128,-1,70
 614 214 614 214 598 215 c 1,71,-1
 571 85 l 2,72,73
 564 48 564 48 541.5 27 c 128,-1,74
 519 6 519 6 487 0 c 0,75,76
 465 -3 465 -3 444 6 c 128,-1,77
 423 15 423 15 410.5 33.5 c 128,-1,78
 398 52 398 52 394 81.5 c 128,-1,79
 390 111 390 111 402 146 c 0,80,81
 423 206 423 206 468 233 c 128,-1,82
 513 260 513 260 552 268 c 1,83,-1
 587 436 l 2,0,1
260 139 m 0,84,85
 241 139 241 139 223.5 125.5 c 128,-1,86
 206 112 206 112 202 91 c 0,87,88
 199 70 199 70 210 56.5 c 128,-1,89
 221 43 221 43 241 43 c 0,90,91
 262 43 262 43 279 56.5 c 128,-1,92
 296 70 296 70 299 91 c 0,93,94
 303 112 303 112 292 125.5 c 128,-1,95
 281 139 281 139 260 139 c 0,84,85
540 212 m 1,96,97
 516 206 516 206 489.5 187.5 c 128,-1,98
 463 169 463 169 451 130 c 0,99,100
 448 121 448 121 447.5 107 c 128,-1,101
 447 93 447 93 450.5 79.5 c 128,-1,102
 454 66 454 66 462.5 56 c 128,-1,103
 471 46 471 46 486 46 c 0,104,105
 490 46 490 46 497.5 50 c 128,-1,106
 505 54 505 54 510 75 c 2,107,-1
 540 212 l 1,96,97
EndSplineSet
EndChar
StartChar: uni0E0D
Encoding: 3597 3597 224
Width: 919
VWidth: 1494
Flags: W
HStem: -246 47<571 600.37> -94 48<503.355 566.915> -7 50<207.813 282.69> 4 53<547 776> 139 51<238.661 294.328> 559 51<334.852 500.922>
Fore
499 -106 m 1,0,1
 486 -120 486 -120 481 -139 c 0,2,3
 477 -157 477 -157 487.5 -169.5 c 128,-1,4
 498 -182 498 -182 516 -182 c 0,5,6
 535 -182 535 -182 550 -169.5 c 128,-1,7
 565 -157 565 -157 570 -139 c 0,8,9
 574 -118 574 -118 564.5 -106 c 128,-1,10
 555 -94 555 -94 534 -94 c 0,11,12
 516 -94 516 -94 499 -106 c 1,0,1
583 436 m 2,13,14
 584 454 584 454 596 468 c 1,15,16
 593 474 593 474 583.5 489.5 c 128,-1,17
 574 505 574 505 556 520 c 128,-1,18
 538 535 538 535 508 547 c 128,-1,19
 478 559 478 559 435 559 c 0,20,21
 384 559 384 559 346 546.5 c 128,-1,22
 308 534 308 534 280.5 516 c 128,-1,23
 253 498 253 498 235 478.5 c 128,-1,24
 217 459 217 459 208 445 c 1,25,-1
 259 408 l 1,26,27
 271 420 271 420 292.5 434 c 128,-1,28
 314 448 314 448 332 451 c 0,29,30
 333 451 333 451 340.5 436.5 c 128,-1,31
 348 422 348 422 353 411 c 1,32,33
 303 390 303 390 282.5 359.5 c 128,-1,34
 262 329 262 329 257 306 c 2,35,-1
 230 181 l 1,36,37
 253 190 253 190 271 190 c 0,38,39
 312 190 312 190 334.5 161 c 128,-1,40
 357 132 357 132 348 91 c 0,41,42
 341 51 341 51 306 22 c 128,-1,43
 271 -7 271 -7 229 -7 c 0,44,45
 188 -7 188 -7 166.5 22 c 128,-1,46
 145 51 145 51 152 91 c 2,47,-1
 199 308 l 2,48,49
 203 326 203 326 211.5 341.5 c 128,-1,50
 220 357 220 357 224 363 c 1,51,-1
 135 425 l 1,52,53
 139 433 139 433 158.5 462.5 c 128,-1,54
 178 492 178 492 216 525 c 128,-1,55
 254 558 254 558 310 583 c 128,-1,56
 366 608 366 608 444 610 c 0,57,58
 487 610 487 610 519.5 601.5 c 128,-1,59
 552 593 552 593 575 579 c 128,-1,60
 598 565 598 565 613.5 548 c 128,-1,61
 629 531 629 531 638 513 c 1,62,63
 643 516 643 516 651 514.5 c 128,-1,64
 659 513 659 513 668 501 c 0,65,66
 679 484 679 484 673.5 476.5 c 128,-1,67
 668 469 668 469 656 459 c 0,68,69
 643 448 643 448 638 428 c 2,70,-1
 567 91 l 2,71,72
 562 66 562 66 547 57 c 1,73,-1
 786 57 l 1,74,-1
 901 598 l 1,75,-1
 960 598 l 1,76,-1
 840 36 l 2,77,78
 831 -4 831 -4 816 -46 c 128,-1,79
 801 -88 801 -88 777 -125.5 c 128,-1,80
 753 -163 753 -163 718 -192 c 128,-1,81
 683 -221 683 -221 634 -235 c 0,82,83
 592 -247 592 -247 553 -246 c 128,-1,84
 514 -245 514 -245 485 -233 c 128,-1,85
 456 -221 456 -221 441 -197 c 128,-1,86
 426 -173 426 -173 433 -139 c 0,87,88
 441 -100 441 -100 473 -73 c 128,-1,89
 505 -46 505 -46 544 -46 c 0,90,91
 575 -46 575 -46 594 -62 c 128,-1,92
 613 -78 613 -78 617.5 -102 c 128,-1,93
 622 -126 622 -126 610.5 -152 c 128,-1,94
 599 -178 599 -178 571 -199 c 1,95,96
 659 -197 659 -197 707.5 -141 c 128,-1,97
 756 -85 756 -85 776 4 c 1,98,-1
 507 4 l 2,99,100
 499 4 499 4 497 2 c 128,-1,101
 495 0 495 0 487 -3 c 0,102,103
 475 -6 475 -6 468.5 -4.5 c 128,-1,104
 462 -3 462 -3 454 18 c 0,105,106
 451 28 451 28 455.5 33.5 c 128,-1,107
 460 39 460 39 474 46 c 0,108,109
 492 57 492 57 499.5 69 c 128,-1,110
 507 81 507 81 508 88 c 2,111,-1
 583 436 l 2,13,14
260 139 m 0,112,113
 241 139 241 139 223.5 125.5 c 128,-1,114
 206 112 206 112 202 91 c 0,115,116
 199 70 199 70 210 56.5 c 128,-1,117
 221 43 221 43 241 43 c 0,118,119
 262 43 262 43 279 56.5 c 128,-1,120
 296 70 296 70 299 91 c 0,121,122
 303 112 303 112 292 125.5 c 128,-1,123
 281 139 281 139 260 139 c 0,112,113
EndSplineSet
Substitution2: "Single Substitution lookup 22 subtable" uni0E0D.alt1
Substitution2: "Single Substitution lookup 22 subtable" uni0E0D.alt1
EndChar
StartChar: uni0E0E
Encoding: 3598 3598 225
Width: 653
VWidth: 1494
Flags: W
HStem: -345 52<87.7114 163.83> -6 49<96.4416 169.742> 141 49<108.346 176.644> 559 51<354.604 520.27>
Fore
523 -202 m 2,0,1
 517 -227 517 -227 497.5 -249.5 c 128,-1,2
 478 -272 478 -272 454.5 -292 c 128,-1,3
 431 -312 431 -312 406 -327 c 128,-1,4
 381 -342 381 -342 366 -351 c 0,5,6
 354 -357 354 -357 343 -354 c 128,-1,7
 332 -351 332 -351 327 -341 c 0,8,9
 324 -332 324 -332 328.5 -320.5 c 128,-1,10
 333 -309 333 -309 345 -302 c 1,11,12
 329 -268 329 -268 300.5 -235.5 c 128,-1,13
 272 -203 272 -203 245 -194 c 1,14,15
 238 -238 238 -238 221 -271 c 0,16,17
 206 -299 206 -299 178.5 -322 c 128,-1,18
 151 -345 151 -345 106 -345 c 0,19,20
 54 -345 54 -345 35 -311.5 c 128,-1,21
 16 -278 16 -278 24 -241 c 0,22,23
 30 -211 30 -211 48.5 -189 c 128,-1,24
 67 -167 67 -167 92 -154 c 128,-1,25
 117 -141 117 -141 144.5 -136.5 c 128,-1,26
 172 -132 172 -132 199 -136 c 1,27,-1
 215 -60 l 1,28,-1
 274 -60 l 1,29,-1
 254 -149 l 1,30,31
 269 -152 269 -152 289 -163.5 c 128,-1,32
 309 -175 309 -175 328.5 -191.5 c 128,-1,33
 348 -208 348 -208 364.5 -229 c 128,-1,34
 381 -250 381 -250 392 -274 c 1,35,36
 420 -254 420 -254 441 -234.5 c 128,-1,37
 462 -215 462 -215 465 -202 c 2,38,-1
 601 436 l 2,39,40
 602 454 602 454 614 468 c 1,41,42
 611 474 611 474 602 489.5 c 128,-1,43
 593 505 593 505 574.5 520 c 128,-1,44
 556 535 556 535 527 547 c 128,-1,45
 498 559 498 559 454 559 c 0,46,47
 404 559 404 559 365.5 546.5 c 128,-1,48
 327 534 327 534 299.5 516 c 128,-1,49
 272 498 272 498 254 478.5 c 128,-1,50
 236 459 236 459 227 445 c 1,51,-1
 278 408 l 1,52,53
 290 420 290 420 311.5 434 c 128,-1,54
 333 448 333 448 351 451 c 0,55,56
 353 451 353 451 360.5 436.5 c 128,-1,57
 368 422 368 422 372 411 c 1,58,59
 323 390 323 390 302 359.5 c 128,-1,60
 281 329 281 329 277 306 c 2,61,-1
 238 126 l 1,62,63
 241 118 241 118 240 109 c 128,-1,64
 239 100 239 100 238 93 c 0,65,66
 229 51 229 51 194.5 22.5 c 128,-1,67
 160 -6 160 -6 120 -6 c 0,68,69
 78 -6 78 -6 55.5 22.5 c 128,-1,70
 33 51 33 51 42 93 c 0,71,72
 49 133 49 133 83.5 161.5 c 128,-1,73
 118 190 118 190 160 190 c 0,74,75
 169 190 169 190 176.5 188.5 c 128,-1,76
 184 187 184 187 193 184 c 1,77,-1
 218 308 l 2,78,79
 223 326 223 326 231 341.5 c 128,-1,80
 239 357 239 357 244 363 c 1,81,-1
 154 425 l 1,82,83
 158 433 158 433 177.5 462.5 c 128,-1,84
 197 492 197 492 235.5 525 c 128,-1,85
 274 558 274 558 330 583 c 128,-1,86
 386 608 386 608 463 610 c 0,87,88
 507 610 507 610 539 601.5 c 128,-1,89
 571 593 571 593 594 579 c 128,-1,90
 617 565 617 565 632 548 c 128,-1,91
 647 531 647 531 656 513 c 1,92,93
 661 516 661 516 669 514.5 c 128,-1,94
 677 513 677 513 686 501 c 0,95,96
 697 484 697 484 691.5 476.5 c 128,-1,97
 686 469 686 469 674 459 c 0,98,99
 661 448 661 448 656 428 c 2,100,-1
 523 -202 l 2,0,1
130 43 m 0,101,102
 149 43 149 43 166.5 57.5 c 128,-1,103
 184 72 184 72 188 93 c 0,104,105
 191 112 191 112 180 126.5 c 128,-1,106
 169 141 169 141 149 141 c 128,-1,107
 129 141 129 141 111.5 126.5 c 128,-1,108
 94 112 94 112 91 93 c 0,109,110
 87 72 87 72 98 57.5 c 128,-1,111
 109 43 109 43 130 43 c 0,101,102
185 -232 m 0,112,113
 187 -224 187 -224 189 -208.5 c 128,-1,114
 191 -193 191 -193 191 -185 c 1,115,116
 176 -184 176 -184 158.5 -184 c 128,-1,117
 141 -184 141 -184 123.5 -188.5 c 128,-1,118
 106 -193 106 -193 93.5 -205.5 c 128,-1,119
 81 -218 81 -218 76 -241 c 0,120,121
 75 -245 75 -245 75 -254 c 128,-1,122
 75 -263 75 -263 78.5 -272 c 128,-1,123
 82 -281 82 -281 91 -287 c 128,-1,124
 100 -293 100 -293 118 -293 c 0,125,126
 148 -293 148 -293 163.5 -273.5 c 128,-1,127
 179 -254 179 -254 185 -232 c 0,112,113
EndSplineSet
Substitution2: "Single Substitution lookup 22 subtable" uni0E0E.alt1
Substitution2: "Single Substitution lookup 22 subtable" uni0E0E.alt1
EndChar
StartChar: uni0E0F
Encoding: 3599 3599 226
Width: 653
VWidth: 1494
Flags: W
HStem: -348 54<37.3411 113.509> -299.5 49<355.297 385.85 385.85 392.706> -6 49<96.4416 169.742> 141 49<108.346 176.644> 559 51<354.604 520.755>
Fore
525 -203 m 2,0,1
 517 -239 517 -239 504.5 -262.5 c 128,-1,2
 492 -286 492 -286 477 -300.5 c 128,-1,3
 462 -315 462 -315 447.5 -323.5 c 128,-1,4
 433 -332 433 -332 423 -335 c 0,5,6
 411 -338 411 -338 401.5 -332.5 c 128,-1,7
 392 -327 392 -327 392 -315 c 2,8,9
 387 -309 387 -309 393 -300 c 1,10,11
 389 -300 389 -300 378.5 -299.5 c 128,-1,12
 368 -299 368 -299 353.5 -303.5 c 128,-1,13
 339 -308 339 -308 322.5 -319 c 128,-1,14
 306 -330 306 -330 291 -351 c 0,15,16
 284 -362 284 -362 272 -364 c 128,-1,17
 260 -366 260 -366 253 -360 c 0,18,19
 245 -353 245 -353 245 -342.5 c 128,-1,20
 245 -332 245 -332 254 -323 c 2,21,-1
 257 -320 l 1,22,23
 245 -287 245 -287 230 -258 c 128,-1,24
 215 -229 215 -229 193 -209 c 1,25,26
 187 -250 187 -250 170 -280 c 0,27,28
 155 -305 155 -305 129 -326.5 c 128,-1,29
 103 -348 103 -348 57 -348 c 0,30,31
 31 -348 31 -348 14 -338.5 c 128,-1,32
 -3 -329 -3 -329 -12.5 -314 c 128,-1,33
 -22 -299 -22 -299 -25 -279.5 c 128,-1,34
 -28 -260 -28 -260 -24 -242 c 0,35,36
 -18 -212 -18 -212 0.5 -190.5 c 128,-1,37
 19 -169 19 -169 44 -155.5 c 128,-1,38
 69 -142 69 -142 97.5 -138.5 c 128,-1,39
 126 -135 126 -135 151 -141 c 1,40,-1
 167 -63 l 1,41,-1
 224 -63 l 1,42,-1
 203 -160 l 1,43,44
 233 -179 233 -179 258.5 -210.5 c 128,-1,45
 284 -242 284 -242 300 -281 c 1,46,47
 315 -266 315 -266 336 -258.5 c 128,-1,48
 357 -251 357 -251 378 -250.5 c 128,-1,49
 399 -250 399 -250 417 -254.5 c 128,-1,50
 435 -259 435 -259 442 -265 c 1,51,52
 454 -251 454 -251 458.5 -234 c 128,-1,53
 463 -217 463 -217 466 -203 c 2,54,-1
 602 436 l 2,55,56
 604 454 604 454 616 468 c 1,57,58
 613 474 613 474 603 489.5 c 128,-1,59
 593 505 593 505 575.5 520 c 128,-1,60
 558 535 558 535 528 547 c 128,-1,61
 498 559 498 559 454 559 c 0,62,63
 404 559 404 559 365.5 546.5 c 128,-1,64
 327 534 327 534 299.5 516 c 128,-1,65
 272 498 272 498 254 478.5 c 128,-1,66
 236 459 236 459 227 445 c 1,67,-1
 278 408 l 1,68,69
 290 420 290 420 311.5 434 c 128,-1,70
 333 448 333 448 351 451 c 0,71,72
 353 451 353 451 360.5 436.5 c 128,-1,73
 368 422 368 422 372 411 c 1,74,75
 323 390 323 390 302 359.5 c 128,-1,76
 281 329 281 329 277 306 c 2,77,-1
 238 126 l 1,78,79
 241 118 241 118 240 109 c 128,-1,80
 239 100 239 100 238 93 c 0,81,82
 229 51 229 51 194.5 22.5 c 128,-1,83
 160 -6 160 -6 120 -6 c 0,84,85
 78 -6 78 -6 55.5 22.5 c 128,-1,86
 33 51 33 51 42 93 c 0,87,88
 49 133 49 133 83.5 161.5 c 128,-1,89
 118 190 118 190 160 190 c 0,90,91
 169 190 169 190 176.5 188.5 c 128,-1,92
 184 187 184 187 193 184 c 1,93,-1
 218 308 l 2,94,95
 223 326 223 326 231 341.5 c 128,-1,96
 239 357 239 357 244 363 c 1,97,-1
 154 425 l 1,98,99
 158 433 158 433 177.5 462.5 c 128,-1,100
 197 492 197 492 235.5 525 c 128,-1,101
 274 558 274 558 330 583 c 128,-1,102
 386 608 386 608 463 610 c 0,103,104
 507 610 507 610 539 601.5 c 128,-1,105
 571 593 571 593 594 579 c 128,-1,106
 617 565 617 565 633 548 c 128,-1,107
 649 531 649 531 658 513 c 1,108,109
 662 516 662 516 670.5 514.5 c 128,-1,110
 679 513 679 513 688 501 c 0,111,112
 698 484 698 484 693 476.5 c 128,-1,113
 688 469 688 469 676 459 c 0,114,115
 662 448 662 448 658 428 c 2,116,-1
 525 -203 l 2,0,1
130 43 m 0,117,118
 149 43 149 43 166.5 57.5 c 128,-1,119
 184 72 184 72 188 93 c 0,120,121
 191 112 191 112 180 126.5 c 128,-1,122
 169 141 169 141 149 141 c 128,-1,123
 129 141 129 141 111.5 126.5 c 128,-1,124
 94 112 94 112 91 93 c 0,125,126
 87 72 87 72 98 57.5 c 128,-1,127
 109 43 109 43 130 43 c 0,117,118
69 -294 m 0,128,129
 91 -294 91 -294 110 -279.5 c 128,-1,130
 129 -265 129 -265 133 -242 c 0,131,132
 133 -239 133 -239 134.5 -231 c 128,-1,133
 136 -223 136 -223 137.5 -214 c 128,-1,134
 139 -205 139 -205 140.5 -197.5 c 128,-1,135
 142 -190 142 -190 142 -185 c 1,136,137
 108 -181 108 -181 72.5 -190 c 128,-1,138
 37 -199 37 -199 27 -242 c 0,139,140
 25 -247 25 -247 25 -256 c 128,-1,141
 25 -265 25 -265 29 -274 c 128,-1,142
 33 -283 33 -283 42 -288.5 c 128,-1,143
 51 -294 51 -294 69 -294 c 0,128,129
EndSplineSet
Substitution2: "Single Substitution lookup 22 subtable" uni0E0F.alt1
Substitution2: "Single Substitution lookup 22 subtable" uni0E0F.alt1
EndChar
